<?xml version="1.0" encoding="utf-8"?>
<!-- Generator: Adobe Illustrator 25.0.1, SVG Export Plug-In . SVG Version: 6.00 Build 0)  -->
<svg version="1.1" id="Group_122" xmlns="http://www.w3.org/2000/svg" xmlns:xlink="http://www.w3.org/1999/xlink" x="0px" y="0px"
	 viewBox="0 0 847.1 589.7" style="enable-background:new 0 0 847.1 589.7;" xml:space="preserve">
<style type="text/css">
	.st0{fill-rule:evenodd;clip-rule:evenodd;fill:#121212;}
	.st1{clip-path:url(#SVGID_2_);}
	.st2{fill-rule:evenodd;clip-rule:evenodd;fill:#1C1C1C;}
	.st3{fill:#656666;}
	.st4{fill:#E6E6E6;}
	.st5{fill-rule:evenodd;clip-rule:evenodd;fill:#CBCBCB;}
	.st6{fill:#FFFFFF;}
	.st7{fill:#7F7F7F;}
	.st8{fill-rule:evenodd;clip-rule:evenodd;fill:#989898;}
	.st9{fill-rule:evenodd;clip-rule:evenodd;fill:#353635;}
	.st10{fill-rule:evenodd;clip-rule:evenodd;fill:#484848;}
	.st11{fill-rule:evenodd;clip-rule:evenodd;fill:#1F1F1F;}
	.st12{fill-rule:evenodd;clip-rule:evenodd;fill:#4E4E4E;}
	.st13{fill-rule:evenodd;clip-rule:evenodd;fill:#FFFFFF;}
	.st14{fill-rule:evenodd;clip-rule:evenodd;fill:#E6E6E6;}
	.st15{fill-rule:evenodd;clip-rule:evenodd;fill:#959596;}
	.st16{fill:#1F1F1F;}
	.st17{fill-rule:evenodd;clip-rule:evenodd;fill:#353535;}
	.st18{fill-rule:evenodd;clip-rule:evenodd;fill:#DBB2FF;}
	.st19{fill:#DBB2FF;}
	.st20{fill-rule:evenodd;clip-rule:evenodd;fill:#A262F4;}
	.st21{fill-rule:evenodd;clip-rule:evenodd;fill:#851DF2;}
</style>
<path id="Path_155" class="st0" d="M362.2,376.6l320.6-68h164.3l-34,7.2l-15.3,59.6h-17.6l14.3-55.6l-29.8,6.4l-12.5,49.4l-17.7-0.1
	l11.8-45.2l-85.3,17.9l-21.4,83.3h-17.6l20.4-79.3l-29.8,6.4l-18.8,73H576l17.7-69l-85,18l-27.6,107h-17.6l26.5-103l-29.8,6.4
	l-24.9,96.7h-17.6l24.1-92.5l-85.4,17.7l-33.6,130.6h-17.6l32.6-126.7l-15,3.2L362.2,376.6z M303.2,441.2l-26.3,102.1h-17.6
	l19.4-75.1L303.2,441.2z"/>
<g id="Group_121">
	<g>
		<defs>
			<rect id="SVGID_1_" y="-21" width="892.8" height="610.7"/>
		</defs>
		<clipPath id="SVGID_2_">
			<use xlink:href="#SVGID_1_"  style="overflow:visible;"/>
		</clipPath>
		<g id="Group_120" class="st1">
			<path id="Path_156" class="st2" d="M836.7,207.1v77.2h-44.8v-77.2c0-18.7,10-33.8,22.4-33.8S836.7,188.5,836.7,207.1"/>
			<rect id="Rectangle_40" y="284.3" class="st3" width="836.7" height="3.3"/>
			<rect id="Rectangle_41" y="287.7" class="st4" width="847.1" height="20.9"/>
			<path id="Path_157" class="st5" d="M475.2,308.6v178.8h-11.8V320.8h-34.1v166.5h-11.8V308.6H475.2z"/>
			<rect id="Rectangle_42" x="429.4" y="357.1" class="st6" width="5.9" height="130.2"/>
			<rect id="Rectangle_43" x="429.4" y="320.8" class="st7" width="5.9" height="36.3"/>
			<rect id="Rectangle_44" x="475.2" y="313.8" class="st6" width="5.9" height="173.5"/>
			<rect id="Rectangle_45" x="475.2" y="308.6" class="st7" width="5.9" height="5.2"/>
			<path id="Path_158" class="st5" d="M791.9,308.6v66.8h-11.8v-54.6H746v54.6h-11.8v-66.8H791.9z"/>
			<path id="Path_159" class="st8" d="M791.9,308.6v5.2l-11.8,11.1v-4.1H746v36.3l-11.8,10.3v-58.8H791.9z"/>
			<rect id="Rectangle_46" x="746" y="320.8" class="st7" width="5.9" height="36.3"/>
			<rect id="Rectangle_47" x="791.9" y="313.8" class="st6" width="5.9" height="61.6"/>
			<rect id="Rectangle_48" x="791.9" y="308.6" class="st7" width="5.9" height="5.2"/>
			<path id="Path_160" class="st5" d="M633.6,308.6v122.8h-11.8V320.8h-34.1v110.5h-11.8V308.6H633.6z"/>
			<rect id="Rectangle_49" x="587.7" y="357.1" class="st6" width="5.9" height="74.2"/>
			<rect id="Rectangle_50" x="587.7" y="320.8" class="st7" width="5.9" height="36.3"/>
			<rect id="Rectangle_51" x="633.6" y="313.8" class="st6" width="5.9" height="117.5"/>
			<rect id="Rectangle_52" x="633.6" y="308.6" class="st7" width="5.9" height="5.2"/>
			<path id="Path_161" class="st5" d="M158.5,308.6v281.1h-11.8V320.8h-34.1v268.9h-11.8V308.6H158.5z"/>
			<rect id="Rectangle_53" x="112.7" y="357.1" class="st6" width="5.9" height="232.6"/>
			<rect id="Rectangle_54" x="112.7" y="320.8" class="st7" width="5.9" height="36.3"/>
			<rect id="Rectangle_55" x="158.5" y="313.8" class="st6" width="5.9" height="275.9"/>
			<rect id="Rectangle_56" x="158.5" y="308.6" class="st7" width="5.9" height="5.2"/>
			<path id="Path_162" class="st5" d="M316.9,308.6v234.8h-11.8V320.8H271v222.6h-11.8V308.6H316.9z"/>
			<rect id="Rectangle_57" x="271" y="357.1" class="st6" width="5.9" height="186.3"/>
			<rect id="Rectangle_58" x="271" y="320.8" class="st7" width="5.9" height="36.3"/>
			<rect id="Rectangle_59" x="316.9" y="313.8" class="st6" width="5.9" height="229.6"/>
			<rect id="Rectangle_60" x="316.9" y="308.6" class="st7" width="5.9" height="5.2"/>
			<rect id="Rectangle_61" x="746" y="357.1" class="st6" width="5.9" height="18.3"/>
			<path id="Path_163" class="st9" d="M199,272.2c0.9,1.3,1.4,2.9,1.4,4.5c0.1,4.1-3.2,7.5-7.3,7.6c-4.1,0.1-7.5-3.2-7.6-7.3
				c0-0.1,0-0.2,0-0.3h9.8C195.2,274.5,196.8,272.6,199,272.2"/>
			<path id="Path_164" class="st9" d="M228.9,272.1c1,1.3,1.5,2.9,1.5,4.6c0.1,4.1-3.2,7.5-7.3,7.6c-4.1,0.1-7.5-3.2-7.6-7.3
				c0-0.1,0-0.2,0-0.3v0c0-1.6,0.5-3.2,1.5-4.6L228.9,272.1z"/>
			<path id="Path_165" class="st10" d="M224.9,274.5h-29.2c-0.3,0.7-0.5,1.4-0.5,2.2h-4.4v2.2h34.1V274.5z"/>
			<path id="Path_166" class="st11" d="M212.6,280.5c-2,3.6-6.4,4.9-10,2.9c-0.1,0-0.1-0.1-0.2-0.1c-1.1-0.7-2.1-1.6-2.7-2.8h-0.2
				c0.3-0.5,0.5-1.1,0.7-1.7h15.5v0.1l0.1,0.1v0.1l0.1,0.1v0.1l0.1,0.1l0.1,0.1l0.1,0.1l0.1,0.1L212.6,280.5z M186.5,280.5h-3.8
				c-2,3.6-6.4,4.9-10,2.9c-0.1,0-0.1-0.1-0.2-0.1c-2.3-1.4-3.7-3.9-3.7-6.6h16.7C185.5,278,185.8,279.4,186.5,280.5 M199.5,273.1
				L199.5,273.1l-0.1-0.2c-0.1-0.2-0.3-0.4-0.4-0.6l-0.1-0.1c0.2,0,0.5-0.1,0.7-0.1h17.1l-0.1,0.1l-0.1,0.1
				c-0.1,0.2-0.3,0.4-0.4,0.6l-0.1,0.1c-0.2,0.5-0.4,0.9-0.6,1.4h-15.5C200,274.1,199.8,273.6,199.5,273.1"/>
			<path id="Path_167" class="st12" d="M414.2,215.8h7.2c4.7,0.1,8.5,3.9,8.5,8.7V268c0,4.7-3.7,8.6-8.5,8.7h-7.2
				c4.7-0.1,8.5-3.9,8.5-8.7v-43.6C422.7,219.7,418.9,215.9,414.2,215.8"/>
			<path id="Path_168" class="st13" d="M421.4,215.8h256.2c4.7,0.1,8.5,3.9,8.5,8.7V268c0,4.7-3.7,8.6-8.5,8.7h-20.3
				c0-2.5-2-4.5-4.5-4.6h-29.9c-2.5,0-4.5,2.1-4.5,4.6v0h-121c0-2.5-2-4.5-4.5-4.6H463c-2.5,0-4.5,2.1-4.5,4.6v0h-37.2
				c4.7-0.1,8.5-3.9,8.5-8.7v-43.6C429.9,219.8,426.1,215.9,421.4,215.8L421.4,215.8z"/>
			<path id="Path_169" class="st14" d="M221.7,215.8h27.1c-42.3,0-95,18.6-111.8,35.9s-14.1,25,39.1,25H149
				c-53.3,0-54.6-7.8-37.8-25S179.5,215.8,221.7,215.8"/>
			<path id="Path_170" class="st13" d="M248.9,215.8h165.3c4.7,0.1,8.5,3.9,8.5,8.7V268c0.1,4.7-3.7,8.6-8.4,8.7h-20.3
				c0-2.5-2-4.5-4.5-4.6h-29.9c-2.5,0-4.5,2.1-4.5,4.6v0H234c0-2.5-2-4.5-4.5-4.6h-29.9c-2.5,0-4.5,2.1-4.5,4.6v0h-19.1
				c-53.2,0-55.9-7.8-39.1-25S206.7,215.8,248.9,215.8"/>
			<path id="Path_171" class="st12" d="M677.5,215.8h7.2c4.7,0.1,8.5,3.9,8.5,8.7V268c0,4.7-3.7,8.6-8.5,8.7h-7.2
				c4.7-0.1,8.5-3.9,8.5-8.7v-43.6c0.1-4.7-3.6-8.6-8.3-8.7H677.5z"/>
			<path id="Path_172" class="st13" d="M684.7,215.8h152v60.9h-76c0-2.5-2-4.5-4.5-4.6h-29.9c-2.5,0-4.5,2.1-4.5,4.6v0h-37.2
				c4.7-0.1,8.5-3.9,8.5-8.7v-43.6c0.1-4.7-3.6-8.6-8.3-8.7H684.7z"/>
			<path id="Path_173" class="st15" d="M243,232.2h179.6V247H234.2c-2.1,0-2.5-2.4-1.6-3.7c2.3-3.3,4.8-7.1,6-9
				C239.7,233,241.3,232.2,243,232.2 M429.8,232.2H686V247H429.8L429.8,232.2z M693.1,232.2h143.6V247H693.2L693.1,232.2z"/>
			<rect id="Rectangle_62" x="422.6" y="232.2" class="st16" width="7.2" height="14.7"/>
			<rect id="Rectangle_63" x="686" y="232.2" class="st16" width="7.1" height="14.7"/>
			<path id="Path_174" class="st15" d="M169.9,223.3h39.5c6.7,0,7.9,1.4,1.3,5.4c-2.2,1.3-5.6,3.3-7.7,4.6c-5.1,3.2-11,4.8-17,4.7
				h-55C143.4,231.8,156.4,226.9,169.9,223.3"/>
			<path id="Path_175" class="st17" d="M169.9,223.3h26.8c-13.6,3.6-26.9,8.5-39.5,14.8h-26.2C143.4,231.8,156.4,226.9,169.9,223.3"
				/>
			<path id="Path_176" class="st17" d="M441.5,232.2h10.1c1.1,0,2,0.9,1.9,2c0,0,0,0,0,0v10.7c0,1.1-0.8,2-1.9,2c0,0,0,0,0,0h-10.1
				c-1.1,0-2-0.9-1.9-2c0,0,0,0,0,0v-10.7C439.6,233.1,440.5,232.2,441.5,232.2"/>
			<path id="Path_177" class="st17" d="M664.2,232.2h10.1c1.1,0,2,0.9,1.9,2c0,0,0,0,0,0v10.7c0,1.1-0.8,2-1.9,2h-10.1
				c-1.1,0-2-0.9-1.9-2c0,0,0,0,0,0v-10.7C662.2,233.1,663,232.2,664.2,232.2L664.2,232.2z"/>
			<path id="Path_178" class="st17" d="M465,232.2h22.6c1.1,0,2,0.9,1.9,2v10.7c0,1.1-0.9,2-1.9,2H465c-1.1,0-1.9-0.9-1.9-2v-10.7
				C463,233.1,463.9,232.2,465,232.2L465,232.2z"/>
			<path id="Path_179" class="st17" d="M497.6,232.2h22.6c1.1,0,2,0.9,1.9,2v10.7c0,1.1-0.9,2-1.9,2h-22.6c-1.1,0-1.9-0.9-1.9-2
				v-10.7C495.7,233.1,496.5,232.2,497.6,232.2"/>
			<path id="Path_180" class="st17" d="M530.3,232.2h22.6c1.1,0,2,0.9,1.9,2v10.7c0,1.1-0.9,2-1.9,2h-22.6c-1.1,0-1.9-0.9-1.9-2
				v-10.7C528.3,233.1,529.2,232.2,530.3,232.2"/>
			<path id="Path_181" class="st17" d="M562.9,232.2h22.6c1.1,0,2,0.9,1.9,2v10.7c0,1.1-0.9,2-1.9,2h-22.6c-1.1,0-2-0.9-1.9-2
				c0,0,0,0,0,0v-10.7C561,233.1,561.8,232.2,562.9,232.2"/>
			<path id="Path_182" class="st17" d="M595.6,232.2h22.6c1.1,0,2,0.9,1.9,2v10.7c0,1.1-0.9,2-1.9,2h-22.6c-1.1,0-2-0.9-1.9-2
				c0,0,0,0,0,0v-10.7C593.6,233.1,594.5,232.2,595.6,232.2L595.6,232.2z"/>
			<path id="Path_183" class="st17" d="M628.2,232.2h22.6c1.1,0,2,0.9,1.9,2v10.7c0,1.1-0.9,2-1.9,2h-22.6c-1.1,0-2-0.9-1.9-2
				c0,0,0,0,0,0v-10.7C626.2,233.1,627.1,232.2,628.2,232.2L628.2,232.2z"/>
			<path id="Path_184" class="st17" d="M704.9,232.2H715c1.1,0,2,0.9,1.9,2c0,0,0,0,0,0v10.7c0,1.1-0.8,2-1.9,2c0,0,0,0,0,0h-10.1
				c-1.1,0-2-0.9-1.9-2c0,0,0,0,0,0v-10.7C703,233.1,703.8,232.2,704.9,232.2L704.9,232.2z"/>
			<path id="Path_185" class="st17" d="M728.3,232.2h22.6c1.1,0,2,0.9,1.9,2v10.7c0,1.1-0.9,2-1.9,2h-22.6c-1.1,0-2-0.9-1.9-2
				c0,0,0,0,0,0v-10.7C726.4,233.1,727.2,232.2,728.3,232.2"/>
			<path id="Path_186" class="st17" d="M761,232.2h22.6c1.1,0,2,0.9,1.9,2v10.7c0,1.1-0.9,2-1.9,2H761c-1.1,0-2-0.9-1.9-2
				c0,0,0,0,0,0v-10.7C759,233.1,759.9,232.2,761,232.2"/>
			<path id="Path_187" class="st17" d="M793.6,232.2h22.6c1.1,0,2,0.9,1.9,2c0,0,0,0,0,0v10.7c0,1.1-0.9,2-1.9,2h-22.6
				c-1.1,0-2-0.9-1.9-2c0,0,0,0,0,0v-10.7C791.7,233.1,792.5,232.2,793.6,232.2L793.6,232.2z"/>
			<path id="Path_188" class="st17" d="M826.3,232.2h10.4V247h-10.4c-1.1,0-2-0.9-1.9-2v-10.7c-0.1-1.1,0.8-2,1.8-2
				C826.2,232.2,826.2,232.2,826.3,232.2"/>
			<path id="Path_189" class="st17" d="M400.8,232.2h10.1c1.1,0,2,0.9,1.9,2c0,0,0,0,0,0v10.7c0,1.1-0.8,2-1.9,2h-10.1
				c-1.1,0-2-0.9-1.9-2c0,0,0,0,0,0v-10.7C398.9,233.1,399.7,232.2,400.8,232.2"/>
			<path id="Path_190" class="st17" d="M243.1,232.2h13.9c1.1,0,2,0.9,1.9,2c0,0,0,0,0,0v10.7c0,1.1-0.9,2-1.9,2h-22.6
				c-2.1,0-2.5-2.4-1.6-3.7c2.3-3.3,4.8-7.1,6-9C239.7,232.7,242,232.2,243.1,232.2"/>
			<path id="Path_191" class="st17" d="M266.9,232.2h22.6c1.1,0,2,0.9,1.9,2v10.7c0,1.1-0.9,2-1.9,2h-22.6c-1.1,0-1.9-0.9-1.9-2
				v-10.7C265,233.1,265.8,232.2,266.9,232.2L266.9,232.2z"/>
			<path id="Path_192" class="st17" d="M299.6,232.2h22.6c1.1,0,2,0.9,1.9,2v10.7c0,1.1-0.9,2-1.9,2h-22.6c-1.1,0-1.9-0.9-1.9-2
				v-10.7C297.6,233.1,298.5,232.2,299.6,232.2L299.6,232.2z"/>
			<path id="Path_193" class="st17" d="M332.2,232.2h22.6c1.1,0,2,0.9,1.9,2v10.7c0,1.1-0.9,2-1.9,2h-22.6c-1.1,0-1.9-0.9-1.9-2
				v-10.7C330.3,233.1,331.1,232.2,332.2,232.2"/>
			<path id="Path_194" class="st17" d="M364.8,232.2h22.6c1.1,0,1.9,0.9,1.9,2v10.7c0,1.1-0.9,2-1.9,2h-22.6c-1.1,0-1.9-0.9-1.9-2
				v-10.7C362.9,233.1,363.8,232.2,364.8,232.2"/>
			<path id="Path_195" class="st18" d="M686,265.2v2.8c0,4.7-3.7,8.6-8.5,8.7h-20.3c0-2.5-2-4.5-4.5-4.6h-29.9
				c-2.5,0-4.5,2.1-4.5,4.6v0h-121c0-2.5-2-4.5-4.5-4.6c0,0,0,0,0,0H463c-2.5,0-4.5,2.1-4.5,4.6v0h-37.2c4.7-0.1,8.5-3.9,8.5-8.7
				v-2.8L686,265.2z"/>
			<path id="Path_196" class="st18" d="M836.7,265.2v11.5h-76c0-2.5-2-4.5-4.5-4.6h-29.9c-2.5,0-4.5,2.1-4.5,4.6v0h-37.2
				c4.7-0.1,8.5-3.9,8.5-8.7v-2.8L836.7,265.2z"/>
			<rect id="Rectangle_64" x="429.8" y="226.2" class="st19" width="256.2" height="2.7"/>
			<rect id="Rectangle_65" x="693.2" y="226.2" class="st19" width="143.6" height="2.7"/>
			<path id="Path_197" class="st20" d="M686,268.7c-0.3,4.5-4,8-8.5,8h-20.3c0-2.5-2-4.5-4.5-4.6h-29.9c-2.5,0-4.5,2.1-4.5,4.6v0
				h-121c0-2.5-2-4.5-4.5-4.6H463c-2.5,0-4.5,2.1-4.5,4.6v0h-37.2c4.5-0.1,8.2-3.6,8.5-8H686z"/>
			<path id="Path_198" class="st20" d="M836.7,268.7v8h-76c0-2.5-2-4.5-4.5-4.6h-29.9c-2.5,0-4.5,2.1-4.5,4.6c0,0,0,0,0,0v0h-37.2
				c4.5-0.1,8.1-3.6,8.5-8L836.7,268.7z"/>
			<path id="Path_199" class="st18" d="M422.6,265.2v2.8c0.1,4.7-3.7,8.6-8.4,8.7c0,0,0,0,0,0h-20.3c0-2.5-2-4.5-4.5-4.6h-29.9
				c-2.5,0-4.5,2.1-4.5,4.6v0H234c0-2.5-2-4.5-4.4-4.6c0,0,0,0,0,0h-29.9c-2.5,0-4.5,2.1-4.5,4.6v0h-19.1
				c-45.8,0-54.1-5.8-44.9-18.4h37.9c8.4,0.1,16.6-2.7,23.1-7.9l23.6-18.8c4.6-3.6,10.3-5.6,16.2-5.4h190.6v2.7H243.3
				c-4.4,0-6.7,1.5-8.8,4.3l-19.2,25.2c-3,4-1.8,6.9,3.6,6.9L422.6,265.2z"/>
			<path id="Path_200" class="st20" d="M422.6,268.7c-0.3,4.5-3.9,8-8.4,8h-20.3c0-2.5-2-4.5-4.5-4.6h-29.9c-2.5,0-4.5,2.1-4.5,4.6
				c0,0,0,0,0,0v0H234c0-2.5-2-4.5-4.5-4.6h-29.9c-2.5,0-4.5,2.1-4.5,4.6v0h-19.1c-30.5,0-44.4-2.6-47.5-8H422.6z"/>
			<path id="Path_201" class="st18" d="M131.3,258.3c-9.2,12.6-0.9,18.4,44.9,18.4H149c-45.9,0-53.3-5.8-43.7-18.4H131.3z"/>
			<path id="Path_202" class="st21" d="M128.7,268.7c3.1,5.4,17,8,47.5,8H149c-30.6,0-44-2.6-46.8-8H128.7z"/>
			<path id="Path_203" class="st9" d="M358.8,272.2c0.9,1.3,1.4,2.9,1.4,4.5c0.1,4.1-3.1,7.5-7.2,7.7s-7.5-3.1-7.7-7.2
				c0-0.1,0-0.3,0-0.4h9.8C355.1,274.5,356.6,272.6,358.8,272.2"/>
			<path id="Path_204" class="st9" d="M388.7,272.1c1,1.3,1.5,2.9,1.5,4.6c0.1,4.1-3.1,7.5-7.3,7.6c-4.1,0.1-7.5-3.1-7.6-7.3
				c0-0.1,0-0.3,0-0.4c0-1.6,0.5-3.2,1.5-4.6H388.7z"/>
			<path id="Path_205" class="st10" d="M384.8,274.5h-29.2c-0.3,0.7-0.5,1.4-0.5,2.2h-4.4v2.2h34.1L384.8,274.5z"/>
			<path id="Path_206" class="st11" d="M372.4,280.5c-2,3.6-6.4,4.9-10,2.9c-0.1,0-0.1-0.1-0.2-0.1c-1.1-0.7-2.1-1.6-2.7-2.8h-0.2
				c0.3-0.5,0.5-1.1,0.7-1.7h15.5v0.1l0.1,0.1v0.1l0.1,0.1v0.1l0.1,0.1l0.1,0.1l0.1,0.1l0.1,0.1L372.4,280.5z M346.3,280.5h-3.8
				c-2,3.6-6.4,4.9-10,2.9c-0.1,0-0.1-0.1-0.2-0.1c-2.3-1.4-3.7-3.9-3.7-6.6h16.7C345.3,278,345.6,279.4,346.3,280.5 M359.4,273.1
				L359.4,273.1l-0.1-0.2c-0.1-0.2-0.3-0.4-0.4-0.6l-0.1-0.1c0.2,0,0.5-0.1,0.7-0.1h17.2l-0.1,0.1l-0.1,0.1
				c-0.1,0.2-0.3,0.4-0.4,0.6l-0.1,0.1c-0.2,0.5-0.4,0.9-0.6,1.4h-15.5C359.8,274,359.6,273.6,359.4,273.1"/>
			<path id="Path_207" class="st9" d="M462.3,272.2c0.9,1.3,1.4,2.9,1.4,4.5c0.1,4.1-3.1,7.5-7.2,7.7s-7.5-3.1-7.7-7.2
				c0-0.1,0-0.3,0-0.4h9.8C458.6,274.5,460.1,272.6,462.3,272.2"/>
			<path id="Path_208" class="st9" d="M492.2,272.1c1,1.3,1.5,2.9,1.5,4.6c0.1,4.1-3.1,7.5-7.3,7.6c-4.1,0.1-7.5-3.1-7.6-7.3
				c0-0.1,0-0.3,0-0.4c0-1.6,0.5-3.2,1.5-4.6H492.2z"/>
			<path id="Path_209" class="st10" d="M488.3,274.5h-29.2c-0.3,0.7-0.5,1.4-0.5,2.2h-4.4v2.2h34.1L488.3,274.5z"/>
			<path id="Path_210" class="st11" d="M475.9,280.5c-2,3.6-6.4,4.9-10,2.9c-0.1,0-0.1-0.1-0.2-0.1c-1.1-0.7-2.1-1.6-2.7-2.8h-0.2
				c0.3-0.5,0.5-1.1,0.7-1.7H479v0.1l0.1,0.1v0.1l0.1,0.1v0.1l0.1,0.1l0.1,0.1l0.1,0.1l0.1,0.1L475.9,280.5z M449.8,280.5H446
				c-2,3.6-6.4,4.9-10,2.9c-0.1,0-0.1-0.1-0.2-0.1c-2.3-1.4-3.7-3.9-3.7-6.6h16.7C448.8,278,449.1,279.4,449.8,280.5 M462.9,273.1
				L462.9,273.1l-0.1-0.2c-0.1-0.2-0.3-0.4-0.4-0.6l-0.1-0.1c0.2,0,0.5-0.1,0.7-0.1h17.2l-0.1,0.1l-0.1,0.1
				c-0.1,0.2-0.3,0.4-0.4,0.6l-0.1,0.1c-0.2,0.5-0.4,0.9-0.6,1.4h-15.5C463.3,274,463.1,273.6,462.9,273.1"/>
			<path id="Path_211" class="st9" d="M622.2,272.2c0.9,1.3,1.4,2.9,1.4,4.5c0.1,4.1-3.1,7.5-7.3,7.6c-4.1,0.1-7.5-3.1-7.6-7.3
				c0-0.1,0-0.3,0-0.4h9.8C618.4,274.5,620,272.6,622.2,272.2"/>
			<path id="Path_212" class="st9" d="M652,272.1c1,1.3,1.5,2.9,1.5,4.6c0.1,4.1-3.1,7.5-7.3,7.6c-4.1,0.1-7.5-3.1-7.6-7.3
				c0-0.1,0-0.3,0-0.4c0-1.6,0.5-3.2,1.5-4.6H652z"/>
			<path id="Path_213" class="st10" d="M648.2,274.5H619c-0.3,0.7-0.5,1.4-0.5,2.2H614v2.2h34.1V274.5z"/>
			<path id="Path_214" class="st11" d="M635.8,280.5c-2,3.6-6.4,4.9-10,2.9c-0.1,0-0.1-0.1-0.2-0.1c-1.1-0.7-2.1-1.6-2.7-2.8h-0.2
				c0.3-0.5,0.5-1.1,0.7-1.7h15.5l0.1,0.1l0.1,0.1v0.1l0.1,0.1v0.1l0.1,0.1l0.1,0.1l0.1,0.1l0.1,0.1L635.8,280.5z M609.6,280.5h-3.8
				c-2,3.6-6.4,4.9-10,2.9c-0.1,0-0.1-0.1-0.2-0.1c-2.3-1.4-3.7-3.9-3.7-6.6h16.7C608.6,278,609,279.4,609.6,280.5 M622.8,273.1
				L622.8,273.1l-0.1-0.2c-0.1-0.2-0.3-0.4-0.4-0.6l-0.1-0.1c0.2,0,0.5-0.1,0.7-0.1h17.2l-0.1,0.1l-0.1,0.1
				c-0.1,0.2-0.3,0.4-0.4,0.6l-0.1,0.1c-0.2,0.5-0.4,0.9-0.6,1.4h-15.5C623.2,274,622.9,273.6,622.8,273.1L622.8,273.1z"/>
			<path id="Path_215" class="st9" d="M725.7,272.2c0.9,1.3,1.4,2.9,1.4,4.5c0.1,4.1-3.1,7.5-7.2,7.7c-4.1,0.1-7.5-3.1-7.7-7.2
				c0-0.1,0-0.3,0-0.4h9.8C721.9,274.5,723.5,272.5,725.7,272.2"/>
			<path id="Path_216" class="st9" d="M755.6,272.1c1,1.3,1.5,2.9,1.5,4.6c0.1,4.1-3.1,7.5-7.3,7.6c-4.1,0.1-7.5-3.1-7.6-7.3
				c0-0.1,0-0.3,0-0.4c0-1.6,0.5-3.2,1.5-4.6H755.6z"/>
			<path id="Path_217" class="st10" d="M751.6,274.5h-29.2c-0.3,0.7-0.5,1.4-0.5,2.2h-4.4v2.2h34.1V274.5z"/>
			<path id="Path_218" class="st11" d="M739.3,280.5c-2,3.6-6.4,4.9-10,2.9c-0.1,0-0.1-0.1-0.2-0.1c-1.1-0.7-2.1-1.6-2.7-2.8h-0.2
				c0.3-0.5,0.5-1.1,0.7-1.7h15.5l0.1,0.1l0.1,0.1v0.1l0.1,0.1v0.1l0.1,0.1l0.1,0.1l0.1,0.1l0.1,0.1L739.3,280.5z M713.2,280.5h-3.8
				c-2,3.6-6.4,4.9-10,2.9c-0.1,0-0.1-0.1-0.2-0.1c-2.3-1.4-3.7-3.9-3.7-6.6h16.7C712.2,278,712.5,279.4,713.2,280.5 M726.3,273.1
				L726.3,273.1l-0.1-0.2c-0.1-0.2-0.3-0.4-0.4-0.6l-0.1-0.1c0.2,0,0.5-0.1,0.7-0.1h17.2l-0.1,0.1l-0.1,0.1
				c-0.1,0.2-0.3,0.4-0.4,0.6l-0.1,0.1c-0.2,0.5-0.4,0.9-0.6,1.4H727C726.7,274,726.4,273.6,726.3,273.1"/>
			<path id="Path_219" class="st8" d="M633.6,308.6v5.2l-11.8,11.1v-4.1h-34.1v36.3l-11.8,10.3v-58.8H633.6z"/>
			<path id="Path_220" class="st8" d="M475.2,308.6v5.2l-11.8,11.1v-4.1h-34.1v36.3l-11.8,10.3v-58.8H475.2z"/>
			<path id="Path_221" class="st8" d="M316.9,308.6v5.2l-11.8,11.1v-4.1H271v36.3l-11.8,10.3v-58.8H316.9z"/>
			<path id="Path_222" class="st8" d="M158.5,308.6v5.2l-11.8,11.1v-4.1h-34.1v36.3l-11.8,10.3v-58.8H158.5z"/>
		</g>
	</g>
</g>
</svg>
