<svg id="Group_122" data-name="Group 122" xmlns="http://www.w3.org/2000/svg" xmlns:xlink="http://www.w3.org/1999/xlink" width="892.844" height="610.747" viewBox="0 0 892.844 610.747">
  <defs>
    <clipPath id="clip-path">
      <rect id="Rectangle_66" data-name="Rectangle 66" width="892.844" height="610.747" fill="none"/>
    </clipPath>
  </defs>
  <path id="Path_155" data-name="Path 155" d="M362.219,397.612l320.643-67.974H847.12l-33.965,7.217-15.328,59.573H780.189l14.331-55.586L764.7,347.2l-12.546,49.392-17.744-.108,11.76-45.244-85.253,17.882L639.5,452.391H621.862l20.421-79.286-29.818,6.356-18.793,72.983H576.033l17.744-69-85.043,18.044-27.56,106.971H463.535l26.511-103.039-29.818,6.355-24.883,96.684H417.707l24.148-92.483L356.444,433.7l-33.6,130.617H305.209l32.6-126.738-14.961,3.178Zm-59.005,64.636-26.3,102.123H259.275l19.371-75.139Z" fill="#121212" fill-rule="evenodd"/>
  <g id="Group_121" data-name="Group 121">
    <g id="Group_120" data-name="Group 120" clip-path="url(#clip-path)">
      <path id="Path_156" data-name="Path 156" d="M836.727,228.108v77.239H791.9V228.108c0-18.69,10.026-33.826,22.415-33.826s22.416,15.189,22.416,33.826" fill="#1c1c1c" fill-rule="evenodd"/>
      <rect id="Rectangle_40" data-name="Rectangle 40" width="836.727" height="3.339" transform="translate(0 305.347)" fill="#656666"/>
      <rect id="Rectangle_41" data-name="Rectangle 41" width="847.121" height="20.898" transform="translate(0 308.686)" fill="#e6e6e6"/>
      <path id="Path_157" data-name="Path 157" d="M475.242,329.584V508.355H463.483V341.812H429.361V508.355H417.6V329.584Z" fill="#cbcbcb" fill-rule="evenodd"/>
      <rect id="Rectangle_42" data-name="Rectangle 42" width="5.932" height="130.24" transform="translate(429.361 378.115)" fill="#fff"/>
      <rect id="Rectangle_43" data-name="Rectangle 43" width="5.932" height="36.303" transform="translate(429.361 341.812)" fill="#7f7f7f"/>
      <rect id="Rectangle_44" data-name="Rectangle 44" width="5.879" height="173.546" transform="translate(475.242 334.809)" fill="#fff"/>
      <rect id="Rectangle_45" data-name="Rectangle 45" width="5.879" height="5.225" transform="translate(475.242 329.584)" fill="#7f7f7f"/>
      <path id="Path_158" data-name="Path 158" d="M791.9,329.584v66.79H780.136V341.812H746.014v54.562H734.255v-66.79Z" fill="#cbcbcb" fill-rule="evenodd"/>
      <path id="Path_159" data-name="Path 159" d="M791.9,329.584v5.225l-11.759,11.1v-4.092H746.014v36.3L734.255,388.4V329.584Z" fill="#989898" fill-rule="evenodd"/>
      <rect id="Rectangle_46" data-name="Rectangle 46" width="5.932" height="36.303" transform="translate(746.014 341.812)" fill="#7f7f7f"/>
      <rect id="Rectangle_47" data-name="Rectangle 47" width="5.932" height="61.565" transform="translate(791.896 334.809)" fill="#fff"/>
      <rect id="Rectangle_48" data-name="Rectangle 48" width="5.932" height="5.225" transform="translate(791.896 329.584)" fill="#7f7f7f"/>
      <path id="Path_160" data-name="Path 160" d="M633.569,329.584V452.337H621.81V341.812H587.688V452.337H575.929V329.584Z" fill="#cbcbcb" fill-rule="evenodd"/>
      <rect id="Rectangle_49" data-name="Rectangle 49" width="5.932" height="74.223" transform="translate(587.687 378.115)" fill="#fff"/>
      <rect id="Rectangle_50" data-name="Rectangle 50" width="5.932" height="36.303" transform="translate(587.687 341.812)" fill="#7f7f7f"/>
      <rect id="Rectangle_51" data-name="Rectangle 51" width="5.932" height="117.528" transform="translate(633.569 334.809)" fill="#fff"/>
      <rect id="Rectangle_52" data-name="Rectangle 52" width="5.932" height="5.225" transform="translate(633.569 329.584)" fill="#7f7f7f"/>
      <path id="Path_161" data-name="Path 161" d="M158.537,329.584V610.692H146.778V341.812H112.656V610.747H100.9V329.584Z" fill="#cbcbcb" fill-rule="evenodd"/>
      <rect id="Rectangle_53" data-name="Rectangle 53" width="5.932" height="232.633" transform="translate(112.655 378.115)" fill="#fff"/>
      <rect id="Rectangle_54" data-name="Rectangle 54" width="5.932" height="36.303" transform="translate(112.655 341.812)" fill="#7f7f7f"/>
      <rect id="Rectangle_55" data-name="Rectangle 55" width="5.932" height="275.938" transform="translate(158.537 334.809)" fill="#fff"/>
      <rect id="Rectangle_56" data-name="Rectangle 56" width="5.932" height="5.225" transform="translate(158.537 329.584)" fill="#7f7f7f"/>
      <path id="Path_162" data-name="Path 162" d="M316.915,329.584V564.371H305.156V341.812H271.034V564.371H259.275V329.584Z" fill="#cbcbcb" fill-rule="evenodd"/>
      <rect id="Rectangle_57" data-name="Rectangle 57" width="5.879" height="186.257" transform="translate(271.035 378.115)" fill="#fff"/>
      <rect id="Rectangle_58" data-name="Rectangle 58" width="5.879" height="36.303" transform="translate(271.035 341.812)" fill="#7f7f7f"/>
      <rect id="Rectangle_59" data-name="Rectangle 59" width="5.879" height="229.562" transform="translate(316.916 334.809)" fill="#fff"/>
      <rect id="Rectangle_60" data-name="Rectangle 60" width="5.879" height="5.225" transform="translate(316.916 329.584)" fill="#7f7f7f"/>
      <rect id="Rectangle_61" data-name="Rectangle 61" width="5.932" height="18.26" transform="translate(746.014 378.115)" fill="#fff"/>
      <path id="Path_163" data-name="Path 163" d="M198.958,293.173a7.664,7.664,0,0,1,1.417,4.524,7.456,7.456,0,1,1-14.908,0h9.764a4.546,4.546,0,0,1,3.727-4.524" fill="#353635" fill-rule="evenodd"/>
      <path id="Path_164" data-name="Path 164" d="M228.88,293.119a7.676,7.676,0,0,1,1.47,4.578,7.456,7.456,0,1,1-14.908.011V297.7a7.668,7.668,0,0,1,1.469-4.578Z" fill="#353635" fill-rule="evenodd"/>
      <path id="Path_165" data-name="Path 165" d="M224.943,295.543H195.756a4.806,4.806,0,0,0-.525,2.154h-4.41v2.156h34.122Z" fill="#484848" fill-rule="evenodd"/>
      <path id="Path_166" data-name="Path 166" d="M212.555,301.522a7.352,7.352,0,0,1-10.182,2.8,7.553,7.553,0,0,1-2.732-2.8h-.21a6.551,6.551,0,0,0,.682-1.669h15.539v.107l.052.108v.053l.053.109v.107l.052.054.053.053.052.109.053.107Zm-26.09,0h-3.78a7.352,7.352,0,0,1-10.182,2.8,7.69,7.69,0,0,1-3.73-6.628h16.746a7.252,7.252,0,0,0,.946,3.825m13.071-7.433h0l-.053-.161c-.1-.216-.262-.432-.367-.647l-.053-.108a2.953,2.953,0,0,1,.683-.054h17.061l-.053.054-.052.108a4.043,4.043,0,0,0-.368.647l-.052.107a11.062,11.062,0,0,0-.578,1.4H200.166c-.21-.377-.368-.863-.63-1.347" fill="#1f1f1f" fill-rule="evenodd"/>
      <path id="Path_167" data-name="Path 167" d="M414.19,236.78h7.192a8.591,8.591,0,0,1,8.452,8.672v43.574a8.591,8.591,0,0,1-8.452,8.672H414.19a8.591,8.591,0,0,0,8.452-8.672V245.452a8.591,8.591,0,0,0-8.452-8.672" fill="#4e4e4e" fill-rule="evenodd"/>
      <path id="Path_168" data-name="Path 168" d="M421.382,236.78H677.56a8.591,8.591,0,0,1,8.452,8.672v43.574a8.591,8.591,0,0,1-8.452,8.672H657.244a4.516,4.516,0,0,0-4.451-4.578H622.86a4.516,4.516,0,0,0-4.462,4.567v.011h-121a4.517,4.517,0,0,0-4.452-4.578H463.011a4.515,4.515,0,0,0-4.462,4.567v.011h-37.22a8.591,8.591,0,0,0,8.452-8.672V245.452a8.514,8.514,0,0,0-8.346-8.672Z" fill="#fff" fill-rule="evenodd"/>
      <path id="Path_169" data-name="Path 169" d="M221.741,236.78h27.14c-42.259,0-95.017,18.637-111.763,35.872S123,297.7,176.175,297.7H148.982c-53.335,0-54.648-7.81-37.849-25.046s68.349-35.872,110.608-35.872" fill="#e6e6e6" fill-rule="evenodd"/>
      <path id="Path_170" data-name="Path 170" d="M248.934,236.78H414.19a8.592,8.592,0,0,1,8.452,8.672v43.574A8.56,8.56,0,0,1,414.2,297.7H393.874a4.516,4.516,0,0,0-4.452-4.578H359.489a4.516,4.516,0,0,0-4.462,4.567v.011h-121a4.516,4.516,0,0,0-4.451-4.578H199.641a4.516,4.516,0,0,0-4.463,4.567v.011H176.122c-53.23,0-55.855-7.81-39.056-25.046s69.609-35.872,111.868-35.872" fill="#fff" fill-rule="evenodd"/>
      <path id="Path_171" data-name="Path 171" d="M677.507,236.78H684.7a8.591,8.591,0,0,1,8.452,8.672v43.574A8.591,8.591,0,0,1,684.7,297.7h-7.192a8.591,8.591,0,0,0,8.452-8.672V245.452a8.514,8.514,0,0,0-8.347-8.672Z" fill="#4e4e4e" fill-rule="evenodd"/>
      <path id="Path_172" data-name="Path 172" d="M684.7,236.78H836.726V297.7H760.713a4.517,4.517,0,0,0-4.452-4.578H726.328a4.515,4.515,0,0,0-4.462,4.567v.011H684.647a8.591,8.591,0,0,0,8.451-8.672V245.452a8.485,8.485,0,0,0-8.283-8.672Z" fill="#fff" fill-rule="evenodd"/>
      <path id="Path_173" data-name="Path 173" d="M243,253.207h179.64v14.759H234.235c-2.1,0-2.52-2.424-1.627-3.717,2.257-3.34,4.777-7.109,6.037-8.995A5.606,5.606,0,0,1,243,253.207m186.831,0H686.011v14.759H429.833Zm263.318,0H836.726v14.759H693.151Z" fill="#959596" fill-rule="evenodd"/>
      <rect id="Rectangle_62" data-name="Rectangle 62" width="7.192" height="14.705" transform="translate(422.642 253.207)" fill="#1f1f1f"/>
      <rect id="Rectangle_63" data-name="Rectangle 63" width="7.14" height="14.705" transform="translate(686.012 253.207)" fill="#1f1f1f"/>
      <path id="Path_174" data-name="Path 174" d="M169.876,244.266h39.476c6.668,0,7.875,1.4,1.261,5.387-2.205,1.346-5.618,3.285-7.718,4.632a30.853,30.853,0,0,1-16.956,4.74H130.977a206.3,206.3,0,0,1,38.9-14.759" fill="#959596" fill-rule="evenodd"/>
      <path id="Path_175" data-name="Path 175" d="M169.876,244.266h26.772a206.062,206.062,0,0,0-39.529,14.759h-26.2a208.328,208.328,0,0,1,38.953-14.759" fill="#353535" fill-rule="evenodd"/>
      <path id="Path_176" data-name="Path 176" d="M441.54,253.207h10.079a1.962,1.962,0,0,1,1.942,1.982v10.73a1.962,1.962,0,0,1-1.931,1.993H441.54a1.962,1.962,0,0,1-1.942-1.982V255.2a2,2,0,0,1,1.942-1.993" fill="#353535" fill-rule="evenodd"/>
      <path id="Path_177" data-name="Path 177" d="M664.174,253.207h10.079a1.962,1.962,0,0,1,1.942,1.982v10.73a1.963,1.963,0,0,1-1.932,1.993H664.174a1.962,1.962,0,0,1-1.942-1.982V255.2a1.933,1.933,0,0,1,1.868-1.993Z" fill="#353535" fill-rule="evenodd"/>
      <path id="Path_178" data-name="Path 178" d="M465.005,253.207H487.63a1.963,1.963,0,0,1,1.943,1.982v10.73a2,2,0,0,1-1.943,1.993H465.005a2,2,0,0,1-1.942-1.993V255.2a1.933,1.933,0,0,1,1.868-1.993Z" fill="#353535" fill-rule="evenodd"/>
      <path id="Path_179" data-name="Path 179" d="M497.605,253.207H520.23a1.963,1.963,0,0,1,1.943,1.982v10.73a2,2,0,0,1-1.943,1.993H497.605a2,2,0,0,1-1.942-1.993V255.2a2,2,0,0,1,1.942-1.993" fill="#353535" fill-rule="evenodd"/>
      <path id="Path_180" data-name="Path 180" d="M530.257,253.207h22.625a1.963,1.963,0,0,1,1.943,1.982v10.73a2,2,0,0,1-1.943,1.993H530.257a2,2,0,0,1-1.942-1.993V255.2a2,2,0,0,1,1.942-1.993" fill="#353535" fill-rule="evenodd"/>
      <path id="Path_181" data-name="Path 181" d="M562.91,253.207h22.625a1.963,1.963,0,0,1,1.943,1.982v10.73a2,2,0,0,1-1.943,1.993H562.91a1.962,1.962,0,0,1-1.942-1.982V255.2a2,2,0,0,1,1.942-1.993" fill="#353535" fill-rule="evenodd"/>
      <path id="Path_182" data-name="Path 182" d="M595.562,253.207h22.625a1.963,1.963,0,0,1,1.943,1.982v10.73a2,2,0,0,1-1.943,1.993H595.562a1.962,1.962,0,0,1-1.942-1.982V255.2a1.963,1.963,0,0,1,1.931-1.993Z" fill="#353535" fill-rule="evenodd"/>
      <path id="Path_183" data-name="Path 183" d="M628.214,253.207h22.625a1.963,1.963,0,0,1,1.943,1.982v10.73a2,2,0,0,1-1.943,1.993H628.214a1.962,1.962,0,0,1-1.942-1.982V255.2a1.933,1.933,0,0,1,1.868-1.993Z" fill="#353535" fill-rule="evenodd"/>
      <path id="Path_184" data-name="Path 184" d="M704.91,253.207h10.079a1.962,1.962,0,0,1,1.942,1.982v10.73A1.962,1.962,0,0,1,715,267.912H704.91a1.962,1.962,0,0,1-1.942-1.982V255.2a1.964,1.964,0,0,1,1.932-1.993Z" fill="#353535" fill-rule="evenodd"/>
      <path id="Path_185" data-name="Path 185" d="M728.323,253.207h22.625a1.963,1.963,0,0,1,1.943,1.982v10.73a2,2,0,0,1-1.943,1.993H728.323a1.962,1.962,0,0,1-1.942-1.982V255.2a2,2,0,0,1,1.942-1.993" fill="#353535" fill-rule="evenodd"/>
      <path id="Path_186" data-name="Path 186" d="M760.976,253.207H783.6a1.963,1.963,0,0,1,1.943,1.982v10.73a2,2,0,0,1-1.943,1.993H760.976a1.962,1.962,0,0,1-1.942-1.982V255.2a2,2,0,0,1,1.942-1.993" fill="#353535" fill-rule="evenodd"/>
      <path id="Path_187" data-name="Path 187" d="M793.627,253.207h22.626a1.962,1.962,0,0,1,1.942,1.982v10.73a2,2,0,0,1-1.942,1.993H793.627a1.962,1.962,0,0,1-1.942-1.982V255.2a1.964,1.964,0,0,1,1.932-1.993Z" fill="#353535" fill-rule="evenodd"/>
      <path id="Path_188" data-name="Path 188" d="M826.28,253.207h10.447v14.759H826.28a1.963,1.963,0,0,1-1.942-1.983V255.254a1.946,1.946,0,0,1,1.836-2.045c.035,0,.07,0,.106,0" fill="#353535" fill-rule="evenodd"/>
      <path id="Path_189" data-name="Path 189" d="M400.8,253.207h10.079a1.962,1.962,0,0,1,1.942,1.982v10.73a1.963,1.963,0,0,1-1.932,1.993H400.8a1.962,1.962,0,0,1-1.942-1.982V255.2a2,2,0,0,1,1.942-1.993" fill="#353535" fill-rule="evenodd"/>
      <path id="Path_190" data-name="Path 190" d="M243.054,253.207h13.859a1.962,1.962,0,0,1,1.942,1.982v10.73a2,2,0,0,1-1.942,1.993H234.287c-2.1,0-2.519-2.424-1.627-3.717,2.257-3.34,4.777-7.11,6.037-9,1-1.508,3.255-1.993,4.357-1.993" fill="#353535" fill-rule="evenodd"/>
      <path id="Path_191" data-name="Path 191" d="M266.94,253.207h22.625a1.963,1.963,0,0,1,1.943,1.982v10.73a2,2,0,0,1-1.943,1.993H266.94A2,2,0,0,1,265,265.919V255.2a1.933,1.933,0,0,1,1.868-1.993Z" fill="#353535" fill-rule="evenodd"/>
      <path id="Path_192" data-name="Path 192" d="M299.592,253.207h22.625a1.963,1.963,0,0,1,1.943,1.982v10.73a2,2,0,0,1-1.943,1.993H299.592a2,2,0,0,1-1.942-1.993V255.2a1.933,1.933,0,0,1,1.868-1.993Z" fill="#353535" fill-rule="evenodd"/>
      <path id="Path_193" data-name="Path 193" d="M332.192,253.207h22.625a1.963,1.963,0,0,1,1.943,1.982v10.73a2,2,0,0,1-1.943,1.993H332.192a2,2,0,0,1-1.942-1.993V255.2a2,2,0,0,1,1.942-1.993" fill="#353535" fill-rule="evenodd"/>
      <path id="Path_194" data-name="Path 194" d="M364.844,253.207h22.625a2,2,0,0,1,1.943,1.993v10.719a2,2,0,0,1-1.943,1.993H364.844a2,2,0,0,1-1.942-1.993V255.2a2,2,0,0,1,1.942-1.993" fill="#353535" fill-rule="evenodd"/>
      <path id="Path_195" data-name="Path 195" d="M686.012,286.225v2.8a8.591,8.591,0,0,1-8.452,8.672H657.244a4.515,4.515,0,0,0-4.451-4.578H622.86a4.516,4.516,0,0,0-4.462,4.567v.011h-121a4.515,4.515,0,0,0-4.452-4.578H463.011a4.516,4.516,0,0,0-4.462,4.567v.011h-37.22a8.591,8.591,0,0,0,8.452-8.672v-2.8Z" fill="#dbb2ff" fill-rule="evenodd"/>
      <path id="Path_196" data-name="Path 196" d="M836.727,286.225V297.7H760.713a4.515,4.515,0,0,0-4.451-4.578H726.329a4.515,4.515,0,0,0-4.462,4.567v.011h-37.22a8.591,8.591,0,0,0,8.452-8.672v-2.8Z" fill="#dbb2ff" fill-rule="evenodd"/>
      <rect id="Rectangle_64" data-name="Rectangle 64" width="256.178" height="2.693" transform="translate(429.833 247.175)" fill="#dbb2ff"/>
      <rect id="Rectangle_65" data-name="Rectangle 65" width="143.575" height="2.693" transform="translate(693.151 247.175)" fill="#dbb2ff"/>
      <path id="Path_197" data-name="Path 197" d="M685.959,289.672a8.569,8.569,0,0,1-8.452,8.025H657.244a4.517,4.517,0,0,0-4.452-4.578H622.859a4.516,4.516,0,0,0-4.462,4.568v.01h-121a4.516,4.516,0,0,0-4.452-4.578H463.01a4.516,4.516,0,0,0-4.462,4.568v.01H421.329a8.6,8.6,0,0,0,8.451-8.025Z" fill="#a262f4" fill-rule="evenodd"/>
      <path id="Path_198" data-name="Path 198" d="M836.727,289.672V297.7H760.713a4.516,4.516,0,0,0-4.451-4.578H726.329a4.515,4.515,0,0,0-4.462,4.568v.01h-37.22a8.642,8.642,0,0,0,8.452-8.025Z" fill="#a262f4" fill-rule="evenodd"/>
      <path id="Path_199" data-name="Path 199" d="M422.642,286.225v2.8A8.558,8.558,0,0,1,414.2,297.7H393.874a4.515,4.515,0,0,0-4.451-4.578H359.49a4.515,4.515,0,0,0-4.462,4.567v.011h-121a4.514,4.514,0,0,0-4.451-4.578H199.641a4.516,4.516,0,0,0-4.462,4.567v.011H176.123c-45.776,0-54.123-5.817-44.884-18.367h37.9a36.113,36.113,0,0,0,23.15-7.918l23.571-18.8a25.293,25.293,0,0,1,16.221-5.441H422.642v2.694H243.317c-4.357,0-6.719,1.454-8.819,4.254l-19.161,25.208c-3.045,4.04-1.837,6.894,3.57,6.894Z" fill="#dbb2ff" fill-rule="evenodd"/>
      <path id="Path_200" data-name="Path 200" d="M422.589,289.672a8.554,8.554,0,0,1-8.4,8.025H393.874a4.517,4.517,0,0,0-4.452-4.578H359.489a4.515,4.515,0,0,0-4.462,4.568v.01h-121a4.517,4.517,0,0,0-4.452-4.578H199.64a4.516,4.516,0,0,0-4.462,4.568v.01H176.122c-30.5,0-44.411-2.585-47.508-8.025Z" fill="#a262f4" fill-rule="evenodd"/>
      <path id="Path_201" data-name="Path 201" d="M131.292,279.277c-9.24,12.6-.894,18.367,44.883,18.367H148.982c-45.88,0-53.282-5.816-43.728-18.367Z" fill="#dbb2ff" fill-rule="evenodd"/>
      <path id="Path_202" data-name="Path 202" d="M128.667,289.672c3.149,5.44,17.008,8.025,47.508,8.025H148.982c-30.6,0-44.044-2.585-46.825-8.025Z" fill="#851df2" fill-rule="evenodd"/>
      <path id="Path_203" data-name="Path 203" d="M358.807,293.173a7.664,7.664,0,0,1,1.417,4.524,7.457,7.457,0,1,1-14.908,0h9.764a4.546,4.546,0,0,1,3.727-4.524" fill="#353635" fill-rule="evenodd"/>
      <path id="Path_204" data-name="Path 204" d="M388.729,293.119a7.676,7.676,0,0,1,1.47,4.578,7.457,7.457,0,1,1-14.909,0,7.676,7.676,0,0,1,1.47-4.578Z" fill="#353635" fill-rule="evenodd"/>
      <path id="Path_205" data-name="Path 205" d="M384.793,295.543H355.605a4.818,4.818,0,0,0-.524,2.154h-4.41v2.156h34.122Z" fill="#484848" fill-rule="evenodd"/>
      <path id="Path_206" data-name="Path 206" d="M372.4,301.522a7.352,7.352,0,0,1-10.182,2.8,7.553,7.553,0,0,1-2.732-2.8h-.21a6.552,6.552,0,0,0,.683-1.669H375.5v.107l.053.108v.053l.052.109v.107l.053.054.052.053.053.109.052.107Zm-26.09,0h-3.78a7.352,7.352,0,0,1-10.182,2.8,7.687,7.687,0,0,1-3.729-6.628h16.746a7.26,7.26,0,0,0,.945,3.825m13.071-7.433h0l-.052-.161c-.105-.216-.263-.432-.368-.647l-.052-.108a2.94,2.94,0,0,1,.682-.054H376.76l-.052.054-.053.108a3.965,3.965,0,0,0-.367.647l-.052.107a10.915,10.915,0,0,0-.578,1.4H360.119a8.021,8.021,0,0,1-.735-1.347" fill="#1f1f1f" fill-rule="evenodd"/>
      <path id="Path_207" data-name="Path 207" d="M462.328,293.173a7.664,7.664,0,0,1,1.417,4.524,7.457,7.457,0,1,1-14.908,0H458.6a4.5,4.5,0,0,1,3.727-4.524" fill="#353635" fill-rule="evenodd"/>
      <path id="Path_208" data-name="Path 208" d="M492.2,293.119a7.676,7.676,0,0,1,1.47,4.578,7.457,7.457,0,1,1-14.909,0,7.676,7.676,0,0,1,1.47-4.578Z" fill="#353635" fill-rule="evenodd"/>
      <path id="Path_209" data-name="Path 209" d="M488.314,295.543H459.126a4.8,4.8,0,0,0-.524,2.154h-4.411v2.156h34.123Z" fill="#484848" fill-rule="evenodd"/>
      <path id="Path_210" data-name="Path 210" d="M475.925,301.522a7.352,7.352,0,0,1-10.182,2.8,7.553,7.553,0,0,1-2.732-2.8h-.21a6.55,6.55,0,0,0,.682-1.669h15.539v.107l.052.108v.053l.053.109v.107l.052.054.053.053.052.109.053.107Zm-26.143,0H446a7.351,7.351,0,0,1-10.181,2.8,7.685,7.685,0,0,1-3.73-6.628h16.746a7.251,7.251,0,0,0,.945,3.825m13.124-7.433h0l-.053-.161c-.105-.216-.262-.432-.367-.647l-.053-.108a2.953,2.953,0,0,1,.683-.054h17.166l-.052.054-.053.108a4.043,4.043,0,0,0-.368.647l-.052.107a11.062,11.062,0,0,0-.578,1.4H463.641a5.487,5.487,0,0,1-.735-1.347" fill="#1f1f1f" fill-rule="evenodd"/>
      <path id="Path_211" data-name="Path 211" d="M622.177,293.173a7.664,7.664,0,0,1,1.417,4.524,7.457,7.457,0,1,1-14.909,0h9.764a4.5,4.5,0,0,1,3.728-4.524" fill="#353635" fill-rule="evenodd"/>
      <path id="Path_212" data-name="Path 212" d="M652.047,293.119a7.676,7.676,0,0,1,1.47,4.578,7.457,7.457,0,1,1-14.909,0,7.669,7.669,0,0,1,1.47-4.578Z" fill="#353635" fill-rule="evenodd"/>
      <path id="Path_213" data-name="Path 213" d="M648.163,295.543H618.976a4.805,4.805,0,0,0-.525,2.154h-4.41v2.156h34.122Z" fill="#484848" fill-rule="evenodd"/>
      <path id="Path_214" data-name="Path 214" d="M635.773,301.522a7.352,7.352,0,0,1-10.182,2.8,7.553,7.553,0,0,1-2.732-2.8h-.21a6.55,6.55,0,0,0,.683-1.669H638.87l.053.107.052.108v.053l.053.109v.107l.052.054.053.053.052.109.053.107Zm-26.143,0h-3.779a7.352,7.352,0,0,1-10.182,2.8,7.685,7.685,0,0,1-3.729-6.628h16.746a7.25,7.25,0,0,0,.944,3.825m13.124-7.433h0l-.052-.161c-.105-.216-.263-.432-.368-.647l-.052-.108a2.94,2.94,0,0,1,.682-.054H640.13l-.052.054-.053.108a3.96,3.96,0,0,0-.367.647l-.052.107a10.911,10.911,0,0,0-.578,1.4H623.489A5.518,5.518,0,0,1,622.754,294.089Z" fill="#1f1f1f" fill-rule="evenodd"/>
      <path id="Path_215" data-name="Path 215" d="M725.7,293.173a7.664,7.664,0,0,1,1.417,4.524,7.457,7.457,0,1,1-14.908,0h9.764a4.455,4.455,0,0,1,3.727-4.524" fill="#353635" fill-rule="evenodd"/>
      <path id="Path_216" data-name="Path 216" d="M755.568,293.119a7.676,7.676,0,0,1,1.47,4.578,7.457,7.457,0,1,1-14.909,0,7.676,7.676,0,0,1,1.47-4.578Z" fill="#353635" fill-rule="evenodd"/>
      <path id="Path_217" data-name="Path 217" d="M751.631,295.543H722.444a4.806,4.806,0,0,0-.525,2.154h-4.41v2.156h34.122Z" fill="#484848" fill-rule="evenodd"/>
      <path id="Path_218" data-name="Path 218" d="M739.295,301.522a7.352,7.352,0,0,1-10.182,2.8,7.554,7.554,0,0,1-2.732-2.8h-.21a6.59,6.59,0,0,0,.683-1.669h15.538l.052.107.053.108v.053l.052.109v.107l.053.054.052.053.053.109.052.107Zm-26.143,0h-3.779a7.352,7.352,0,0,1-10.182,2.8,7.688,7.688,0,0,1-3.73-6.628h16.746a7.261,7.261,0,0,0,.945,3.825m13.124-7.433h0l-.053-.161c-.1-.216-.262-.432-.367-.647l-.053-.108a2.954,2.954,0,0,1,.683-.054h17.166l-.052.054-.053.108a3.965,3.965,0,0,0-.367.647l-.053.107a10.915,10.915,0,0,0-.577,1.4H727.011a4.189,4.189,0,0,1-.735-1.347" fill="#1f1f1f" fill-rule="evenodd"/>
      <path id="Path_219" data-name="Path 219" d="M633.569,329.584v5.225L621.81,345.9v-4.092H587.688v36.3L575.929,388.4V329.584Z" fill="#989898" fill-rule="evenodd"/>
      <path id="Path_220" data-name="Path 220" d="M475.242,329.584v5.225l-11.759,11.1v-4.092H429.361v36.3L417.6,388.4V329.584Z" fill="#989898" fill-rule="evenodd"/>
      <path id="Path_221" data-name="Path 221" d="M316.915,329.584v5.225l-11.759,11.1v-4.092H271.034v36.3L259.275,388.4V329.584Z" fill="#989898" fill-rule="evenodd"/>
      <path id="Path_222" data-name="Path 222" d="M158.537,329.584v5.225l-11.759,11.1v-4.092H112.656v36.3L100.9,388.4V329.584Z" fill="#989898" fill-rule="evenodd"/>
    </g>
  </g>
</svg>
