<?xml version="1.0" encoding="utf-8"?>
<!-- Generator: Adobe Illustrator 25.0.1, SVG Export Plug-In . SVG Version: 6.00 Build 0)  -->
<svg version="1.1" id="Layer_1" xmlns="http://www.w3.org/2000/svg" xmlns:xlink="http://www.w3.org/1999/xlink" x="0px" y="0px"
	 viewBox="0 0 762.5 440.1" style="enable-background:new 0 0 762.5 440.1;" xml:space="preserve">
<style type="text/css">
	.st0{clip-path:url(#SVGID_2_);}
	.st1{fill:#B8BCFC;}
	.st2{fill:#647DA7;}
	.st3{fill:#F0E1FF;}
	.st4{fill:#455F80;}
	.st5{fill:#CBB9F9;}
	.st6{fill:#26232E;}
	.st7{fill:#544C66;}
	.st8{fill:#C9DAFC;}
	.st9{fill:#ABADBB;}
	.st10{fill:#878787;stroke:#888888;}
	.st11{fill:#ECF3FA;}
	.st12{fill:#FFFFFF;}
	.st13{fill:#3F3F3F;}
	.st14{fill:#CAA2FC;}
	.st15{fill:#3B313F;}
	.st16{fill:#474573;}
	.st17{fill:#4F4F7C;}
	.st18{fill:#ABB0D8;}
	.st19{fill:#2892E8;}
	.st20{fill:#196DD1;}
	.st21{fill:#524556;}
	.st22{fill:#E6E6E8;}
	.st23{fill:#FBB040;}
	.st24{fill:#115EAA;}
	.st25{fill:#FB6A57;}
	.st26{fill:#FC8B96;}
	.st27{fill:#F47178;}
	.st28{fill:#EE5F61;}
	.st29{fill:#3A3341;}
	.st30{fill:#FAF368;}
	.st31{fill:#F7AA67;}
	.st32{fill:#FCC377;}
	.st33{fill:#474F84;}
	.st34{fill:#4C4266;}
	.st35{fill:none;stroke:#231F20;stroke-miterlimit:10;}
	.st36{fill:#FBF9FF;}
	.st37{fill:#A2A4ED;}
</style>
<g id="Group_124" transform="translate(0 0.001)">
	<g>
		<g>
			<defs>
				<polyline id="SVGID_1_" points="-54.5,-34.7 762.5,-34.7 762.5,440.1 -54.5,440.1 				"/>
			</defs>
			<clipPath id="SVGID_2_">
				<use xlink:href="#SVGID_1_"  style="overflow:visible;"/>
			</clipPath>
			<g id="Group_123" transform="translate(0 -0.001)" class="st0">
				<path id="Path_245_2_" class="st1" d="M356.3,45.4v-1.5"/>
				<path id="Path_247_1_" class="st1" d="M356.3,51.4v-1.5"/>
				<path id="Path_263" class="st2" d="M316.9,169.5v3.2l-35.5-18.4v-3.2L316.9,169.5z"/>
				<path id="Path_264" class="st3" d="M281.4,151.1l35.6,18.4L447.3,102l-35.6-18.4L281.4,151.1z"/>
				<path id="Path_265" class="st4" d="M316.9,169.5v3.2l130.3-67.4v-3.2L316.9,169.5z"/>
				<path id="Path_266" class="st5" d="M216.3,429v3.2l546.2-282.7v-3.3L216.3,429z"/>
				<path id="Path_267" class="st6" d="M762.5,146.2L216.3,429L15.8,325.5L562,42.7L762.5,146.2z"/>
				<path id="Path_268" class="st5" d="M216.3,429v3.2L15.8,328.6v-3.2L216.3,429z"/>
				<path id="Path_269" class="st7" d="M551.8,291.1v3.2l-34.5-17.9v-3.2L551.8,291.1z"/>
				<path id="Path_270" class="st3" d="M517.2,273.2l34.5,17.9L682,223.6l-34.5-17.9L517.2,273.2z"/>
				<path id="Path_271" class="st7" d="M551.8,291.1v3.2l130.3-67.5v-3.2L551.8,291.1z"/>
				<path id="Path_272" class="st8" d="M340.8,130.2c0.4-0.3,0.8-0.6,1.2-0.8l63.6-32.9c3.3-1.7,7.3-1.7,10.6,0l12.2,6.3h5.4v4.3
					c0,1.5-0.9,2.8-2.2,3.5l-63.4,32.8c-4.5,2.3-9.9,2.3-14.4,0l-11.8-6.1c-1.7-0.8-2.7-2.5-2.8-4.3l0,0v-4.4L340.8,130.2z"/>
				<path id="Path_273" class="st1" d="M431.5,106.2l-62.1,32.1v4.3l62.1-32.1c1.3-0.6,2.2-2,2.2-3.5v-4.2
					C433.7,104.2,432.8,105.5,431.5,106.2"/>
				<path id="Path_274" class="st9" d="M339.2,128.5L339.2,128.5L339.2,128.5L339.2,128.5z"/>
				<path id="Path_275" class="st10" d="M342,124.2l63.5-32.9c3.3-1.7,7.3-1.7,10.6,0l15.4,7.9c1.9,0.9,2.8,3.1,1.9,5
					c-0.4,0.8-1.1,1.5-1.9,1.9l-63.4,32.8c-4.5,2.3-9.9,2.3-14.4,0l-11.8-6.1c-2.4-1.1-3.4-3.9-2.4-6.3
					C340.1,125.5,340.9,124.7,342,124.2"/>
				<path id="Path_276" class="st1" d="M357.4,140.3v4.3c2.5,0.6,5,0.5,7.5-0.1v-4.3C362.4,140.8,359.8,140.8,357.4,140.3"/>
				<path id="Path_277" class="st8" d="M450,186.7c0.4-0.3,0.8-0.6,1.2-0.8l63.6-32.9c3.3-1.7,7.3-1.7,10.6,0l12.2,6.3h5.4v4.3
					c0,1.5-0.9,2.8-2.2,3.5l-63.4,32.8c-4.5,2.3-9.9,2.3-14.4,0l-11.8-6.1c-1.7-0.8-2.7-2.5-2.8-4.3l0,0v-4.4L450,186.7z"/>
				<path id="Path_278" class="st1" d="M540.8,162.7l-62.1,32.1v4.3l62.1-32.1c1.3-0.6,2.2-2,2.2-3.5v-4.2
					C543,160.8,542.1,162.1,540.8,162.7"/>
				<path id="Path_279" class="st9" d="M448.5,185.1L448.5,185.1L448.5,185.1L448.5,185.1z"/>
				<path id="Path_280" class="st10" d="M451.2,180.8l63.6-32.9c3.3-1.7,7.3-1.7,10.6,0l15.4,7.9c1.9,0.9,2.8,3.1,1.9,5
					c-0.4,0.8-1.1,1.5-1.9,1.9l-63.4,32.8c-4.5,2.3-9.9,2.3-14.4,0l-11.8-6.1c-2.4-1.1-3.4-3.9-2.4-6.3
					C449.4,182.1,450.2,181.3,451.2,180.8"/>
				<path id="Path_281" class="st1" d="M466.6,196.8v4.3c2.5,0.6,5,0.5,7.5-0.1v-4.3C471.6,197.4,469.1,197.4,466.6,196.8"/>
				<path id="Path_282" class="st8" d="M568.2,247.9c0.4-0.3,0.8-0.6,1.2-0.8l63.6-32.9c3.3-1.7,7.3-1.7,10.6,0l12.2,6.3h5.4v4.3
					c0,1.5-0.9,2.8-2.2,3.5L595.5,261c-4.5,2.3-9.9,2.3-14.4,0l-11.8-6.1c-1.7-0.8-2.7-2.5-2.8-4.3l0,0v-4.4L568.2,247.9z"/>
				<path id="Path_283" class="st1" d="M658.9,223.9L596.8,256v4.3l62.1-32.1c1.3-0.6,2.2-2,2.2-3.5v-4.2
					C661.1,221.9,660.2,223.2,658.9,223.9"/>
				<path id="Path_284" class="st9" d="M566.6,246.2C566.6,246.2,566.6,246.3,566.6,246.2L566.6,246.2L566.6,246.2z"/>
				<path id="Path_285" class="st10" d="M569.4,241.9L633,209c3.3-1.7,7.3-1.7,10.6,0l15.4,7.9c1.9,0.9,2.8,3.1,1.9,5
					c-0.4,0.8-1.1,1.5-1.9,1.9l-63.5,32.9c-4.5,2.3-9.9,2.3-14.4,0l-11.8-6.1c-2.4-1.1-3.4-3.9-2.4-6.3
					C567.5,243.3,568.3,242.4,569.4,241.9"/>
				<path id="Path_286" class="st1" d="M584.8,258v4.3c2.5,0.6,5,0.5,7.5-0.1v-4.3C589.8,258.5,587.2,258.6,584.8,258"/>
				<path id="Path_287" class="st8" d="M282.2,187.6v3.1l-15.3-7.9v-3.2L282.2,187.6z"/>
				<path id="Path_288" class="st11" d="M266.9,179.7l15.3,7.9l30.3-15.6l-15.3-7.9L266.9,179.7z"/>
				<path id="Path_289" class="st1" d="M282.2,187.6v3.1l30.3-15.6V172L282.2,187.6z"/>
				<path id="Path_290" class="st8" d="M278.8,175.5l3.4,12.1l-15.3-7.9l4.6-8L278.8,175.5z"/>
				<path id="Path_291" class="st12" d="M271.5,171.7l7.3,3.8l30.3-15.6l-7.3-3.8L271.5,171.7z"/>
				<path id="Path_292" class="st13" d="M278.8,175.5l3.4,12.1l30.3-15.6l-3.4-12.1L278.8,175.5z"/>
				<path id="Path_293" class="st8" d="M278.8,161v14.5l-7.3-3.8v-14.5L278.8,161z"/>
				<path id="Path_294" class="st10" d="M271.5,157.2l7.3,3.8l30.3-15.6l-7.3-3.8L271.5,157.2z"/>
				<path id="Path_295" class="st14" d="M278.8,161v14.5l30.3-15.6v-14.5L278.8,161z"/>
				<path id="Path_296" class="st8" d="M248.9,204.8v3.1l-15.3-7.9v-3.2L248.9,204.8z"/>
				<path id="Path_297" class="st11" d="M233.6,196.9l15.3,7.9l30.3-15.6l-15.3-7.9L233.6,196.9z"/>
				<path id="Path_298" class="st1" d="M248.9,204.8v3.1l30.3-15.6v-3.1L248.9,204.8z"/>
				<path id="Path_299" class="st8" d="M245.5,192.7l3.4,12.1l-15.3-7.9l4.6-8L245.5,192.7z"/>
				<path id="Path_300" class="st12" d="M238.2,188.9l7.3,3.8l30.3-15.6l-7.3-3.8L238.2,188.9z"/>
				<path id="Path_301" class="st13" d="M245.5,192.7l3.4,12.1l30.3-15.6l-3.4-12.1L245.5,192.7z"/>
				<path id="Path_302" class="st8" d="M245.5,178.2v14.5l-7.3-3.8v-14.5L245.5,178.2z"/>
				<path id="Path_303" class="st10" d="M238.2,174.4l7.3,3.8l30.3-15.6l-7.3-3.8L238.2,174.4z"/>
				<path id="Path_304" class="st14" d="M245.5,178.2v14.5l30.3-15.6v-14.5L245.5,178.2z"/>
				<path id="Path_305" class="st8" d="M215.6,222.1v3.1l-15.3-7.9v-3.2L215.6,222.1z"/>
				<path id="Path_306" class="st11" d="M200.3,214.2l15.3,7.9l30.3-15.6l-15.3-7.9L200.3,214.2z"/>
				<path id="Path_307" class="st1" d="M215.6,222.1v3.1l30.3-15.6v-3.1L215.6,222.1z"/>
				<path id="Path_308" class="st8" d="M212.2,209.9l3.4,12.1l-15.3-7.9l4.6-8L212.2,209.9z"/>
				<path id="Path_309" class="st12" d="M204.9,206.1l7.3,3.8l30.3-15.6l-7.3-3.8L204.9,206.1z"/>
				<path id="Path_310" class="st13" d="M212.2,209.9l3.4,12.1l30.3-15.6l-3.4-12.1L212.2,209.9z"/>
				<path id="Path_311" class="st8" d="M212.2,195.5V210l-7.3-3.8v-14.5L212.2,195.5z"/>
				<path id="Path_312" class="st10" d="M204.9,191.7l7.3,3.8l30.3-15.6l-7.3-3.8L204.9,191.7z"/>
				<path id="Path_313" class="st14" d="M212.2,195.5V210l30.3-15.7v-14.5L212.2,195.5z"/>
				<path id="Path_314" class="st8" d="M182.3,239.3v3.1l-15.3-7.9v-3.2L182.3,239.3z"/>
				<path id="Path_315" class="st11" d="M167,231.4l15.3,7.9l30.3-15.6l-15.3-7.9L167,231.4z"/>
				<path id="Path_316" class="st1" d="M182.3,239.3v3.1l30.3-15.6v-3.1L182.3,239.3z"/>
				<path id="Path_317" class="st8" d="M178.9,227.2l3.4,12.1l-15.3-7.9l4.6-8L178.9,227.2z"/>
				<path id="Path_318" class="st12" d="M171.6,223.4l7.3,3.8l30.3-15.6l-7.3-3.8L171.6,223.4z"/>
				<path id="Path_319" class="st13" d="M178.9,227.2l3.4,12.1l30.3-15.6l-3.4-12.1L178.9,227.2z"/>
				<path id="Path_320" class="st8" d="M178.9,212.7v14.5l-7.3-3.8v-14.5L178.9,212.7z"/>
				<path id="Path_321" class="st10" d="M171.6,208.9l7.3,3.8l30.3-15.6l-7.3-3.8L171.6,208.9z"/>
				<path id="Path_322" class="st14" d="M178.9,212.7v14.5l30.3-15.6v-14.5L178.9,212.7z"/>
				<path id="Path_323" class="st8" d="M149,256.5v3.1l-15.3-7.9v-3.2L149,256.5z"/>
				<path id="Path_324" class="st11" d="M133.7,248.6l15.3,7.9l30.3-15.6L164,233L133.7,248.6z"/>
				<path id="Path_325" class="st1" d="M149,256.5v3.1l30.3-15.6v-3.1L149,256.5z"/>
				<path id="Path_326" class="st8" d="M145.6,244.4l3.4,12.1l-15.3-7.9l4.6-8L145.6,244.4z"/>
				<path id="Path_327" class="st12" d="M138.3,240.6l7.3,3.8l30.3-15.6l-7.3-3.8L138.3,240.6z"/>
				<path id="Path_328" class="st13" d="M145.6,244.4l3.4,12.1l30.3-15.6l-3.4-12.1L145.6,244.4z"/>
				<path id="Path_329" class="st8" d="M145.6,229.9v14.5l-7.3-3.8v-14.5L145.6,229.9z"/>
				<path id="Path_330" class="st10" d="M138.3,226.1l7.3,3.8l30.3-15.6l-7.3-3.8L138.3,226.1z"/>
				<path id="Path_331" class="st14" d="M145.6,229.9v14.5l30.3-15.6v-14.5L145.6,229.9z"/>
				<path id="Path_332" class="st8" d="M115.7,273.8v3.1l-15.3-7.9v-3.2L115.7,273.8z"/>
				<path id="Path_333" class="st11" d="M100.4,265.9l15.3,7.9l30.3-15.6l-15.3-7.9L100.4,265.9z"/>
				<path id="Path_334" class="st1" d="M115.7,273.8v3.1l30.3-15.6v-3.1L115.7,273.8z"/>
				<path id="Path_335" class="st8" d="M112.3,261.6l3.4,12.1l-15.3-7.9l4.6-8L112.3,261.6z"/>
				<path id="Path_336" class="st12" d="M105,257.8l7.3,3.8l30.3-15.6l-7.3-3.8L105,257.8z"/>
				<path id="Path_337" class="st13" d="M112.3,261.6l3.4,12.1l30.3-15.6l-3.4-12.1L112.3,261.6z"/>
				<path id="Path_338" class="st8" d="M112.3,247.2v14.5l-7.3-3.8v-14.5L112.3,247.2z"/>
				<path id="Path_339" class="st10" d="M105,243.4l7.3,3.8l30.3-15.6l-7.3-3.8L105,243.4z"/>
				<path id="Path_340" class="st14" d="M112.3,247.2v14.5l30.3-15.6v-14.5L112.3,247.2z"/>
				<path id="Path_341" class="st8" d="M82.4,291v3.1l-15.3-7.9V283L82.4,291z"/>
				<path id="Path_342" class="st11" d="M67.1,283.1l15.3,7.9l30.3-15.6l-15.3-7.9L67.1,283.1z"/>
				<path id="Path_343" class="st1" d="M82.4,291v3.1l30.3-15.6v-3.1L82.4,291z"/>
				<path id="Path_344" class="st8" d="M79,278.9l3.4,12.1l-15.3-7.9l4.6-8L79,278.9z"/>
				<path id="Path_345" class="st12" d="M71.7,275.1l7.3,3.8l30.3-15.6l-7.3-3.8L71.7,275.1z"/>
				<path id="Path_346" class="st13" d="M79,278.9l3.4,12.1l30.3-15.6l-3.4-12.1L79,278.9z"/>
				<path id="Path_347" class="st8" d="M79,264.4v14.5l-7.3-3.8v-14.5L79,264.4z"/>
				<path id="Path_348" class="st10" d="M71.7,260.6l7.3,3.8l30.3-15.6L102,245L71.7,260.6z"/>
				<path id="Path_349" class="st14" d="M79,264.4v14.5l30.3-15.6v-14.5L79,264.4z"/>
				<path id="Path_350" class="st8" d="M49.1,308.2v3.1l-15.3-7.9v-3.1L49.1,308.2z"/>
				<path id="Path_351" class="st11" d="M33.8,300.3l15.3,7.9l30.3-15.6l-15.3-7.9L33.8,300.3z"/>
				<path id="Path_352" class="st1" d="M49.1,308.2v3.1l30.3-15.6v-3.1L49.1,308.2z"/>
				<path id="Path_353" class="st8" d="M45.7,296.1l3.4,12.1l-15.3-7.9l4.6-8L45.7,296.1z"/>
				<path id="Path_354" class="st12" d="M38.4,292.3l7.3,3.8L76,280.5l-7.3-3.8L38.4,292.3z"/>
				<path id="Path_355" class="st13" d="M45.7,296.1l3.4,12.1l30.3-15.6L76,280.5L45.7,296.1z"/>
				<path id="Path_356" class="st8" d="M45.7,281.6v14.5l-7.3-3.8v-14.5L45.7,281.6z"/>
				<path id="Path_357" class="st10" d="M38.4,277.8l7.3,3.8L76,266l-7.3-3.8L38.4,277.8z"/>
				<path id="Path_358" class="st14" d="M45.7,281.6v14.5L76,280.5V266L45.7,281.6z"/>
				<path id="Path_359" class="st8" d="M15.8,325.5v3.1l-15.3-7.9v-3.2L15.8,325.5z"/>
				<path id="Path_360" class="st11" d="M0.5,317.6l15.3,7.9l30.3-15.6L30.8,302L0.5,317.6z"/>
				<path id="Path_361" class="st5" d="M15.8,325.5v3.1L46.1,313v-3.1L15.8,325.5z"/>
				<path id="Path_362" class="st8" d="M12.4,313.3l3.4,12.1l-15.3-7.8l4.6-8L12.4,313.3z"/>
				<path id="Path_363" class="st12" d="M5.1,309.5l7.3,3.8l30.3-15.6l-7.3-3.8L5.1,309.5z"/>
				<path id="Path_364" class="st13" d="M12.4,313.3l3.4,12.1l30.3-15.6l-3.4-12.1L12.4,313.3z"/>
				<path id="Path_365" class="st8" d="M12.4,298.9v14.4l-7.3-3.8V295L12.4,298.9z"/>
				<path id="Path_366" class="st10" d="M5.1,295.1l7.3,3.8l30.3-15.6l-7.3-3.8L5.1,295.1z"/>
				<path id="Path_367" class="st14" d="M12.4,298.9v14.4l30.3-15.6v-14.5L12.4,298.9z"/>
				<path id="Path_368" class="st5" d="M320.8,180.2l-3.8-10.7l0,0l-301.2,156l12.8,6.6L320.8,180.2z"/>
				<path id="Path_369" class="st15" d="M659,170c0,0-8.8,0.2-8.9,0s-2.3-8.9-2.3-8.9l14.7-0.4L659,170z"/>
				<path id="Path_370" class="st15" d="M576.3,214.9l-10.2-0.3c0,0,2.9-10.9,3.1-10.9s4.8,0.2,4.8,0.2l4.7,6L576.3,214.9z"/>
				<path id="Path_371" class="st16" d="M557.4,230.4L557.4,230.4c-0.2-0.1-0.2-0.2-0.3-0.2l0,0c-0.1-0.1-0.2-0.2-0.2-0.2l-0.1-0.1
					c-0.1-0.1-0.1-0.1-0.2-0.2c0,0,0-0.1-0.1-0.1c-0.1-0.1-0.1-0.1-0.2-0.2v-0.1c-0.1-0.1-0.1-0.2-0.2-0.3c-0.1-0.1-0.1-0.2-0.2-0.3
					v-0.1c0-0.1-0.1-0.2-0.1-0.3v-0.1c0-0.1,0-0.1-0.1-0.2c0-0.1-0.1-0.2-0.1-0.3c0-0.1,0-0.1-0.1-0.2c0-0.1,0-0.2-0.1-0.2
					s0-0.1-0.1-0.2s0-0.1,0-0.2s0-0.2,0-0.2c0-0.1,0-0.1,0-0.2s0-0.2,0-0.3c0-0.1,0-0.1,0-0.2s0-0.2,0-0.3v-0.1c0-0.2,0-0.3,0-0.5
					s0-0.3,0-0.5c0-0.1,0-0.1,0-0.2s0-0.2,0-0.3c0-0.1,0-0.1,0-0.2s0-0.2,0-0.4v-0.1c0-0.2,0.1-0.3,0.1-0.5v-0.1
					c0-0.1,0.1-0.3,0.1-0.4s0-0.1,0-0.2s0.1-0.2,0.1-0.3c0-0.1,0-0.1,0.1-0.2c0-0.1,0.1-0.2,0.1-0.3c0-0.1,0-0.1,0.1-0.2
					c0-0.1,0.1-0.2,0.1-0.4c0-0.1,0-0.1,0.1-0.2c0.1-0.2,0.1-0.3,0.2-0.5l0,0c0.1-0.2,0.1-0.3,0.2-0.5c0-0.1,0-0.1,0.1-0.2
					c0.1-0.1,0.1-0.2,0.2-0.4c0-0.1,0.1-0.1,0.1-0.2c0.1-0.1,0.1-0.2,0.2-0.4c0,0,0-0.1,0.1-0.1c0.1-0.2,0.2-0.3,0.3-0.5
					c0,0,0-0.1,0.1-0.1c0.1-0.1,0.1-0.3,0.2-0.4c0.1-0.1,0.1-0.2,0.2-0.3s0.1-0.2,0.2-0.3c0.1-0.2,0.3-0.5,0.4-0.7
					c0.1-0.1,0.1-0.2,0.2-0.2c0.1-0.1,0.1-0.2,0.2-0.3s0.1-0.2,0.2-0.2s0.1-0.2,0.2-0.3l0.1-0.2c0.2-0.2,0.4-0.5,0.6-0.7l0,0
					c0.1-0.2,0.3-0.3,0.4-0.5c0.1-0.1,0.2-0.3,0.3-0.4l0.1-0.1c0.1-0.1,0.3-0.3,0.4-0.4l0.1-0.1c0.1-0.1,0.2-0.2,0.3-0.3
					s0.1-0.1,0.2-0.2c0.1-0.1,0.2-0.2,0.3-0.2l0.2-0.2c0.1-0.1,0.2-0.1,0.3-0.2l0.2-0.2c0.1-0.1,0.2-0.1,0.3-0.2l0.2-0.2
					c0.1-0.1,0.2-0.1,0.3-0.2l0.2-0.1c0.1-0.1,0.2-0.1,0.3-0.2l0.2-0.1c0.1-0.1,0.2-0.1,0.3-0.2l0.2-0.1c0.2-0.1,0.3-0.2,0.5-0.3
					l0,0c0.2-0.1,0.3-0.2,0.5-0.3c0.1-0.1,0.3-0.1,0.4-0.2l0.2-0.1c0.1-0.1,0.2-0.1,0.3-0.1l0.1-0.1c0.2-0.1,0.3-0.1,0.5-0.2
					s0.3-0.1,0.5-0.2h0.1c0.1,0,0.2-0.1,0.3-0.1s0.1,0,0.2,0c0.1,0,0.2,0,0.3-0.1h0.2c0.1,0,0.2,0,0.3,0s0.1,0,0.2,0s0.2,0,0.2,0
					s0.1,0,0.2,0s0.1,0,0.2,0c0.1,0,0.2,0,0.3,0s0.2,0,0.3,0l0,0c0.1,0,0.2,0,0.3,0h0.1c0.1,0,0.2,0,0.4,0.1h0.1
					c0.1,0,0.2,0,0.3,0.1h0.1c0.1,0,0.1,0,0.2,0.1c0.1,0,0.2,0.1,0.3,0.1h0.1c0.1,0.1,0.3,0.1,0.4,0.2l-6.9-3.6
					c-0.1-0.1-0.2-0.1-0.4-0.2h-0.1c-1.5-0.5-3-0.5-4.5,0c-1.4,0.4-2.8,1.1-4,2l-0.1,0.1l-0.2,0.1c-4.3,3.2-7.4,8.2-7.8,13.2
					c-0.2,1.8,0.2,3.6,1.1,5.2l0,0v0.1c0.1,0.1,0.1,0.1,0.2,0.2l0.1,0.1c0.1,0.1,0.1,0.1,0.2,0.2c0,0,0,0,0.1,0.1s0.2,0.2,0.2,0.2
					l0,0c0.1,0.1,0.2,0.1,0.2,0.2l0.1,0.1c0.1,0,0.1,0.1,0.2,0.1l0.1,0.1c0.1,0.1,0.2,0.1,0.3,0.2l6.9,3.6c-0.1-0.1-0.2-0.1-0.3-0.2
					c0,0-0.1,0-0.1-0.1C557.5,230.5,557.5,230.5,557.4,230.4"/>
				<path id="Path_372" class="st17" d="M565.1,209.5c-5.6,2.9-10,9.8-10,15.5s4.5,8,10.1,5.1s10-9.8,10-15.5
					S570.6,206.6,565.1,209.5"/>
				<path id="Path_373" class="st18" d="M565.1,212.5c-3.9,2-7.1,7-7.1,11c0,4,3.2,5.7,7.1,3.6s7.1-7,7.1-11S569,210.5,565.1,212.5"
					/>
				<path id="Path_374" class="st16" d="M565.1,214.9c-2.7,1.5-4.5,4.3-4.8,7.4c0,2.7,2.2,3.8,4.8,2.4c2.7-1.5,4.5-4.3,4.8-7.4
					C569.9,214.6,567.7,213.5,565.1,214.9"/>
				<path id="Path_375" class="st18" d="M565.1,216c-2.1,1.2-3.5,3.3-3.7,5.7c0,2.1,1.7,2.9,3.7,1.9c2.1-1.2,3.5-3.3,3.7-5.7
					C568.8,215.8,567.1,215,565.1,216"/>
				<path id="Path_376" class="st18" d="M570.1,217.6v-0.7L566,219l2.9-4.5l-0.5-0.3l-2.9,4.5v-4.3l-0.7,0.4v4.3l-2.9-1.5l-0.5,0.8
					l2.9,1.5l-4.1,2.1v0.7l4.1-2.1l-2.9,4.5l0.5,0.3l2.9-4.5v4.3l0.7-0.4v-4.3l2.9,1.5l0.5-0.8l-2.9-1.5L570.1,217.6z"/>
				<path id="Path_377" class="st16" d="M565.1,218.4c-0.8,0.4-1.3,1.2-1.4,2.1c0,0.8,0.6,1.1,1.4,0.7c0.8-0.4,1.3-1.2,1.4-2.1
					C566.5,218.3,565.9,218,565.1,218.4"/>
				<path id="Path_378" class="st19" d="M633.4,130.2c-1.2-0.1-2.4,0-3.6,0.2l-10.1,2.7c-20.8,1.1-39.3,9.9-39.3,9.9
					c-18.5,8.8-24.8,13.7-24.8,13.7l-12.8,12.6l-4.3,4.3l1.3,10.6l29.7,11.4l10.9-3.2l76.9-40.8l5.8-5.2
					C656.5,134.6,637.4,130.9,633.4,130.2"/>
				<path id="Path_379" class="st19" d="M580.4,192.6c0,0-10.1,3.3-28.2-5.8c0,0-16.8-9.6-9.4-17.3c0,0-24.8,13.7-33,23.1l1.9,9.3
					l10,8.1l11.9,4.9l16.4-1.1L580.4,192.6z"/>
				<path id="Path_380" class="st16" d="M641,188.3L641,188.3c-0.2-0.1-0.2-0.2-0.3-0.2l0,0c-0.1-0.1-0.2-0.2-0.3-0.2l-0.1-0.1
					c-0.1-0.1-0.1-0.1-0.2-0.2c0,0,0-0.1-0.1-0.1c-0.1-0.1-0.1-0.1-0.2-0.2v-0.1c-0.1-0.1-0.1-0.2-0.2-0.3s-0.1-0.2-0.2-0.3v-0.1
					c0-0.1-0.1-0.2-0.1-0.3v-0.1c0-0.1,0-0.1-0.1-0.2c0-0.1-0.1-0.2-0.1-0.3s0-0.1-0.1-0.2c0-0.1,0-0.2-0.1-0.2s0-0.1-0.1-0.2
					s0-0.1,0-0.2s0-0.2,0-0.2c0-0.1,0-0.1,0-0.2c0-0.1,0-0.2,0-0.3s0-0.1,0-0.2c0-0.1,0-0.2,0-0.3v-0.1c0-0.2,0-0.3,0-0.5
					s0-0.3,0-0.5c0-0.1,0-0.1,0-0.2c0-0.1,0-0.2,0-0.3s0-0.1,0-0.2c0-0.1,0-0.2,0-0.4v-0.1c0-0.2,0-0.3,0.1-0.5v-0.1
					c0-0.1,0.1-0.3,0.1-0.4c0-0.1,0-0.1,0-0.2c0-0.1,0.1-0.2,0.1-0.3s0-0.1,0.1-0.2c0-0.1,0.1-0.2,0.1-0.3s0-0.1,0.1-0.2
					c0-0.1,0.1-0.2,0.1-0.4c0-0.1,0-0.1,0.1-0.2c0.1-0.2,0.1-0.3,0.2-0.5l0,0c0.1-0.2,0.1-0.3,0.2-0.5c0-0.1,0-0.1,0.1-0.2
					c0.1-0.1,0.1-0.2,0.2-0.4c0-0.1,0.1-0.1,0.1-0.2c0.1-0.1,0.1-0.2,0.2-0.4c0,0,0-0.1,0.1-0.1c0.1-0.2,0.2-0.3,0.3-0.5l0.1-0.1
					c0.1-0.1,0.1-0.3,0.2-0.4c0.1-0.1,0.1-0.2,0.2-0.3s0.1-0.2,0.2-0.3c0.1-0.2,0.3-0.5,0.4-0.7c0.1-0.1,0.1-0.2,0.2-0.2
					c0.1-0.1,0.1-0.2,0.2-0.3c0.1-0.1,0.1-0.2,0.2-0.2s0.1-0.2,0.2-0.3l0.1-0.2c0.2-0.2,0.4-0.5,0.6-0.7l0,0
					c0.1-0.2,0.3-0.3,0.4-0.5c0.1-0.1,0.2-0.3,0.3-0.4l0.1-0.1c0.1-0.1,0.3-0.3,0.4-0.4l0.1-0.1c0.1-0.1,0.2-0.2,0.3-0.3l0.2-0.2
					c0.1-0.1,0.2-0.2,0.3-0.2l0.2-0.2c0.1-0.1,0.2-0.1,0.3-0.2l0.2-0.2c0.1-0.1,0.2-0.1,0.3-0.2c0.1-0.1,0.1-0.1,0.2-0.2
					c0.1-0.1,0.2-0.1,0.3-0.2c0.1-0.1,0.1-0.1,0.2-0.1c0.1-0.1,0.2-0.1,0.3-0.2l0.2-0.1c0.1-0.1,0.2-0.1,0.3-0.2l0.2-0.1
					c0.2-0.1,0.3-0.2,0.5-0.3l0,0c0.2-0.1,0.3-0.2,0.5-0.3c0.1-0.1,0.3-0.1,0.4-0.2l0.2-0.1c0.1,0,0.2-0.1,0.3-0.1
					c0,0,0.1,0,0.1-0.1c0.2-0.1,0.3-0.1,0.5-0.2s0.3-0.1,0.5-0.2h0.1c0.1,0,0.2-0.1,0.3-0.1s0.1,0,0.2,0c0.1,0,0.2,0,0.3-0.1h0.2
					c0.1,0,0.2,0,0.3,0s0.1,0,0.2,0s0.2,0,0.2,0s0.1,0,0.2,0s0.1,0,0.2,0c0.1,0,0.2,0,0.3,0s0.2,0,0.3,0l0,0c0.1,0,0.2,0,0.3,0h0.1
					c0.1,0,0.2,0,0.4,0.1h0.1c0.1,0,0.2,0,0.3,0.1h0.1c0.1,0,0.1,0,0.2,0.1c0.1,0,0.2,0.1,0.3,0.1h0.1c0.1,0.1,0.3,0.1,0.4,0.2
					l-6.9-3.6c-0.1-0.1-0.2-0.1-0.4-0.2h-0.1c-1.5-0.5-3-0.5-4.5,0c-1.4,0.4-2.8,1.1-4,2l-0.1,0.1l-0.2,0.1
					c-4.3,3.2-7.4,8.2-7.8,13.2c-0.2,1.8,0.2,3.6,1.1,5.2l0,0v0.1c0.1,0.1,0.1,0.1,0.2,0.2c0,0,0,0.1,0.1,0.1
					c0.1,0.1,0.1,0.1,0.2,0.2c0,0,0,0,0.1,0.1s0.2,0.2,0.3,0.2l0,0c0.1,0.1,0.2,0.1,0.2,0.2c0,0,0.1,0,0.1,0.1
					c0.1,0,0.1,0.1,0.2,0.1c0,0,0.1,0,0.1,0.1c0.1,0.1,0.2,0.1,0.3,0.2l6.9,3.6c-0.1-0.1-0.2-0.1-0.3-0.2l-0.1-0.1
					C641.2,188.4,641.1,188.3,641,188.3"/>
				<path id="Path_381" class="st17" d="M648.7,167.3c-5.6,2.9-10,9.8-10,15.5s4.5,8,10.1,5.1s10-9.8,10-15.5
					S654.3,164.5,648.7,167.3"/>
				<path id="Path_382" class="st18" d="M648.7,170.4c-3.9,2-7.1,7-7.1,11s3.2,5.7,7.1,3.6s7.1-7,7.1-11S652.7,168.3,648.7,170.4"/>
				<path id="Path_383" class="st16" d="M648.7,172.8c-2.7,1.5-4.5,4.3-4.8,7.4c0,2.7,2.2,3.8,4.8,2.4c2.7-1.5,4.5-4.3,4.8-7.4
					C653.5,172.5,651.4,171.4,648.7,172.8"/>
				<path id="Path_384" class="st18" d="M648.7,173.9c-2.1,1.2-3.5,3.3-3.7,5.7c0,2.1,1.7,2.9,3.7,1.9c2.1-1.2,3.5-3.3,3.7-5.7
					C652.4,173.7,650.8,172.9,648.7,173.9"/>
				<path id="Path_385" class="st18" d="M653.8,175.5v-0.7l-4.1,2.1l2.9-4.5l-0.5-0.3l-2.9,4.5v-4.3l-0.7,0.4v4.3l-2.9-1.5l-0.5,0.8
					l2.9,1.5l-4.1,2.1v0.7l4.1-2.1l-2.9,4.5l0.5,0.3l2.9-4.5v4.3l0.7-0.4v-4.3l2.9,1.5l0.5-0.8l-2.9-1.5L653.8,175.5z"/>
				<path id="Path_386" class="st16" d="M648.8,176.3c-0.8,0.4-1.3,1.2-1.4,2.1c0,0.8,0.6,1.1,1.4,0.7c0.8-0.4,1.3-1.2,1.4-2.1
					C650.1,176.2,649.5,175.9,648.8,176.3"/>
				<path id="Path_387" class="st20" d="M667.3,154.9c-0.1-0.5-0.5-0.9-1-1l-0.6-0.1c-0.6-2.5-1.5-4.9-2.6-7.3l-9.8,4.4
					c-20.9,0.2-46.9,14.3-46.9,14.3c-4.4,2.3-9.8,5.2-13.3,7.1c-2.3,1.2-4.2,3.1-5.3,5.4l-7.4,14.8c-10.6,6.3-20.7,13.4-30.4,21
					c-6.9-1.5-15.5,0.2-15.5,0.2c-18.1-7.1-21.9-13.1-21.9-13.1c-0.7-2.8-1.7-5.6-2.9-8.3l-0.7,4.9c-1.7,1.5-1.2,5.5-1.2,5.5
					c0.3,2.2,1,4.4,2,6.3c0.9,1.7,2.1,3.3,3.6,4.6l2.3,2.1c1.9,1.8,4.1,3.2,6.4,4.3l11,4.5c13.9,4.6,18.2,2.1,18.2,2.1
					c0.8-0.4,1.5-1.1,1.8-2c1.9-12.5,11.4-16.7,11.4-16.7c11.7-4.5,11.8,6.6,11.8,6.6l2.4-1.6l52.8-27.2c1.8-0.6,3.5-1.2,5.2-2
					c2.5-15.8,14.6-19.4,14.6-19.4c7.1-0.9,7.8,5.3,7.8,5.3l8.3-8.6C667.6,159.3,667.6,157.1,667.3,154.9"/>
				<path id="Path_388" class="st21" d="M555.5,156.8c0,0,8.3,11.2,31.6,18.1l-9.2,16.6c0,0-14.2,0.2-26.4-7.4
					c0,0-14.1-8.2-8.8-14.6L555.5,156.8z"/>
				<path id="Path_389" class="st22" d="M548.2,218.8l1.7-5.2c-6.9-1.5-15.5,0.2-15.5,0.2l1.2,3.1L548.2,218.8z"/>
				<path id="Path_390" class="st22" d="M509.1,196.5l2.1,5.7l1.4-1.5c-0.7-2.8-1.7-5.6-2.9-8.3L509.1,196.5z"/>
				<path id="Path_391" class="st23" d="M546.3,217.1l-11-1.1l0.4,0.9l12.6,1.8l1.7-5.2c-0.5-0.1-1.1-0.2-1.7-0.3L546.3,217.1z"/>
				<path id="Path_392" class="st23" d="M509.7,196.6l0.6-2.6c-0.4-0.9-0.6-1.5-0.6-1.5l-0.6,4l2.1,5.7l0.3-0.4L509.7,196.6z"/>
				<path id="Path_393" class="st20" d="M552.1,186.6c0,0-9.3-4.9-11.6-10.6l-24.7,19.9c0.5,1.9,2.4,5.6,9.2,10.1
					c4.2,2.2,8.6,4,13.1,5.5l29.5-18.9C562.2,191.1,557,189.1,552.1,186.6"/>
				<path id="Path_394" class="st21" d="M632.4,152.2c0,0,10.5-3.1,19.1-2.5c0,0-12.3-15.4-31.9-16.5c-5.2,0.3-10.3,1-15.4,2.1
					C604.4,135.3,621.8,138.5,632.4,152.2"/>
				<path id="Path_395" class="st24" d="M548.2,218.8l-3.2,8.7c4.5,0.4,6.2-0.6,6.2-0.6c0.8-0.4,1.5-1.1,1.8-2
					c0.6-4.1,2.2-7.9,4.8-11.1L548.2,218.8z"/>
				<path id="Path_396" class="st24" d="M610.5,177.1v16.2L584,207v-16.3l-1,0.9v17l28.4-14.7v-16.8L610.5,177.1z"/>
				<path id="Path_397" class="st21" d="M635,157.4l-0.2-0.7c-13,1.4-29.7,11.1-29.7,11.1c-4.2,2.2-2.9,1.4-11.9,6.4
					c-1.4,0.8-2.5,2-3.2,3.4l-7,13.9c21.8-10.7,48.3-25.1,48.3-25.1l2.4-2.9C635.1,161.7,635.6,159.5,635,157.4"/>
				<path id="Path_398" class="st15" d="M586.4,189.8v-4.9l-3.3,6.5C584.1,190.9,585.3,190.4,586.4,189.8"/>
				<path id="Path_399" class="st15" d="M635,157.4l-0.2-0.7c-1.8,0.2-3.6,0.5-5.4,1c0.6,1.4,1.2,4.3,0,9.7c1.2-0.7,1.9-1,1.9-1
					l2.4-2.9C635.1,161.7,635.6,159.5,635,157.4"/>
				<path id="Path_400" class="st15" d="M609,178.2c0.8-0.4,1.7-0.9,2.5-1.3l-0.2-12.4c-0.9,0.5-1.8,0.9-2.6,1.3L609,178.2z"/>
				<path id="Path_401" class="st24" d="M631.5,186.1c1.8-0.6,3.5-1.2,5.2-2c0.4-2.4,1-4.7,1.9-7l-63.7,33c0.9,1.5,1.3,3.1,1.4,4.8
					l2.4-1.6L631.5,186.1z"/>
				<path id="Path_402" class="st24" d="M657.8,167.1c0.6,0.9,1,1.8,1.1,2.9l6.7-6.9L657.8,167.1z"/>
				<path id="Path_403" class="st15" d="M555.5,156.8l-12.8,12.6c-5.3,6.4,8.8,14.6,8.8,14.6c11.5,7.2,24.8,7.4,26.3,7.4h0.1
					l9.2-16.6C563.8,168,555.5,156.8,555.5,156.8 M577.2,190.4c-3-0.1-14.8-0.8-25.1-7.2l0,0l0,0c-0.1,0-8.4-4.9-9.4-9.7
					c-0.3-1.2,0.1-2.4,0.9-3.4l11.8-11.7c1.9,2.1,4.1,4,6.4,5.7c7.2,5.1,15.2,9,23.7,11.4L577.2,190.4z"/>
				<path id="Path_404" class="st15" d="M619.7,133.1c-5.2,0.3-10.3,1-15.4,2.1c0,0,17.4,3.2,28.1,16.9c5.5-1.5,11.2-2.4,17-2.6
					c0.7,0,1.4,0,2.1,0.1C651.6,149.7,639.3,134.3,619.7,133.1 M632.8,151.2c-7.8-9.7-18.8-14.1-24.6-15.8c3.8-0.7,7.6-1.1,11.4-1.3
					c4.4,0.3,8.7,1.3,12.8,3c3.5,1.4,6.8,3.3,9.8,5.5c2.6,1.9,5,4,7.2,6.3h-0.1C643.8,148.9,638.2,149.7,632.8,151.2"/>
				<path id="Path_405" class="st15" d="M635,157.4l-0.2-0.7c-13,1.4-29.7,11.1-29.7,11.1c-4.2,2.2-2.9,1.4-11.9,6.4
					c-1.4,0.8-2.5,2-3.2,3.4l-7,13.9c21.8-10.7,48.3-25.1,48.3-25.1l2.4-2.9C635.1,161.7,635.6,159.5,635,157.4 M632.9,162.9
					l-2.3,2.8c-2.2,1.2-25.5,13.8-45.6,23.8l5.8-11.5c0.7-1.3,1.6-2.3,2.9-3c7.1-4,7.7-4.3,9.8-5.4c0.5-0.3,1.2-0.6,2.1-1.1l0,0l0,0
					c0.2-0.1,15.9-9.2,28.4-10.8C634.6,159.5,634.2,161.4,632.9,162.9"/>
				<path id="Path_406" class="st19" d="M549.7,221.1l-15.9-1.5l-10.8-4.7c-1.9-0.8-3.6-1.9-5.1-3.3l-7.1-6.5
					c-1.8-2.3-1.8-7.6-1.8-7.6c-1.2,3.8,0.7,8.4,0.7,8.4l7,7.1c1.6,1.6,3.4,2.8,5.4,3.7l10.6,4.8l17,2c3.3-0.8,4.8-4.1,4.8-4.1
					L549.7,221.1z"/>
				<path id="Path_407" class="st21" d="M511.3,204.5l7.1,6.5c1.5,1.4,3.2,2.5,5.1,3.3l10.8,4.7l2.3,0.2l-2-5.4
					c-18.1-7.1-21.9-13.1-21.9-13.1l-2.1,2.2C510.6,203.5,510.9,204,511.3,204.5"/>
				<path id="Path_408" class="st25" d="M663.5,147.5l-0.6,0.3c-0.3,0.1-0.4,0.4-0.4,0.7v6.5c0,0.3,0.3,0.4,0.5,0.4
					c0.1,0,0.2,0,0.2-0.1l2.4-1.6C665.2,151.7,664.5,149.5,663.5,147.5"/>
				<path id="Path_409" class="st15" d="M386.2,311.8c0,0-8.8,0.2-8.9,0s-2.3-8.9-2.3-8.9l14.7-0.4L386.2,311.8z"/>
				<path id="Path_410" class="st15" d="M303.5,356.7l-10.2-0.3c0,0,2.9-10.9,3.1-10.9s4.8,0.2,4.8,0.2l4.7,6L303.5,356.7z"/>
				<path id="Path_411" class="st16" d="M284.6,372.3L284.6,372.3c-0.2-0.1-0.2-0.2-0.3-0.2l0,0c-0.1-0.1-0.2-0.2-0.2-0.2l-0.1-0.1
					c-0.1-0.1-0.1-0.1-0.2-0.2c0,0,0-0.1-0.1-0.1c-0.1-0.1-0.1-0.1-0.2-0.2c0,0,0,0,0-0.1c-0.1-0.1-0.1-0.2-0.2-0.3
					s-0.1-0.2-0.2-0.3c0,0,0,0,0-0.1s-0.1-0.2-0.1-0.3v-0.1c0-0.1,0-0.1-0.1-0.2c0-0.1-0.1-0.2-0.1-0.3c0-0.1,0-0.1-0.1-0.2
					c0-0.1,0-0.2-0.1-0.2s0-0.1-0.1-0.2s0-0.1,0-0.2s0-0.2,0-0.2c0-0.1,0-0.1,0-0.2s0-0.2,0-0.3c0-0.1,0-0.1,0-0.2s0-0.2,0-0.3v-0.1
					c0-0.2,0-0.3,0-0.5s0-0.3,0-0.5c0-0.1,0-0.1,0-0.2s0-0.2,0-0.3c0-0.1,0-0.1,0-0.2s0-0.2,0-0.4v-0.1c0-0.2,0-0.3,0.1-0.5v-0.1
					c0-0.1,0.1-0.3,0.1-0.4s0-0.1,0-0.2s0.1-0.2,0.1-0.3c0-0.1,0-0.1,0.1-0.2c0-0.1,0.1-0.2,0.1-0.3c0-0.1,0-0.1,0.1-0.2
					c0-0.1,0.1-0.2,0.1-0.4c0-0.1,0-0.1,0.1-0.2c0.1-0.2,0.1-0.3,0.2-0.5l0,0c0.1-0.2,0.1-0.3,0.2-0.5c0-0.1,0-0.1,0.1-0.2
					s0.1-0.2,0.2-0.4c0-0.1,0.1-0.1,0.1-0.2c0.1-0.1,0.1-0.2,0.2-0.4c0,0,0-0.1,0.1-0.1c0.1-0.2,0.2-0.3,0.3-0.5c0,0,0-0.1,0.1-0.1
					c0.1-0.1,0.1-0.3,0.2-0.4s0.1-0.2,0.2-0.3s0.1-0.2,0.2-0.3c0.1-0.2,0.3-0.5,0.4-0.7c0.1-0.1,0.1-0.2,0.2-0.2
					c0.1-0.1,0.1-0.2,0.2-0.3s0.1-0.2,0.2-0.2s0.1-0.2,0.2-0.3c0-0.1,0.1-0.1,0.1-0.2c0.2-0.2,0.4-0.5,0.6-0.7l0,0
					c0.1-0.2,0.3-0.3,0.4-0.5c0.1-0.1,0.2-0.2,0.3-0.4l0.1-0.1c0.1-0.1,0.3-0.3,0.4-0.4l0.1-0.1c0.1-0.1,0.2-0.2,0.3-0.3
					c0.1-0.1,0.1-0.1,0.2-0.2s0.2-0.2,0.3-0.2l0.2-0.2c0.1-0.1,0.2-0.1,0.3-0.2c0.1-0.1,0.1-0.1,0.2-0.2s0.2-0.1,0.3-0.2
					c0.1-0.1,0.1-0.1,0.2-0.2s0.2-0.1,0.3-0.2l0.2-0.1c0.1-0.1,0.2-0.1,0.3-0.2c0.1,0,0.1-0.1,0.2-0.1c0.1-0.1,0.2-0.1,0.3-0.2
					c0.1,0,0.1-0.1,0.2-0.1c0.2-0.1,0.3-0.2,0.5-0.3l0,0c0.2-0.1,0.3-0.2,0.5-0.3c0.1-0.1,0.3-0.1,0.4-0.2c0.1,0,0.1-0.1,0.2-0.1
					c0.1-0.1,0.2-0.1,0.3-0.1l0.1-0.1c0.2-0.1,0.3-0.1,0.5-0.2s0.3-0.1,0.5-0.2h0.1c0.1,0,0.2-0.1,0.3-0.1c0.1,0,0.1,0,0.2,0
					s0.2,0,0.3-0.1h0.2c0.1,0,0.2,0,0.3,0c0.1,0,0.1,0,0.2,0s0.2,0,0.2,0s0.1,0,0.2,0s0.1,0,0.2,0s0.2,0,0.3,0c0.1,0,0.2,0,0.3,0
					l0,0c0.1,0,0.2,0,0.3,0h0.1c0.1,0,0.2,0,0.4,0.1h0.1c0.1,0,0.2,0,0.3,0.1h0.1c0.1,0,0.1,0,0.2,0.1c0.1,0,0.2,0.1,0.3,0.1h0.1
					c0.1,0.1,0.3,0.1,0.4,0.2l-6.9-3.6c-0.1-0.1-0.2-0.1-0.4-0.2h-0.1c-1.5-0.5-3-0.5-4.5,0c-1.4,0.4-2.8,1.1-4,2l-0.1,0.1l-0.2,0.1
					c-4.3,3.2-7.4,8.2-7.8,13.2c-0.2,1.8,0.2,3.6,1.1,5.2l0,0v0.1c0.1,0.1,0.1,0.1,0.2,0.2c0,0,0,0.1,0.1,0.1
					c0.1,0.1,0.1,0.1,0.2,0.2l0.1,0.1c0.1,0.1,0.2,0.2,0.3,0.2l0,0c0.1,0.1,0.2,0.1,0.2,0.2l0.1,0.1c0.1,0,0.1,0.1,0.2,0.1
					c0,0,0.1,0,0.1,0.1c0.1,0.1,0.2,0.1,0.3,0.2l6.9,3.6c-0.1-0.1-0.2-0.1-0.3-0.2c0,0-0.1,0-0.1-0.1
					C284.8,372.3,284.7,372.3,284.6,372.3"/>
				<path id="Path_412" class="st17" d="M292.3,351.3c-5.6,2.9-10,9.8-10,15.5s4.5,8,10.1,5.1s10-9.8,10-15.5
					S297.9,348.5,292.3,351.3"/>
				<path id="Path_413" class="st18" d="M292.3,354.3c-3.9,2-7.1,7-7.1,11s3.2,5.7,7.1,3.6s7.1-7,7.1-11S296.3,352.3,292.3,354.3"/>
				<path id="Path_414" class="st16" d="M292.3,356.7c-2.7,1.5-4.5,4.3-4.8,7.4c0,2.7,2.2,3.8,4.8,2.4c2.7-1.5,4.5-4.3,4.8-7.4
					C297.1,356.5,295,355.4,292.3,356.7"/>
				<path id="Path_415" class="st18" d="M292.3,357.9c-2.1,1.2-3.5,3.3-3.7,5.7c0,2.1,1.7,2.9,3.7,1.9c2.1-1.2,3.5-3.3,3.7-5.7
					C296,357.7,294.4,356.8,292.3,357.9"/>
				<path id="Path_416" class="st18" d="M297.4,359.4v-0.7l-4.1,2.1l2.9-4.5l-0.5-0.3l-2.9,4.5v-4.3l-0.7,0.4v4.3l-2.9-1.5l-0.5,0.8
					l2.9,1.5l-4.1,2.1v0.7l4.1-2.1l-2.9,4.5l0.5,0.3l2.9-4.5v4.3l0.7-0.4v-4.3l2.9,1.5l0.5-0.8l-2.9-1.5L297.4,359.4z"/>
				<path id="Path_417" class="st16" d="M292.4,360.3c-0.8,0.4-1.3,1.2-1.4,2.1c0,0.8,0.6,1.1,1.4,0.7s1.3-1.2,1.4-2.1
					C293.7,360.2,293.1,359.9,292.4,360.3"/>
				<path id="Path_418" class="st26" d="M360.6,272c-1.2-0.1-2.4,0-3.6,0.2l-10.1,2.7c-20.8,1.1-39.3,9.9-39.3,9.9
					c-18.5,8.8-24.8,13.7-24.8,13.7L270,311.1l-4.3,4.3L267,326l29.7,11.4l10.9-3.2l76.9-40.8l5.8-5.2
					C383.7,276.4,364.6,272.7,360.6,272"/>
				<path id="Path_419" class="st26" d="M307.6,334.4c0,0-10.1,3.3-28.2-5.8c0,0-16.8-9.6-9.4-17.3c0,0-24.8,13.7-33,23.1l1.9,9.3
					l10,8.1l11.9,4.9l16.4-1.1L307.6,334.4z"/>
				<path id="Path_420" class="st16" d="M368.3,330.1L368.3,330.1c-0.2-0.1-0.2-0.2-0.3-0.2l0,0c-0.1-0.1-0.2-0.2-0.2-0.2l-0.1-0.1
					c-0.1-0.1-0.1-0.1-0.2-0.2l-0.1-0.1c-0.1-0.1-0.1-0.1-0.2-0.2c0,0,0,0,0-0.1c-0.1-0.1-0.1-0.2-0.2-0.3s-0.1-0.2-0.2-0.3
					c0,0,0,0,0-0.1s-0.1-0.2-0.1-0.3v-0.1c0-0.1,0-0.1-0.1-0.2c0-0.1-0.1-0.2-0.1-0.3c0-0.1,0-0.1-0.1-0.2c0-0.1,0-0.2-0.1-0.2
					s0-0.1-0.1-0.2s0-0.1,0-0.2s0-0.2,0-0.2c0-0.1,0-0.1,0-0.2s0-0.2,0-0.3c0-0.1,0-0.1,0-0.2s0-0.2,0-0.3v-0.1c0-0.2,0-0.3,0-0.5
					s0-0.3,0-0.5c0-0.1,0-0.1,0-0.2s0-0.2,0-0.3c0-0.1,0-0.1,0-0.2s0-0.2,0-0.4v-0.1c0-0.2,0-0.3,0.1-0.5v-0.1
					c0-0.1,0.1-0.3,0.1-0.4s0-0.1,0-0.2s0.1-0.2,0.1-0.3c0-0.1,0-0.1,0.1-0.2c0-0.1,0.1-0.2,0.1-0.3c0-0.1,0-0.1,0.1-0.2
					c0-0.1,0.1-0.2,0.1-0.4c0-0.1,0-0.1,0.1-0.2c0.1-0.2,0.1-0.3,0.2-0.5l0,0c0.1-0.2,0.1-0.3,0.2-0.5c0-0.1,0-0.1,0.1-0.2
					s0.1-0.2,0.2-0.4c0-0.1,0.1-0.1,0.1-0.2c0.1-0.1,0.1-0.2,0.2-0.4c0,0,0-0.1,0.1-0.1c0.1-0.2,0.2-0.3,0.3-0.5c0,0,0-0.1,0.1-0.1
					c0.1-0.1,0.1-0.3,0.2-0.4s0.1-0.2,0.2-0.3s0.1-0.2,0.2-0.3c0.1-0.2,0.3-0.5,0.4-0.7c0.1-0.1,0.1-0.2,0.2-0.2
					c0.1-0.1,0.1-0.2,0.2-0.3s0.1-0.2,0.2-0.2s0.1-0.2,0.2-0.3l0.1-0.2c0.2-0.2,0.4-0.5,0.6-0.7l0,0c0.1-0.2,0.3-0.3,0.4-0.5
					c0.1-0.1,0.2-0.3,0.3-0.4l0.1-0.1c0.1-0.1,0.3-0.3,0.4-0.4l0.1-0.1c0.1-0.1,0.2-0.2,0.3-0.3l0.2-0.2c0.1-0.1,0.2-0.2,0.3-0.2
					c0.1-0.1,0.1-0.1,0.2-0.2s0.2-0.1,0.3-0.2l0.2-0.2c0.1-0.1,0.2-0.1,0.3-0.2c0.1-0.1,0.1-0.1,0.2-0.2s0.2-0.1,0.3-0.2l0.2-0.1
					c0.1-0.1,0.2-0.1,0.3-0.2c0.1,0,0.1-0.1,0.2-0.1c0.1-0.1,0.2-0.1,0.3-0.2l0.2-0.1c0.2-0.1,0.3-0.2,0.5-0.3l0,0
					c0.2-0.1,0.3-0.2,0.5-0.3c0.1-0.1,0.3-0.1,0.4-0.2l0.2-0.1c0.1-0.1,0.2-0.1,0.3-0.1l0.1-0.1c0.2-0.1,0.3-0.1,0.5-0.2
					s0.3-0.1,0.5-0.2h0.1c0.1,0,0.2-0.1,0.3-0.1c0.1,0,0.1,0,0.2,0s0.2,0,0.3-0.1h0.2c0.1,0,0.2,0,0.3,0c0.1,0,0.1,0,0.2,0
					s0.2,0,0.2,0s0.1,0,0.2,0s0.1,0,0.2,0s0.2,0,0.3,0c0.1,0,0.2,0,0.3,0l0,0c0.1,0,0.2,0,0.3,0h0.1c0.1,0,0.2,0,0.4,0.1h0.1
					c0.1,0,0.2,0,0.3,0.1h0.1c0.1,0,0.1,0,0.2,0.1c0.1,0,0.2,0.1,0.3,0.1h0.1c0.1,0.1,0.3,0.1,0.4,0.2L377,305
					c-0.1-0.1-0.2-0.1-0.4-0.2h-0.1c-1.5-0.5-3-0.5-4.5,0c-1.4,0.4-2.8,1.1-4,2l-0.1,0.1c-0.1,0-0.1,0.1-0.2,0.1
					c-4.3,3.2-7.4,8.2-7.8,13.2c-0.2,1.8,0.2,3.6,1.1,5.2l0,0v0.1c0.1,0.1,0.1,0.1,0.2,0.2c0,0,0,0.1,0.1,0.1
					c0.1,0.1,0.1,0.1,0.2,0.2c0,0,0,0,0.1,0.1s0.2,0.2,0.2,0.2l0,0c0.1,0.1,0.2,0.1,0.2,0.2l0.1,0.1c0.1,0,0.1,0.1,0.2,0.1
					c0,0,0.1,0,0.1,0.1c0.1,0.1,0.2,0.1,0.3,0.2l6.9,3.6c-0.1-0.1-0.2-0.1-0.3-0.2c0,0-0.1,0-0.1-0.1
					C368.4,330.2,368.4,330.2,368.3,330.1"/>
				<path id="Path_421" class="st17" d="M376,309.2c-5.6,2.9-10,9.8-10,15.5s4.5,8,10.1,5.1s10-9.8,10-15.5S381.5,306.3,376,309.2"
					/>
				<path id="Path_422" class="st18" d="M376,312.2c-3.9,2-7.1,7-7.1,11s3.2,5.7,7.1,3.6s7.1-7,7.1-11S379.9,310.2,376,312.2"/>
				<path id="Path_423" class="st16" d="M376,314.6c-2.7,1.5-4.5,4.3-4.8,7.4c0,2.7,2.2,3.8,4.8,2.4c2.7-1.5,4.5-4.3,4.8-7.4
					C380.8,314.3,378.6,313.2,376,314.6"/>
				<path id="Path_424" class="st18" d="M376,315.7c-2.1,1.2-3.5,3.3-3.7,5.7c0,2.1,1.7,2.9,3.7,1.9c2.1-1.2,3.5-3.3,3.7-5.7
					C379.7,315.5,378,314.7,376,315.7"/>
				<path id="Path_425" class="st18" d="M381,317.3v-0.7l-4.1,2.1l2.9-4.5l-0.5-0.3l-2.9,4.5v-4.3l-0.7,0.4v4.3l-2.9-1.5l-0.5,0.8
					l2.9,1.5l-4.1,2.1v0.7l4.1-2.1l-2.9,4.5l0.5,0.3l2.9-4.5v4.3l0.7-0.4v-4.3l2.9,1.5l0.5-0.8l-2.9-1.5L381,317.3z"/>
				<path id="Path_426" class="st16" d="M376,318.1c-0.8,0.4-1.3,1.2-1.4,2.1c0,0.8,0.6,1.1,1.4,0.7s1.3-1.2,1.4-2.1
					C377.4,318,376.7,317.7,376,318.1"/>
				<path id="Path_427" class="st27" d="M394.5,296.8c-0.1-0.5-0.5-0.9-1-1l-0.6-0.1c-0.6-2.5-1.5-4.9-2.6-7.3l-9.8,4.4
					c-20.9,0.2-46.9,14.3-46.9,14.3c-4.4,2.3-9.8,5.2-13.3,7.1c-2.3,1.2-4.2,3.1-5.3,5.4l-7.4,14.8c-10.6,6.3-20.7,13.4-30.4,21
					c-6.9-1.5-15.5,0.2-15.5,0.2c-18.1-7.1-21.9-13.1-21.9-13.1c-0.7-2.8-1.7-5.6-2.9-8.3l-0.7,4.9c-1.7,1.5-1.2,5.5-1.2,5.5
					c0.3,2.2,1,4.4,2,6.3c0.9,1.7,2.1,3.3,3.6,4.6l2.3,2.1c1.9,1.8,4.1,3.2,6.4,4.3l11,4.5c13.9,4.6,18.2,2.1,18.2,2.1
					c0.8-0.4,1.5-1.1,1.8-2c1.9-12.5,11.4-16.7,11.4-16.7c11.7-4.5,11.8,6.6,11.8,6.6l2.4-1.6l52.8-27.2c1.8-0.6,3.5-1.2,5.2-2
					c2.5-15.8,14.6-19.4,14.6-19.4c7.1-0.9,7.8,5.3,7.8,5.3l8.3-8.6C394.9,301.1,394.9,298.9,394.5,296.8"/>
				<path id="Path_428" class="st21" d="M282.8,298.6c0,0,8.3,11.2,31.6,18.1l-9.2,16.6c0,0-14.2,0.2-26.4-7.4
					c0,0-14.1-8.2-8.8-14.6L282.8,298.6z"/>
				<path id="Path_429" class="st22" d="M275.5,360.7l1.7-5.2c-6.9-1.5-15.5,0.2-15.5,0.2l1.2,3.1L275.5,360.7z"/>
				<path id="Path_430" class="st22" d="M236.4,338.4l2.1,5.7l1.4-1.5c-0.7-2.8-1.7-5.6-2.9-8.3L236.4,338.4z"/>
				<path id="Path_431" class="st23" d="M273.5,358.9l-11-1.1l0.4,0.9l12.6,1.8l1.7-5.2c-0.5-0.1-1.1-0.2-1.7-0.3L273.5,358.9z"/>
				<path id="Path_432" class="st23" d="M237,338.4l0.6-2.6c-0.4-0.9-0.6-1.5-0.6-1.5l-0.6,4l2.1,5.7l0.3-0.4L237,338.4z"/>
				<path id="Path_433" class="st27" d="M279.3,328.4c0,0-9.3-4.9-11.6-10.6L243,337.7c0.5,1.9,2.4,5.6,9.2,10.1
					c4.2,2.2,8.6,4,13.1,5.5l29.5-18.9C289.4,332.9,284.3,330.9,279.3,328.4"/>
				<path id="Path_434" class="st21" d="M359.7,294c0,0,10.5-3.1,19.1-2.5c0,0-12.3-15.4-31.9-16.5c-5.2,0.3-10.3,1-15.4,2.1
					C331.6,277.1,349,280.3,359.7,294"/>
				<path id="Path_435" class="st28" d="M275.5,360.7l-3.2,8.7c4.5,0.4,6.2-0.6,6.2-0.6c0.8-0.4,1.5-1.1,1.8-2
					c0.6-4.1,2.2-7.9,4.8-11.1L275.5,360.7z"/>
				<path id="Path_436" class="st28" d="M337.7,319v16.1l-26.5,13.7v-16.3l-1,0.9v17l28.4-14.7v-16.8L337.7,319z"/>
				<path id="Path_437" class="st21" d="M362.3,299.2l-0.2-0.7c-13,1.4-29.7,11.1-29.7,11.1c-4.2,2.2-2.9,1.4-11.9,6.4
					c-1.4,0.8-2.5,2-3.2,3.4l-7,13.9c21.8-10.7,48.3-25.1,48.3-25.1l2.4-2.9C362.4,303.6,362.8,301.3,362.3,299.2"/>
				<path id="Path_438" class="st15" d="M313.6,331.6v-4.9l-3.3,6.5C311.4,332.7,312.5,332.2,313.6,331.6"/>
				<path id="Path_439" class="st15" d="M362.3,299.2l-0.2-0.7c-1.8,0.2-3.6,0.5-5.4,1c0.6,1.4,1.2,4.3,0,9.7c1.2-0.7,1.9-1,1.9-1
					l2.4-2.9C362.3,303.6,362.8,301.3,362.3,299.2"/>
				<path id="Path_440" class="st15" d="M336.2,320.1c0.8-0.4,1.7-0.9,2.5-1.3l-0.2-12.4c-0.9,0.5-1.8,0.9-2.6,1.3L336.2,320.1z"/>
				<path id="Path_441" class="st28" d="M358.7,327.9c1.8-0.6,3.5-1.2,5.2-2c0.4-2.4,1-4.7,1.9-7l-63.7,33c0.9,1.5,1.3,3.1,1.4,4.8
					l2.4-1.6L358.7,327.9z"/>
				<path id="Path_442" class="st28" d="M385.1,309c0.6,0.9,1,1.8,1.1,2.9l6.7-6.9L385.1,309z"/>
				<path id="Path_443" class="st15" d="M282.8,298.6L270,311.2c-5.3,6.4,8.8,14.6,8.8,14.6c11.5,7.2,24.8,7.4,26.3,7.4h0.1
					l9.2-16.6C291.1,309.9,282.8,298.6,282.8,298.6 M304.5,332.3c-3-0.1-14.8-0.8-25.1-7.2l0,0l0,0c-0.1,0-8.4-4.9-9.4-9.7
					c-0.3-1.2,0.1-2.4,0.9-3.4l11.8-11.7c1.9,2.1,4.1,4,6.4,5.7c7.2,5.1,15.2,9,23.7,11.4L304.5,332.3z"/>
				<path id="Path_444" class="st15" d="M346.9,275c-5.2,0.3-10.3,1-15.4,2.1c0,0,17.4,3.2,28.1,16.9c5.5-1.5,11.2-2.4,17-2.6
					c0.7,0,1.4,0,2.1,0.1C378.8,291.5,366.6,276.1,346.9,275 M360.1,293c-7.8-9.7-18.8-14.1-24.6-15.8c3.8-0.7,7.6-1.1,11.4-1.3
					c4.4,0.3,8.7,1.3,12.8,3c3.5,1.4,6.8,3.3,9.8,5.5c2.6,1.9,5,4,7.2,6.3h-0.1C371.1,290.7,365.5,291.5,360.1,293"/>
				<path id="Path_445" class="st15" d="M362.3,299.2l-0.2-0.7c-13,1.4-29.7,11.1-29.7,11.1c-4.2,2.2-2.9,1.4-11.9,6.4
					c-1.4,0.8-2.5,2-3.2,3.4l-7,13.9c21.8-10.7,48.3-25.1,48.3-25.1l2.4-2.9C362.3,303.6,362.8,301.3,362.3,299.2 M360.2,304.7
					l-2.3,2.8c-2.2,1.2-25.5,13.8-45.6,23.8l5.8-11.5c0.6-1.3,1.6-2.3,2.9-3c7.1-4,7.7-4.3,9.8-5.4c0.5-0.3,1.2-0.6,2.1-1.1l0,0l0,0
					c0.2-0.1,15.9-9.2,28.4-10.8C361.8,301.3,361.4,303.3,360.2,304.7"/>
				<path id="Path_446" class="st26" d="M276.9,362.9l-15.9-1.5l-10.8-4.7c-1.9-0.8-3.6-1.9-5.1-3.3l-7.1-6.5
					c-1.8-2.3-1.8-7.6-1.8-7.6c-1.2,3.8,0.7,8.4,0.7,8.4l7,7.1c1.6,1.6,3.4,2.8,5.4,3.7l10.6,4.8l17,2c3.3-0.8,4.8-4.1,4.8-4.1
					L276.9,362.9z"/>
				<path id="Path_447" class="st21" d="M238.5,346.3l7.1,6.5c1.5,1.4,3.2,2.5,5.1,3.3l10.8,4.7l2.3,0.2l-2-5.4
					c-18.1-7.1-21.9-13.1-21.9-13.1l-2.1,2.2C237.9,345.3,238.2,345.8,238.5,346.3"/>
				<path id="Path_448" class="st23" d="M390.8,289.4l-0.6,0.3c-0.3,0.1-0.4,0.4-0.4,0.7v6.5c0,0.3,0.3,0.4,0.5,0.4
					c0.1,0,0.2,0,0.2-0.1l2.4-1.6C392.4,293.5,391.7,291.4,390.8,289.4"/>
				<path id="Path_449" class="st11" d="M570.1,46.9l-3.3-1.7L20.7,328l3.3,1.7L570.1,46.9z"/>
				<path id="Path_450" class="st11" d="M757.8,143.9l-3.3-1.7L208.5,425l3.3,1.7L757.8,143.9z"/>
				<path id="Path_451" class="st29" d="M341.4,227l-12.9-0.9l2.4-6.3l8.6-1.2l3.8,5.1L341.4,227z"/>
				<path id="Path_452" class="st29" d="M387.8,203l-11.1-3.1l2-4.6l10,2.2L387.8,203z"/>
				<path id="Path_453" class="st16" d="M372.6,216.5L372.6,216.5c-0.1-0.1-0.2-0.2-0.3-0.2l0,0c-0.1-0.1-0.1-0.1-0.2-0.2L372,216
					c0,0-0.1-0.1-0.1-0.2l-0.1-0.1c0-0.1-0.1-0.1-0.1-0.2l0,0c-0.1-0.1-0.1-0.2-0.2-0.3s-0.1-0.2-0.2-0.3l0,0c0-0.1-0.1-0.2-0.1-0.2
					v-0.1c0,0,0-0.1-0.1-0.1c0-0.1-0.1-0.2-0.1-0.2s0-0.1,0-0.2s0-0.1-0.1-0.2s0-0.1,0-0.2s0-0.1,0-0.2s0-0.1,0-0.2s0-0.1,0-0.2
					c0-0.1,0-0.1,0-0.2v-0.1c0-0.1,0-0.2,0-0.3v-0.1c0-0.1,0-0.3,0-0.4s0-0.3,0-0.4v-0.1c0-0.1,0-0.2,0-0.3v-0.1c0-0.1,0-0.2,0-0.3
					v-0.1c0-0.1,0-0.3,0.1-0.4c0,0,0,0,0-0.1s0-0.2,0.1-0.4v-0.1c0-0.1,0-0.2,0.1-0.3c0-0.1,0-0.1,0-0.2c0-0.1,0-0.2,0.1-0.3
					c0-0.1,0-0.1,0-0.2c0-0.1,0.1-0.2,0.1-0.3v-0.1c0-0.1,0.1-0.3,0.1-0.4l0,0c0-0.1,0.1-0.3,0.2-0.4c0,0,0-0.1,0.1-0.1
					c0-0.1,0.1-0.2,0.1-0.3l0.1-0.1c0-0.1,0.1-0.2,0.1-0.3v-0.1c0.1-0.1,0.1-0.3,0.2-0.4c0,0,0-0.1,0.1-0.1c0.1-0.1,0.1-0.2,0.2-0.3
					c0-0.1,0.1-0.1,0.1-0.2c0-0.1,0.1-0.1,0.1-0.2c0.1-0.2,0.2-0.4,0.3-0.6l0.1-0.2l0.2-0.2c0-0.1,0.1-0.1,0.1-0.2s0.1-0.1,0.2-0.2
					l0.1-0.1c0.1-0.2,0.3-0.4,0.5-0.6l0,0c0.1-0.1,0.2-0.3,0.3-0.4c0.1-0.1,0.2-0.2,0.3-0.3c0,0,0,0,0.1-0.1s0.2-0.2,0.3-0.3
					l0.1-0.1c0.1-0.1,0.2-0.2,0.2-0.2l0.1-0.1l0.2-0.2l0.2-0.1c0.1-0.1,0.1-0.1,0.2-0.2s0.1-0.1,0.2-0.1s0.1-0.1,0.2-0.2l0.2-0.1
					c0.1-0.1,0.1-0.1,0.2-0.2c0.1,0,0.1-0.1,0.2-0.1c0.1-0.1,0.1-0.1,0.2-0.2l0.2-0.1c0.1-0.1,0.2-0.1,0.3-0.2l0.1-0.1
					c0.1-0.1,0.3-0.2,0.4-0.2l0,0c0.1-0.1,0.3-0.1,0.4-0.2s0.2-0.1,0.4-0.2l0.1-0.1c0.1,0,0.2-0.1,0.3-0.1h0.1
					c0.1-0.1,0.2-0.1,0.4-0.1s0.2-0.1,0.4-0.1h0.1c0.1,0,0.2,0,0.2-0.1h0.1c0.1,0,0.1,0,0.2,0h0.1h0.2c0.1,0,0.1,0,0.2,0
					s0.1,0,0.2,0s0.1,0,0.2,0s0.1,0,0.2,0s0.1,0,0.2,0s0.2,0,0.3,0l0,0c0.1,0,0.2,0,0.3,0h0.1c0.1,0,0.2,0,0.3,0h0.1
					c0.1,0,0.2,0,0.2,0h0.1c0.1,0,0.1,0,0.2,0.1s0.1,0.1,0.2,0.1h0.1c0.1,0,0.2,0.1,0.3,0.1l-5.5-2.9c-0.1-0.1-0.2-0.1-0.3-0.1h-0.1
					c-1.2-0.4-2.4-0.4-3.6,0c-1.1,0.4-2.2,0.9-3.2,1.6c0,0-0.1,0-0.1,0.1l-0.2,0.1c-3.5,2.5-5.8,6.4-6.3,10.6
					c-0.2,1.5,0.1,2.9,0.9,4.2l0,0l0,0c0,0.1,0.1,0.1,0.1,0.2l0.1,0.1c0,0.1,0.1,0.1,0.1,0.2l0.1,0.1c0.1,0.1,0.1,0.1,0.2,0.2l0,0
					c0.1,0.1,0.1,0.1,0.2,0.1c0,0,0,0,0.1,0.1c0.1,0,0.1,0.1,0.2,0.1h0.1c0.1,0,0.2,0.1,0.2,0.1l5.5,2.9c-0.1,0-0.2-0.1-0.2-0.1
					h-0.1C372.7,216.6,372.6,216.5,372.6,216.5"/>
				<path id="Path_454" class="st17" d="M378.7,199.7c-4.5,2.3-8.1,7.9-8,12.5s3.6,6.4,8.1,4.1s8.1-7.9,8-12.5
					S383.2,197.4,378.7,199.7"/>
				<path id="Path_455" class="st1" d="M378.7,202.1c-3.2,1.6-5.7,5.6-5.7,8.8s2.6,4.6,5.7,2.9s5.7-5.6,5.7-8.8
					S381.9,200.5,378.7,202.1"/>
				<path id="Path_456" class="st16" d="M378.7,204.1c-2.2,1.2-3.6,3.4-3.8,5.9c0,2.2,1.7,3.1,3.8,2c2.2-1.2,3.6-3.4,3.8-5.9
					C382.6,203.8,380.8,203,378.7,204.1"/>
				<path id="Path_457" class="st1" d="M378.7,205c-1.7,0.9-2.8,2.6-2.9,4.6c0,1.7,1.3,2.4,3,1.5s2.8-2.6,2.9-4.6
					C381.7,204.8,380.4,204.1,378.7,205"/>
				<path id="Path_458" class="st1" d="M382.8,206.2v-0.6l-3.3,1.7l2.3-3.6l-0.4-0.2l-2.3,3.6v-3.4l-0.6,0.3v3.4l-2.4-1.2l-0.4,0.6
					l2.4,1.2l-3.3,1.7v0.6l3.3-1.7l-2.3,3.6l0.4,0.2l2.3-3.6v3.4l0.6-0.3v-3.4l2.4,1.2l0.4-0.6l-2.4-1.2L382.8,206.2z"/>
				<path id="Path_459" class="st16" d="M378.7,206.9c-0.6,0.3-1,1-1.1,1.7c0,0.6,0.5,0.9,1.1,0.6c0.6-0.3,1-1,1.1-1.7
					C379.8,206.8,379.3,206.6,378.7,206.9"/>
				<path id="Path_460" class="st16" d="M326.1,240.7L326.1,240.7c-0.1-0.1-0.2-0.2-0.3-0.2l0,0c-0.1-0.1-0.1-0.1-0.2-0.2l-0.1-0.1
					c0,0-0.1-0.1-0.1-0.2c0,0,0,0-0.1-0.1c0-0.1-0.1-0.1-0.1-0.2l0,0c-0.1-0.1-0.1-0.2-0.2-0.3s-0.1-0.2-0.2-0.3l0,0
					c0-0.1-0.1-0.1-0.1-0.2c0,0,0,0,0-0.1c0,0,0-0.1-0.1-0.1c0-0.1-0.1-0.2-0.1-0.2v-0.1c0-0.1,0-0.1-0.1-0.2s0-0.1,0-0.2
					s0-0.1,0-0.2s0-0.1,0-0.2s0-0.1,0-0.2s0-0.1,0-0.2v-0.1c0-0.1,0-0.2,0-0.3v-0.1c0-0.1,0-0.3,0-0.4s0-0.3,0-0.4v-0.1
					c0-0.1,0-0.2,0-0.3v-0.1c0-0.1,0-0.2,0-0.3V235c0-0.1,0-0.3,0.1-0.4c0,0,0,0,0-0.1s0-0.2,0.1-0.4V234c0-0.1,0-0.2,0.1-0.3
					c0-0.1,0-0.1,0-0.2s0-0.2,0.1-0.3c0-0.1,0-0.1,0-0.2s0.1-0.2,0.1-0.3v-0.1c0-0.1,0.1-0.3,0.1-0.4l0,0c0-0.1,0.1-0.3,0.2-0.4
					c0,0,0-0.1,0.1-0.1c0-0.1,0.1-0.2,0.1-0.3c0,0,0-0.1,0.1-0.1c0-0.1,0.1-0.2,0.1-0.3c0,0,0-0.1,0.1-0.1c0.1-0.1,0.1-0.3,0.2-0.4
					l0.1-0.1c0.1-0.1,0.1-0.2,0.2-0.3c0-0.1,0.1-0.1,0.1-0.2s0.1-0.1,0.1-0.2c0.1-0.2,0.2-0.4,0.3-0.6l0.1-0.2
					c0.1-0.1,0.1-0.1,0.2-0.2s0.1-0.1,0.1-0.2s0.1-0.1,0.2-0.2l0.1-0.1c0.2-0.2,0.3-0.4,0.5-0.6l0,0c0.1-0.1,0.2-0.3,0.3-0.4
					c0.1-0.1,0.2-0.2,0.3-0.3l0.1-0.1c0.1-0.1,0.2-0.2,0.3-0.3l0.1-0.1c0.1-0.1,0.2-0.2,0.2-0.2l0.1-0.1c0.1-0.1,0.1-0.1,0.2-0.2
					l0.2-0.1c0.1-0.1,0.1-0.1,0.2-0.2s0.1-0.1,0.2-0.1s0.1-0.1,0.2-0.2l0.2-0.1c0.1-0.1,0.1-0.1,0.2-0.2c0.1,0,0.1-0.1,0.2-0.1
					c0.1-0.1,0.1-0.1,0.2-0.2c0.1,0,0.1-0.1,0.2-0.1c0.1-0.1,0.2-0.1,0.3-0.2l0.1-0.1c0.1-0.1,0.3-0.2,0.4-0.2l0,0
					c0.1-0.1,0.3-0.1,0.4-0.2s0.2-0.1,0.4-0.2c0,0,0.1,0,0.1-0.1c0.1,0,0.2-0.1,0.3-0.1h0.1c0.1-0.1,0.2-0.1,0.4-0.1
					s0.2-0.1,0.4-0.1h0.1c0.1,0,0.2,0,0.2-0.1h0.1c0.1,0,0.1,0,0.2,0h0.1h0.2c0.1,0,0.1,0,0.2,0s0.1,0,0.2,0h0.2h0.2
					c0.1,0,0.1,0,0.2,0s0.2,0,0.3,0l0,0c0.1,0,0.2,0,0.3,0h0.1c0.1,0,0.2,0,0.3,0h0.1c0.1,0,0.2,0,0.2,0h0.1c0.1,0,0.1,0,0.2,0.1
					s0.1,0.1,0.2,0.1h0.1c0.1,0,0.2,0.1,0.3,0.1l-5.5-2.9c-0.1,0-0.2-0.1-0.3-0.1h-0.1c-1.2-0.4-2.4-0.4-3.6,0
					c-1.1,0.4-2.2,0.9-3.2,1.6l-0.1,0.1c-0.1,0-0.1,0.1-0.2,0.1c-3.5,2.5-5.8,6.4-6.3,10.6c-0.2,1.5,0.1,2.9,0.9,4.2l0,0l0,0
					c0,0.1,0.1,0.1,0.1,0.2c0,0,0,0,0.1,0.1c0,0.1,0.1,0.1,0.1,0.2l0.1,0.1c0.1,0.1,0.1,0.1,0.2,0.2l0,0c0.1,0.1,0.1,0.1,0.2,0.1
					c0,0,0,0,0.1,0.1c0.1,0,0.1,0.1,0.2,0.1h0.1c0.1,0,0.2,0.1,0.2,0.1l5.5,2.9c-0.1,0-0.2-0.1-0.2-0.1h-0.1
					C326.2,240.7,326.2,240.7,326.1,240.7"/>
				<path id="Path_461" class="st17" d="M332.3,223.9c-4.5,2.3-8.1,7.9-8,12.5c0,4.6,3.6,6.4,8.1,4.1s8.1-7.9,8-12.5
					C340.4,223.4,336.7,221.6,332.3,223.9"/>
				<path id="Path_462" class="st1" d="M332.3,226.3c-3.2,1.6-5.7,5.6-5.7,8.8c0,3.2,2.6,4.6,5.7,2.9s5.7-5.6,5.7-8.8
					S335.4,224.7,332.3,226.3"/>
				<path id="Path_463" class="st16" d="M332.3,228.2c-2.2,1.2-3.6,3.4-3.8,5.9c0,2.2,1.7,3.1,3.8,2c2.2-1.2,3.6-3.4,3.8-5.9
					C336.1,228,334.4,227.1,332.3,228.2"/>
				<path id="Path_464" class="st1" d="M332.3,229.1c-1.7,0.9-2.8,2.6-2.9,4.6c0,1.7,1.3,2.4,3,1.5s2.8-2.6,2.9-4.6
					C335.3,229,333.9,228.3,332.3,229.1"/>
				<path id="Path_465" class="st1" d="M336.3,230.4v-0.6l-3.3,1.7l2.3-3.6l-0.4-0.2l-2.3,3.6v-3.4l-0.6,0.3v3.4l-2.4-1.2l-0.4,0.6
					l2.4,1.2l-3.3,1.7v0.6l3.3-1.7l-2.3,3.6l0.4,0.2l2.3-3.6v3.4l0.6-0.3v-3.4l2.4,1.2l0.4-0.6l-2.4-1.2L336.3,230.4z"/>
				<path id="Path_466" class="st16" d="M332.3,231c-0.6,0.3-1,1-1.1,1.7c0,0.6,0.5,0.9,1.1,0.6s1-1,1.1-1.7
					C333.4,231,332.9,230.7,332.3,231"/>
				<path id="Path_467" class="st30" d="M379.1,172.4l-35.6-18.5l-34.1,17.7l35.3,18.7L379.1,172.4z"/>
				<path id="Path_468" class="st31" d="M315.1,228.8l-36.9-19.2l-1.5,12.5l36.9,19.2L315.1,228.8z"/>
				<path id="Path_469" class="st32" d="M312.4,238v4.6l-37.2-19.1v-4.6L312.4,238z"/>
				<path id="Path_470" class="st31" d="M312.4,238v4.6l1.8-0.9v-4.6L312.4,238z"/>
				<path id="Path_471" class="st30" d="M275.3,218.9l37.2,19.1l1.8-0.9L277.1,218L275.3,218.9z"/>
				<path id="Path_472" class="st33" d="M295.7,232v3.6l-7.8-4V228L295.7,232z"/>
				<path id="Path_473" class="st12" d="M315.1,228.8l-3.8-2l-2.8,7.3l5.5,2.8L315.1,228.8z"/>
				<path id="Path_474" class="st12" d="M281.6,211.4l-3.4-1.7l-1,8.4l4.6,2.4L281.6,211.4z"/>
				<path id="Path_475" class="st33" d="M306.7,233.2l2.3-5.6l-25.6-13l-0.2,6.5L306.7,233.2z"/>
				<path id="Path_476" class="st32" d="M390.4,187.1l-11.3-14.7l-34.5,17.8c-24.8,18-29.5,38.6-29.5,38.6l0,0l0,0l-1.5,12.5l9.7-5
					c0.2-5,4.2-11,9-13.5s8.8-0.6,9.1,4.1l28.4-14.7c0.1-5.1,4.1-11.1,9-13.7s8.9-0.6,9.1,4.3l4.9-2.5L390.4,187.1z"/>
				<path id="Path_477" class="st21" d="M344.7,190.2l-35.3-18.7c-24.8,18-31.2,38.1-31.2,38.1l36.9,19.2
					C315.1,228.8,319.9,208.2,344.7,190.2"/>
				<path id="Path_478" class="st30" d="M309.4,171.6c-24.8,18-31.2,38.1-31.2,38.1l36.9,19.2c0,0,4.7-20.7,29.5-38.6L309.4,171.6z
					 M319.3,215.7L319.3,215.7c-0.9,1.3-2.6,1.8-3.9,1l-28.8-15.2c-1.1-0.5-1.6-1.9-1.1-3c0-0.1,0.1-0.2,0.1-0.2l0.1-0.2
					c2.8-4.3,5.9-8.3,9.4-12.1c4.4-4.7,9.2-9,14.4-12.8l32.6,17.3C332.9,197.2,325.2,205.8,319.3,215.7"/>
				<path id="Path_479" class="st31" d="M378.7,198.7c-4.9,2.5-8.9,8.6-9,13.7l-28.4,14.7c-0.3-4.8-4.2-6.6-9.1-4.1s-8.8,8.4-9,13.5
					l-9.7,5L315,229l0.1-0.1l75.6-39.2l1.9,10.9l-4.9,2.5C387.6,198.1,383.6,196.2,378.7,198.7"/>
				<path id="Path_480" class="st21" d="M385.9,185.4l-6.4-8.3c-0.7-0.9-2-1.1-3-0.6l-29.1,15.1c-2.1,1.1-4,2.4-5.7,4
					c-7.5,6.3-13.8,13.9-18.7,22.5L385.9,185.4z"/>
				<path id="Path_481" class="st32" d="M364.5,200.2h-2.7l2.9-19.1h2.7L364.5,200.2z"/>
				<path id="Path_487_2_" class="st16" d="M145.7,320.9"/>
				<path id="Path_521" class="st8" d="M363,47.7c0.4-0.3,0.7-0.6,1.2-0.8l39.7-20.5c3.2-1.6,7-1.6,10.2,0l11.7,6.1h5.2v69
					c0,1.4-0.8,2.7-2.1,3.4l-39.4,20.3c-4.4,2.2-9.5,2.2-13.9,0l-11.4-5.9c-1.6-0.8-2.7-2.4-2.7-4.2l0,0v-69L363,47.7z"/>
				<path id="Path_522" class="st1" d="M429,35.8l-38.3,19.8v69l38.3-19.8c1.3-0.6,2.1-1.9,2.2-3.4V32.5
					C431.1,33.9,430.3,35.2,429,35.8"/>
				<path id="Path_523" class="st9" d="M361.5,46.1C361.5,46.1,361.5,46.2,361.5,46.1L361.5,46.1L361.5,46.1z"/>
				<path id="Path_524" class="st11" d="M364.2,42l39.7-20.5c3.2-1.6,7-1.6,10.2,0l14.8,7.7c1.8,0.8,2.7,3,1.8,4.8
					c-0.4,0.8-1,1.5-1.8,1.8l-39.4,20.4c-4.4,2.2-9.5,2.2-13.9,0l-11.4-5.9c-2.3-1-3.3-3.8-2.3-6.1C362.4,43.3,363.2,42.5,364.2,42"
					/>
				<path id="Path_525" class="st1" d="M379,57.5v69c2.4,0.5,4.8,0.5,7.2-0.1v-69C383.9,58,381.4,58,379,57.5"/>
				<path id="Path_526" class="st8" d="M472.3,104.3c0.4-0.3,0.7-0.6,1.2-0.8L513.2,83c3.2-1.6,7-1.6,10.2,0l11.7,6.1h5.2v69
					c0,1.4-0.8,2.7-2.1,3.4l-39.5,20.4c-4.4,2.2-9.5,2.2-13.9,0l-11.4-5.9c-1.6-0.8-2.7-2.4-2.7-4.2l0,0v-69.1L472.3,104.3z"/>
				<path id="Path_527" class="st1" d="M538.3,92.4L500,112.2v69l38.3-19.8c1.3-0.6,2.1-1.9,2.1-3.4V89.1
					C540.4,90.5,539.5,91.8,538.3,92.4"/>
				<path id="Path_528" class="st9" d="M470.8,102.7L470.8,102.7L470.8,102.7L470.8,102.7z"/>
				<path id="Path_529" class="st11" d="M473.5,98.6l39.7-20.5c3.2-1.6,7-1.6,10.2,0l14.8,7.7c1.8,0.8,2.7,3,1.8,4.8
					c-0.4,0.8-1,1.5-1.8,1.8l-39.5,20.4c-4.4,2.2-9.5,2.2-13.9,0l-11.4-5.9c-2.3-1-3.3-3.8-2.3-6.1C471.6,99.8,472.5,99,473.5,98.6"
					/>
				<path id="Path_530" class="st1" d="M488.3,114.1v69c2.4,0.5,4.8,0.5,7.2-0.1v-69C493.2,114.6,490.7,114.6,488.3,114.1"/>
				<path id="Path_531" class="st8" d="M590.4,165.5c0.4-0.3,0.7-0.6,1.2-0.8l39.7-20.5c3.2-1.6,7-1.6,10.2,0l11.7,6.1h5.2v69
					c0,1.4-0.8,2.7-2.2,3.4l-39.5,20.4c-4.4,2.2-9.5,2.2-13.9,0l-11.4-5.9c-1.6-0.8-2.7-2.4-2.7-4.2l0,0v-69.1L590.4,165.5z"/>
				<path id="Path_532" class="st1" d="M656.4,153.5l-38.3,19.8v69l38.3-19.8c1.3-0.6,2.1-1.9,2.2-3.4v-68.9
					C658.5,151.6,657.7,152.9,656.4,153.5"/>
				<path id="Path_533" class="st9" d="M588.9,163.9L588.9,163.9L588.9,163.9L588.9,163.9z"/>
				<path id="Path_534" class="st11" d="M591.6,159.7l39.7-20.5c3.2-1.6,7-1.6,10.2,0l14.8,7.7c1.8,0.8,2.7,3,1.8,4.8
					c-0.4,0.8-1,1.5-1.8,1.8l-39.5,20.4c-4.4,2.2-9.5,2.2-13.9,0l-11.4-5.9c-2.3-1-3.3-3.8-2.3-6.1
					C589.8,161,590.6,160.2,591.6,159.7"/>
				<path id="Path_535" class="st1" d="M606.5,175.2v69c2.4,0.5,4.8,0.5,7.2-0.1v-69C611.3,175.7,608.8,175.8,606.5,175.2"/>
				<path id="Path_536" class="st21" d="M656.4,160l-22.8,11.8v33.5l22.8-11.8c1.3-0.6,2.1-1.9,2.1-3.4v-33.4
					C658.5,158.2,657.7,159.4,656.4,160"/>
				<path id="Path_537" class="st11" d="M656.4,191.9l-22.8,11.8v1.6l22.8-11.8c1.3-0.6,2.1-1.9,2.1-3.4v-1.6
					C658.5,190,657.7,191.3,656.4,191.9"/>
				<path id="Path_538" class="st34" d="M593.5,153.4c0.3-0.3,0.7-0.5,1.1-0.7l36.1-18.6c2.9-1.5,6.4-1.5,9.3,0l10.7,5.5h4.7v9.7
					c0,1.3-0.8,2.5-2,3.1l-35.9,18.4c-4,2-8.6,2-12.6,0l-10.3-5.3c-1.5-0.7-2.4-2.2-2.4-3.8l0,0v-9.8L593.5,153.4z"/>
				<path id="Path_539" class="st34" d="M653.4,142.6l-34.8,17.9v9.7l34.8-17.9c1.2-0.6,1.9-1.7,2-3.1v-9.7
					C655.3,140.8,654.5,142,653.4,142.6"/>
				<path id="Path_540" class="st9" d="M592.1,151.9C592.1,151.9,592.1,152,592.1,151.9L592.1,151.9L592.1,151.9z"/>
				<path id="Path_541" class="st11" d="M594.6,148.2l36.1-18.6c2.9-1.5,6.4-1.5,9.3,0l13.5,6.9c1.7,0.8,2.4,2.7,1.7,4.4
					c-0.3,0.7-0.9,1.3-1.7,1.7l-36,18.5c-4,2-8.6,2-12.6,0l-10.3-5.3c-2.1-0.9-3-3.4-2.1-5.5C592.9,149.3,593.7,148.6,594.6,148.2"
					/>
				<path id="Path_542" class="st34" d="M608,162.2v9.7c2.2,0.5,4.4,0.5,6.5-0.1v-9.7C612.4,162.7,610.2,162.7,608,162.2"/>
				<path id="Path_543" class="st3" d="M341.1,41.1c0.4-0.3,0.8-0.6,1.2-0.8l63.6-32.9c3.3-1.7,7.3-1.7,10.6,0l239.2,123.5h5.4v8.2
					c0,1.5-0.9,2.8-2.2,3.5l-63.4,32.8c-4.5,2.3-9.9,2.3-14.4,0L342.4,52.1c-1.7-0.8-2.7-2.5-2.8-4.3l0,0v-8.3L341.1,41.1z"/>
				<path id="Path_544" class="st35" d="M341.1,41.1c0.4-0.3,0.8-0.6,1.2-0.8l63.6-32.9c3.3-1.7,7.3-1.7,10.6,0l239.2,123.5h5.4v8.2
					c0,1.5-0.9,2.8-2.2,3.5l-63.4,32.8c-4.5,2.3-9.9,2.3-14.4,0L342.4,52.1c-1.7-0.8-2.7-2.5-2.8-4.3l0,0v-8.3L341.1,41.1z"/>
				<path id="Path_545" class="st3" d="M658.9,134.3l-62.1,32.1v8.3l62.1-32.1c1.3-0.6,2.2-2,2.2-3.5v-8.2
					C661.1,132.4,660.2,133.7,658.9,134.3"/>
				<path id="Path_546" class="st35" d="M658.9,134.3l-62.1,32.1v8.3l62.1-32.1c1.3-0.6,2.2-2,2.2-3.5v-8.2
					C661.1,132.4,660.2,133.7,658.9,134.3z"/>
				<path id="Path_547" class="st3" d="M339.6,39.5L339.6,39.5L339.6,39.5L339.6,39.5z"/>
				<path id="Path_548" class="st35" d="M339.6,39.5L339.6,39.5L339.6,39.5L339.6,39.5z"/>
				<g transform="matrix(1, 0, 0, 1, 0, 0)">
					<path id="Path_549-2_1_" class="st36" d="M342.4,35.2l63.5-32.9c3.3-1.7,7.3-1.7,10.6,0l242.4,125.1c1.9,0.9,2.8,3.1,1.9,5
						c-0.4,0.8-1.1,1.5-1.9,1.9l-63.4,32.8c-4.5,2.3-9.9,2.3-14.4,0L342.3,43.8c-2.4-1.1-3.4-3.9-2.4-6.3
						C340.5,36.5,341.3,35.7,342.4,35.2"/>
				</g>
				<path id="Path_550" class="st35" d="M342.4,35.2l63.5-32.9c3.3-1.7,7.3-1.7,10.6,0l242.4,125.1c1.9,0.9,2.8,3.1,1.9,5
					c-0.4,0.8-1.1,1.5-1.9,1.9l-63.4,32.8c-4.5,2.3-9.9,2.3-14.4,0L342.4,43.8c-2.4-1.1-3.4-3.9-2.4-6.3
					C340.5,36.5,341.3,35.7,342.4,35.2z"/>
				<path id="Path_551" class="st3" d="M584.8,168.5v8.3c2.5,0.6,5,0.5,7.5-0.1v-8.3C589.8,169,587.2,169,584.8,168.5"/>
				<path id="Path_552" class="st35" d="M584.8,168.5v8.3c2.5,0.6,5,0.5,7.5-0.1v-8.3C589.8,169,587.2,169,584.8,168.5z"/>
				<path id="Path_553" class="st37" d="M601.1,210.2l-8.8-4.6v-21.4l8.8,4.6V210.2z"/>
				<path id="Path_554" class="st1" d="M593.1,205.2v-20.5l-0.9-0.4v21.4l8.8,4.6v-1L593.1,205.2z"/>
				<path id="Path_555" class="st37" d="M483.3,149.3l-8.8-4.6v-21.4l8.8,4.6V149.3z"/>
				<path id="Path_556" class="st1" d="M475.3,144.2v-20.5l-0.9-0.4v21.4l8.8,4.6v-1L475.3,144.2z"/>
				<path id="Path_557" class="st37" d="M373.9,92.6l-8.8-4.6V66.6l8.8,4.6V92.6z"/>
				<path id="Path_558" class="st1" d="M365.9,87.6V67.1l-0.9-0.4v21.4l8.8,4.6v-0.9L365.9,87.6z"/>
				<path id="Path_559" class="st8" d="M497.9,299.1v3.1l-15.3-7.9v-3.2L497.9,299.1z"/>
				<path id="Path_560" class="st11" d="M482.7,291.2l15.3,7.9l30.3-15.6l-15.3-7.9L482.7,291.2z"/>
				<path id="Path_561" class="st1" d="M497.9,299.1v3.1l30.3-15.6v-3.1L497.9,299.1z"/>
				<path id="Path_562" class="st8" d="M494.5,286.9l3.4,12.1l-15.3-7.9l4.6-8L494.5,286.9z"/>
				<path id="Path_563" class="st12" d="M487.2,283.1l7.3,3.8l30.3-15.6l-7.3-3.8L487.2,283.1z"/>
				<path id="Path_564" class="st13" d="M494.5,286.9l3.4,12.1l30.3-15.6l-3.4-12.1L494.5,286.9z"/>
				<path id="Path_565" class="st8" d="M494.5,272.5V287l-7.3-3.8v-14.5L494.5,272.5z"/>
				<path id="Path_566" class="st10" d="M487.2,268.7l7.3,3.8l30.3-15.6l-7.3-3.8L487.2,268.7z"/>
				<path id="Path_567" class="st14" d="M494.5,272.5V287l30.3-15.6v-14.5L494.5,272.5z"/>
				<path id="Path_568" class="st8" d="M464.6,316.3v3.1l-15.3-7.9v-3.2L464.6,316.3z"/>
				<path id="Path_569" class="st11" d="M449.4,308.4l15.3,7.9l30.3-15.6l-15.3-7.9L449.4,308.4z"/>
				<path id="Path_570" class="st1" d="M464.6,316.3v3.1l30.3-15.6v-3.1L464.6,316.3z"/>
				<path id="Path_571" class="st8" d="M461.3,304.2l3.4,12.1l-15.3-7.9l4.6-8L461.3,304.2z"/>
				<path id="Path_572" class="st12" d="M453.9,300.4l7.3,3.8l30.3-15.6l-7.3-3.8L453.9,300.4z"/>
				<path id="Path_573" class="st13" d="M461.3,304.2l3.4,12.1l30.3-15.6l-3.4-12.1L461.3,304.2z"/>
				<path id="Path_574" class="st8" d="M461.3,289.7v14.5l-7.3-3.8v-14.5L461.3,289.7z"/>
				<path id="Path_575" class="st10" d="M453.9,285.9l7.3,3.8l30.3-15.6l-7.3-3.8L453.9,285.9z"/>
				<path id="Path_576" class="st14" d="M461.3,289.7v14.5l30.3-15.6v-14.5L461.3,289.7z"/>
				<path id="Path_577" class="st8" d="M431.4,333.5v3.1l-15.3-7.9v-3.2L431.4,333.5z"/>
				<path id="Path_578" class="st11" d="M416.1,325.6l15.3,7.9l30.3-15.6l-15.3-7.9L416.1,325.6z"/>
				<path id="Path_579" class="st1" d="M431.4,333.5v3.1l30.3-15.6v-3.1L431.4,333.5z"/>
				<path id="Path_580" class="st8" d="M428,321.4l3.4,12.1l-15.3-7.9l4.6-8L428,321.4z"/>
				<path id="Path_581" class="st12" d="M420.6,317.6l7.3,3.8l30.3-15.6l-7.3-3.8L420.6,317.6z"/>
				<path id="Path_582" class="st13" d="M428,321.4l3.4,12.1l30.3-15.6l-3.4-12.1L428,321.4z"/>
				<path id="Path_583" class="st8" d="M428,306.9v14.5l-7.3-3.8v-14.5L428,306.9z"/>
				<path id="Path_584" class="st10" d="M420.6,303.1l7.3,3.8l30.3-15.6l-7.3-3.8L420.6,303.1z"/>
				<path id="Path_585" class="st14" d="M428,306.9v14.5l30.3-15.6v-14.5L428,306.9z"/>
				<path id="Path_586" class="st8" d="M398.1,350.8v3.1l-15.3-7.9v-3.2L398.1,350.8z"/>
				<path id="Path_587" class="st11" d="M382.8,342.9l15.3,7.9l30.3-15.6l-15.3-7.9L382.8,342.9z"/>
				<path id="Path_588" class="st1" d="M398.1,350.8v3.1l30.3-15.7v-3.1L398.1,350.8z"/>
				<path id="Path_589" class="st8" d="M394.7,338.6l3.4,12.1l-15.3-7.9l4.6-8L394.7,338.6z"/>
				<path id="Path_590" class="st12" d="M387.4,334.8l7.3,3.8L425,323l-7.3-3.8L387.4,334.8z"/>
				<path id="Path_591" class="st13" d="M394.7,338.6l3.4,12.1l30.3-15.6L425,323L394.7,338.6z"/>
				<path id="Path_592" class="st8" d="M394.7,324.2v14.5l-7.3-3.8v-14.5L394.7,324.2z"/>
				<path id="Path_593" class="st10" d="M387.4,320.4l7.3,3.8l30.3-15.6l-7.3-3.8L387.4,320.4z"/>
				<path id="Path_594" class="st14" d="M394.7,324.2v14.5l30.3-15.6v-14.5L394.7,324.2z"/>
				<path id="Path_595" class="st8" d="M364.8,368v3.1l-15.3-7.9V360L364.8,368z"/>
				<path id="Path_596" class="st11" d="M349.5,360.1l15.3,7.9l30.3-15.6l-15.3-7.9L349.5,360.1z"/>
				<path id="Path_597" class="st1" d="M364.8,368v3.1l30.3-15.6v-3.1L364.8,368z"/>
				<path id="Path_598" class="st8" d="M361.4,355.9l3.4,12.1l-15.3-7.9l4.6-8L361.4,355.9z"/>
				<path id="Path_599" class="st12" d="M354.1,352.1l7.3,3.8l30.3-15.6l-7.3-3.8L354.1,352.1z"/>
				<path id="Path_600" class="st13" d="M361.4,355.9l3.4,12.1l30.3-15.6l-3.4-12.1L361.4,355.9z"/>
				<path id="Path_601" class="st8" d="M361.4,341.4v14.5l-7.3-3.8v-14.5L361.4,341.4z"/>
				<path id="Path_602" class="st10" d="M354.1,337.6l7.3,3.8l30.3-15.6l-7.3-3.8L354.1,337.6z"/>
				<path id="Path_603" class="st14" d="M361.4,341.4v14.5l30.3-15.6v-14.5L361.4,341.4z"/>
				<path id="Path_604" class="st8" d="M331.5,385.2v3.1l-15.3-7.9v-3.1L331.5,385.2z"/>
				<path id="Path_605" class="st11" d="M316.2,377.3l15.3,7.9l30.3-15.6l-15.3-7.9L316.2,377.3z"/>
				<path id="Path_606" class="st1" d="M331.5,385.2v3.1l30.3-15.6v-3.1L331.5,385.2z"/>
				<path id="Path_607" class="st8" d="M328.1,373.1l3.4,12.1l-15.3-7.9l4.6-8L328.1,373.1z"/>
				<path id="Path_608" class="st12" d="M320.8,369.3l7.3,3.8l30.3-15.6l-7.3-3.8L320.8,369.3z"/>
				<path id="Path_609" class="st13" d="M328.1,373.1l3.4,12.1l30.3-15.6l-3.4-12.1L328.1,373.1z"/>
				<path id="Path_610" class="st8" d="M328.1,358.6v14.5l-7.3-3.8v-14.5L328.1,358.6z"/>
				<path id="Path_611" class="st10" d="M320.8,354.8l7.3,3.8l30.3-15.6l-7.3-3.8L320.8,354.8z"/>
				<path id="Path_612" class="st14" d="M328.1,358.6v14.5l30.3-15.6V343L328.1,358.6z"/>
				<path id="Path_613" class="st8" d="M298.2,402.5v3.1l-15.3-7.9v-3.2L298.2,402.5z"/>
				<path id="Path_614" class="st11" d="M282.9,394.6l15.3,7.9l30.3-15.6l-15.3-7.9L282.9,394.6z"/>
				<path id="Path_615" class="st1" d="M298.2,402.5v3.1l30.3-15.7v-3.1L298.2,402.5z"/>
				<path id="Path_616" class="st8" d="M294.8,390.3l3.4,12.1l-15.3-7.9l4.6-8L294.8,390.3z"/>
				<path id="Path_617" class="st12" d="M287.5,386.5l7.3,3.8l30.3-15.6l-7.3-3.8L287.5,386.5z"/>
				<path id="Path_618" class="st13" d="M294.8,390.3l3.4,12.1l30.3-15.6l-3.4-12.1L294.8,390.3z"/>
				<path id="Path_619" class="st8" d="M294.8,375.9v14.4l-7.3-3.8V372L294.8,375.9z"/>
				<path id="Path_620" class="st10" d="M287.5,372.1l7.3,3.8l30.3-15.6l-7.3-3.8L287.5,372.1z"/>
				<path id="Path_621" class="st14" d="M294.8,375.9v14.4l30.3-15.6v-14.5L294.8,375.9z"/>
				<path id="Path_622" class="st8" d="M264.9,419.7v3.1l-15.3-7.9v-3.2L264.9,419.7z"/>
				<path id="Path_623" class="st11" d="M249.6,411.8l15.3,7.9l30.3-15.6l-15.3-7.9L249.6,411.8z"/>
				<path id="Path_624" class="st1" d="M264.9,419.7v3.1l30.3-15.6v-3.1L264.9,419.7z"/>
				<path id="Path_625" class="st8" d="M261.5,407.6l3.4,12.1l-15.3-7.9l4.6-8L261.5,407.6z"/>
				<path id="Path_626" class="st12" d="M254.2,403.8l7.3,3.8l30.3-15.6l-7.3-3.8L254.2,403.8z"/>
				<path id="Path_627" class="st13" d="M261.5,407.6l3.4,12.1l30.3-15.6l-3.4-12.1L261.5,407.6z"/>
				<path id="Path_628" class="st8" d="M261.5,393.1v14.5l-7.3-3.8v-14.5L261.5,393.1z"/>
				<path id="Path_629" class="st10" d="M254.2,389.3l7.3,3.8l30.3-15.6l-7.3-3.8L254.2,389.3z"/>
				<path id="Path_630" class="st14" d="M261.5,393.1v14.5l30.3-15.6v-14.5L261.5,393.1z"/>
				<path id="Path_631" class="st8" d="M231.6,436.9v3.1l-15.3-7.9v-3.2L231.6,436.9z"/>
				<path id="Path_632" class="st11" d="M216.3,429l15.3,7.9l30.3-15.6l-15.3-7.9L216.3,429z"/>
				<path id="Path_633" class="st1" d="M231.6,436.9v3.1l30.3-15.6v-3.1L231.6,436.9z"/>
				<path id="Path_634" class="st8" d="M228.2,424.8l3.4,12.1l-15.3-7.9l4.6-8L228.2,424.8z"/>
				<path id="Path_635" class="st12" d="M220.9,421l7.3,3.8l30.3-15.6l-7.3-3.8L220.9,421z"/>
				<path id="Path_636" class="st13" d="M228.2,424.8l3.4,12.1l30.3-15.6l-3.4-12.1L228.2,424.8z"/>
				<path id="Path_637" class="st8" d="M228.2,410.3v14.5l-7.3-3.8v-14.5L228.2,410.3z"/>
				<path id="Path_638" class="st10" d="M220.9,406.5l7.3,3.8l30.3-15.6l-7.3-3.8L220.9,406.5z"/>
				<path id="Path_639" class="st14" d="M228.2,410.3v14.5l30.3-15.6v-14.5L228.2,410.3z"/>
				<path id="Path_640" class="st10" d="M420.9,221.9l-5.9-3.1l-54.9,28.4l5.9,3.1L420.9,221.9z"/>
				<path id="Path_641" class="st10" d="M310.5,279.1l-5.9-3.1l-54.9,28.3l5.9,3.1L310.5,279.1z"/>
				<path id="Path_642" class="st10" d="M200.1,336.2l-5.9-3.1l-54.9,28.4l5.9,3.1L200.1,336.2z"/>
			</g>
		</g>
	</g>
</g>
</svg>
