<?xml version="1.0" encoding="utf-8"?>
<!-- Generator: Adobe Illustrator 25.0.1, SVG Export Plug-In . SVG Version: 6.00 Build 0)  -->
<svg version="1.1" id="Layer_1" xmlns="http://www.w3.org/2000/svg" xmlns:xlink="http://www.w3.org/1999/xlink" x="0px" y="0px"
	 viewBox="0 0 817 474.8" style="enable-background:new 0 0 817 474.8;" xml:space="preserve">
<style type="text/css">
	.st0{clip-path:url(#SVGID_2_);}
	.st1{fill:#B8BCFC;}
	.st2{fill:#647DA7;}
	.st3{fill:#F0E1FF;}
	.st4{fill:#455F80;}
	.st5{fill:#CBB9F9;}
	.st6{fill:#26232E;}
	.st7{fill:#544C66;}
	.st8{fill:#C9DAFC;}
	.st9{fill:#ABADBB;}
	.st10{fill:#878787;stroke:#888888;}
	.st11{fill:#ECF3FA;}
	.st12{fill:#FFFFFF;}
	.st13{fill:#3F3F3F;}
	.st14{fill:#CAA2FC;}
	.st15{fill:#3B313F;}
	.st16{fill:#474573;}
	.st17{fill:#4F4F7C;}
	.st18{fill:#ABB0D8;}
	.st19{fill:#2892E8;}
	.st20{fill:#196DD1;}
	.st21{fill:#524556;}
	.st22{fill:#E6E6E8;}
	.st23{fill:#FBB040;}
	.st24{fill:#115EAA;}
	.st25{fill:#FB6A57;}
	.st26{fill:#FC8B96;}
	.st27{fill:#F47178;}
	.st28{fill:#EE5F61;}
	.st29{fill:#3A3341;}
	.st30{fill:#FAF368;}
	.st31{fill:#F7AA67;}
	.st32{fill:#FCC377;}
	.st33{fill:#474F84;}
	.st34{fill:#4C4266;}
	.st35{fill:none;stroke:#231F20;stroke-miterlimit:10;}
	.st36{filter:url(#Path_549);}
	.st37{fill:#FBF9FF;}
	.st38{fill:#A2A4ED;}
</style>
<filter  filterUnits="userSpaceOnUse" height="185.855" id="Path_549" width="339.581" x="385.062" y="29.709">
	<feOffset  dy="3" input="SourceAlpha"></feOffset>
	<feGaussianBlur  result="blur" stdDeviation="3"></feGaussianBlur>
	<feFlood  flood-opacity="0.161"></feFlood>
	<feComposite  in2="blur" operator="in"></feComposite>
	<feComposite  in="SourceGraphic" operator="over"></feComposite>
</filter>
<g id="Group_124" transform="translate(0 0.001)">
	<g>
		<defs>
			<polyline id="SVGID_1_" points="0,0 817,0 817,474.8 0,474.8 			"/>
		</defs>
		<clipPath id="SVGID_2_">
			<use xlink:href="#SVGID_1_"  style="overflow:visible;"/>
		</clipPath>
		<g id="Group_123" transform="translate(0 -0.001)" class="st0">
			<path id="Path_245_2_" class="st1" d="M410.8,80.1v-1.5"/>
			<path id="Path_247_1_" class="st1" d="M410.8,86.1v-1.5"/>
			<path id="Path_263" class="st2" d="M371.4,204.2v3.2L335.9,189v-3.2L371.4,204.2z"/>
			<path id="Path_264" class="st3" d="M335.9,185.8l35.6,18.4l130.3-67.5l-35.6-18.4L335.9,185.8z"/>
			<path id="Path_265" class="st4" d="M371.4,204.2v3.2L501.7,140v-3.2L371.4,204.2z"/>
			<path id="Path_266" class="st5" d="M270.8,463.7v3.2L817,184.2v-3.3L270.8,463.7z"/>
			<path id="Path_267" class="st6" d="M817,180.9L270.8,463.7L70.3,360.2L616.5,77.4L817,180.9z"/>
			<path id="Path_268" class="st5" d="M270.8,463.7v3.2L70.3,363.3v-3.2L270.8,463.7z"/>
			<path id="Path_269" class="st7" d="M606.3,325.8v3.2l-34.5-17.9v-3.2L606.3,325.8z"/>
			<path id="Path_270" class="st3" d="M571.7,307.9l34.5,17.9l130.3-67.5L702,240.4L571.7,307.9z"/>
			<path id="Path_271" class="st7" d="M606.3,325.8v3.2l130.3-67.5v-3.2L606.3,325.8z"/>
			<path id="Path_272" class="st8" d="M395.3,164.9c0.4-0.3,0.8-0.6,1.2-0.8l63.6-32.9c3.3-1.7,7.3-1.7,10.6,0l12.2,6.3h5.4v4.3
				c0,1.5-0.9,2.8-2.2,3.5l-63.4,32.8c-4.5,2.3-9.9,2.3-14.4,0l-11.8-6.1c-1.7-0.8-2.7-2.5-2.8-4.3l0,0v-4.4L395.3,164.9z"/>
			<path id="Path_273" class="st1" d="M486,140.9L423.9,173v4.3l62.1-32.1c1.3-0.6,2.2-2,2.2-3.5v-4.2
				C488.2,138.9,487.3,140.2,486,140.9"/>
			<path id="Path_274" class="st9" d="M393.7,163.2C393.7,163.2,393.7,163.2,393.7,163.2L393.7,163.2L393.7,163.2z"/>
			<path id="Path_275" class="st10" d="M396.5,158.9L460,126c3.3-1.7,7.3-1.7,10.6,0l15.4,7.9c1.9,0.9,2.8,3.1,1.9,5
				c-0.4,0.8-1.1,1.5-1.9,1.9l-63.4,32.8c-4.5,2.3-9.9,2.3-14.4,0l-11.8-6.1c-2.4-1.1-3.4-3.9-2.4-6.3
				C394.6,160.2,395.4,159.4,396.5,158.9"/>
			<path id="Path_276" class="st1" d="M411.9,175v4.3c2.5,0.6,5,0.5,7.5-0.1v-4.3C416.9,175.5,414.3,175.5,411.9,175"/>
			<path id="Path_277" class="st8" d="M504.5,221.4c0.4-0.3,0.8-0.6,1.2-0.8l63.6-32.9c3.3-1.7,7.3-1.7,10.6,0l12.2,6.3h5.4v4.3
				c0,1.5-0.9,2.8-2.2,3.5l-63.4,32.8c-4.5,2.3-9.9,2.3-14.4,0l-11.8-6.1c-1.7-0.8-2.7-2.5-2.8-4.3l0,0v-4.4L504.5,221.4z"/>
			<path id="Path_278" class="st1" d="M595.3,197.4l-62.1,32.1v4.3l62.1-32.1c1.3-0.6,2.2-2,2.2-3.5V194
				C597.5,195.5,596.6,196.8,595.3,197.4"/>
			<path id="Path_279" class="st9" d="M503,219.8C503,219.8,503,219.8,503,219.8L503,219.8L503,219.8z"/>
			<path id="Path_280" class="st10" d="M505.7,215.5l63.6-32.9c3.3-1.7,7.3-1.7,10.6,0l15.4,7.9c1.9,0.9,2.8,3.1,1.9,5
				c-0.4,0.8-1.1,1.5-1.9,1.9l-63.4,32.8c-4.5,2.3-9.9,2.3-14.4,0l-11.8-6.1c-2.4-1.1-3.4-3.9-2.4-6.3
				C503.9,216.8,504.7,216,505.7,215.5"/>
			<path id="Path_281" class="st1" d="M521.1,231.5v4.3c2.5,0.6,5,0.5,7.5-0.1v-4.3C526.1,232.1,523.6,232.1,521.1,231.5"/>
			<path id="Path_282" class="st8" d="M622.7,282.6c0.4-0.3,0.8-0.6,1.2-0.8l63.6-32.9c3.3-1.7,7.3-1.7,10.6,0l12.2,6.3h5.4v4.3
				c0,1.5-0.9,2.8-2.2,3.5L650,295.7c-4.5,2.3-9.9,2.3-14.4,0l-11.8-6.1c-1.7-0.8-2.7-2.5-2.8-4.3l0,0v-4.4L622.7,282.6z"/>
			<path id="Path_283" class="st1" d="M713.4,258.6l-62.1,32.1v4.3l62.1-32.1c1.3-0.6,2.2-2,2.2-3.5v-4.2
				C715.6,256.6,714.7,257.9,713.4,258.6"/>
			<path id="Path_284" class="st9" d="M621.1,280.9C621.1,280.9,621.1,281,621.1,280.9L621.1,280.9L621.1,280.9z"/>
			<path id="Path_285" class="st10" d="M623.9,276.6l63.6-32.9c3.3-1.7,7.3-1.7,10.6,0l15.4,7.9c1.9,0.9,2.8,3.1,1.9,5
				c-0.4,0.8-1.1,1.5-1.9,1.9L650,291.4c-4.5,2.3-9.9,2.3-14.4,0l-11.8-6.1c-2.4-1.1-3.4-3.9-2.4-6.3
				C622,278,622.8,277.1,623.9,276.6"/>
			<path id="Path_286" class="st1" d="M639.3,292.7v4.3c2.5,0.6,5,0.5,7.5-0.1v-4.3C644.3,293.2,641.7,293.3,639.3,292.7"/>
			<path id="Path_287" class="st8" d="M336.7,222.3v3.1l-15.3-7.9v-3.2L336.7,222.3z"/>
			<path id="Path_288" class="st11" d="M321.4,214.4l15.3,7.9l30.3-15.6l-15.3-7.9L321.4,214.4z"/>
			<path id="Path_289" class="st1" d="M336.7,222.3v3.1l30.3-15.6v-3.1L336.7,222.3z"/>
			<path id="Path_290" class="st8" d="M333.3,210.2l3.4,12.1l-15.3-7.9l4.6-8L333.3,210.2z"/>
			<path id="Path_291" class="st12" d="M326,206.4l7.3,3.8l30.3-15.6l-7.3-3.8L326,206.4z"/>
			<path id="Path_292" class="st13" d="M333.3,210.2l3.4,12.1l30.3-15.6l-3.4-12.1L333.3,210.2z"/>
			<path id="Path_293" class="st8" d="M333.3,195.7v14.5l-7.3-3.8v-14.5L333.3,195.7z"/>
			<path id="Path_294" class="st10" d="M326,191.9l7.3,3.8l30.3-15.6l-7.3-3.8L326,191.9z"/>
			<path id="Path_295" class="st14" d="M333.3,195.7v14.5l30.3-15.6v-14.5L333.3,195.7z"/>
			<path id="Path_296" class="st8" d="M303.4,239.5v3.1l-15.3-7.9v-3.2L303.4,239.5z"/>
			<path id="Path_297" class="st11" d="M288.1,231.6l15.3,7.9l30.3-15.6l-15.3-7.9L288.1,231.6z"/>
			<path id="Path_298" class="st1" d="M303.4,239.5v3.1l30.3-15.6v-3.1L303.4,239.5z"/>
			<path id="Path_299" class="st8" d="M300,227.4l3.4,12.1l-15.3-7.9l4.6-8L300,227.4z"/>
			<path id="Path_300" class="st12" d="M292.7,223.6l7.3,3.8l30.3-15.6l-7.3-3.8L292.7,223.6z"/>
			<path id="Path_301" class="st13" d="M300,227.4l3.4,12.1l30.3-15.6l-3.4-12.1L300,227.4z"/>
			<path id="Path_302" class="st8" d="M300,212.9v14.5l-7.3-3.8v-14.5L300,212.9z"/>
			<path id="Path_303" class="st10" d="M292.7,209.1l7.3,3.8l30.3-15.6l-7.3-3.8L292.7,209.1z"/>
			<path id="Path_304" class="st14" d="M300,212.9v14.5l30.3-15.6v-14.5L300,212.9z"/>
			<path id="Path_305" class="st8" d="M270.1,256.8v3.1l-15.3-7.9v-3.2L270.1,256.8z"/>
			<path id="Path_306" class="st11" d="M254.8,248.9l15.3,7.9l30.3-15.6l-15.3-7.9L254.8,248.9z"/>
			<path id="Path_307" class="st1" d="M270.1,256.8v3.1l30.3-15.6v-3.1L270.1,256.8z"/>
			<path id="Path_308" class="st8" d="M266.7,244.6l3.4,12.1l-15.3-7.9l4.6-8L266.7,244.6z"/>
			<path id="Path_309" class="st12" d="M259.4,240.8l7.3,3.8L297,229l-7.3-3.8L259.4,240.8z"/>
			<path id="Path_310" class="st13" d="M266.7,244.6l3.4,12.1l30.3-15.6L297,229L266.7,244.6z"/>
			<path id="Path_311" class="st8" d="M266.7,230.2v14.5l-7.3-3.8v-14.5L266.7,230.2z"/>
			<path id="Path_312" class="st10" d="M259.4,226.4l7.3,3.8l30.3-15.6l-7.3-3.8L259.4,226.4z"/>
			<path id="Path_313" class="st14" d="M266.7,230.2v14.5L297,229v-14.5L266.7,230.2z"/>
			<path id="Path_314" class="st8" d="M236.8,274v3.1l-15.3-7.9v-3.2L236.8,274z"/>
			<path id="Path_315" class="st11" d="M221.5,266.1l15.3,7.9l30.3-15.6l-15.3-7.9L221.5,266.1z"/>
			<path id="Path_316" class="st1" d="M236.8,274v3.1l30.3-15.6v-3.1L236.8,274z"/>
			<path id="Path_317" class="st8" d="M233.4,261.9l3.4,12.1l-15.3-7.9l4.6-8L233.4,261.9z"/>
			<path id="Path_318" class="st12" d="M226.1,258.1l7.3,3.8l30.3-15.6l-7.3-3.8L226.1,258.1z"/>
			<path id="Path_319" class="st13" d="M233.4,261.9l3.4,12.1l30.3-15.6l-3.4-12.1L233.4,261.9z"/>
			<path id="Path_320" class="st8" d="M233.4,247.4v14.5l-7.3-3.8v-14.5L233.4,247.4z"/>
			<path id="Path_321" class="st10" d="M226.1,243.6l7.3,3.8l30.3-15.6l-7.3-3.8L226.1,243.6z"/>
			<path id="Path_322" class="st14" d="M233.4,247.4v14.5l30.3-15.6v-14.5L233.4,247.4z"/>
			<path id="Path_323" class="st8" d="M203.5,291.2v3.1l-15.3-7.9v-3.2L203.5,291.2z"/>
			<path id="Path_324" class="st11" d="M188.2,283.3l15.3,7.9l30.3-15.6l-15.3-7.9L188.2,283.3z"/>
			<path id="Path_325" class="st1" d="M203.5,291.2v3.1l30.3-15.6v-3.1L203.5,291.2z"/>
			<path id="Path_326" class="st8" d="M200.1,279.1l3.4,12.1l-15.3-7.9l4.6-8L200.1,279.1z"/>
			<path id="Path_327" class="st12" d="M192.8,275.3l7.3,3.8l30.3-15.6l-7.3-3.8L192.8,275.3z"/>
			<path id="Path_328" class="st13" d="M200.1,279.1l3.4,12.1l30.3-15.6l-3.4-12.1L200.1,279.1z"/>
			<path id="Path_329" class="st8" d="M200.1,264.6v14.5l-7.3-3.8v-14.5L200.1,264.6z"/>
			<path id="Path_330" class="st10" d="M192.8,260.8l7.3,3.8l30.3-15.6l-7.3-3.8L192.8,260.8z"/>
			<path id="Path_331" class="st14" d="M200.1,264.6v14.5l30.3-15.6V249L200.1,264.6z"/>
			<path id="Path_332" class="st8" d="M170.2,308.5v3.1l-15.3-7.9v-3.2L170.2,308.5z"/>
			<path id="Path_333" class="st11" d="M154.9,300.6l15.3,7.9l30.3-15.6l-15.3-7.9L154.9,300.6z"/>
			<path id="Path_334" class="st1" d="M170.2,308.5v3.1l30.3-15.6v-3.1L170.2,308.5z"/>
			<path id="Path_335" class="st8" d="M166.8,296.3l3.4,12.1l-15.3-7.9l4.6-8L166.8,296.3z"/>
			<path id="Path_336" class="st12" d="M159.5,292.5l7.3,3.8l30.3-15.6l-7.3-3.8L159.5,292.5z"/>
			<path id="Path_337" class="st13" d="M166.8,296.3l3.4,12.1l30.3-15.6l-3.4-12.1L166.8,296.3z"/>
			<path id="Path_338" class="st8" d="M166.8,281.9v14.5l-7.3-3.8v-14.5L166.8,281.9z"/>
			<path id="Path_339" class="st10" d="M159.5,278.1l7.3,3.8l30.3-15.6l-7.3-3.8L159.5,278.1z"/>
			<path id="Path_340" class="st14" d="M166.8,281.9v14.5l30.3-15.6v-14.5L166.8,281.9z"/>
			<path id="Path_341" class="st8" d="M136.9,325.7v3.1l-15.3-7.9v-3.2L136.9,325.7z"/>
			<path id="Path_342" class="st11" d="M121.6,317.8l15.3,7.9l30.3-15.6l-15.3-7.9L121.6,317.8z"/>
			<path id="Path_343" class="st1" d="M136.9,325.7v3.1l30.3-15.6v-3.1L136.9,325.7z"/>
			<path id="Path_344" class="st8" d="M133.5,313.6l3.4,12.1l-15.3-7.9l4.6-8L133.5,313.6z"/>
			<path id="Path_345" class="st12" d="M126.2,309.8l7.3,3.8l30.3-15.6l-7.3-3.8L126.2,309.8z"/>
			<path id="Path_346" class="st13" d="M133.5,313.6l3.4,12.1l30.3-15.6l-3.4-12.1L133.5,313.6z"/>
			<path id="Path_347" class="st8" d="M133.5,299.1v14.5l-7.3-3.8v-14.5L133.5,299.1z"/>
			<path id="Path_348" class="st10" d="M126.2,295.3l7.3,3.8l30.3-15.6l-7.3-3.8L126.2,295.3z"/>
			<path id="Path_349" class="st14" d="M133.5,299.1v14.5l30.3-15.6v-14.5L133.5,299.1z"/>
			<path id="Path_350" class="st8" d="M103.6,342.9v3.1l-15.3-7.9V335L103.6,342.9z"/>
			<path id="Path_351" class="st11" d="M88.3,335l15.3,7.9l30.3-15.6l-15.3-7.9L88.3,335z"/>
			<path id="Path_352" class="st1" d="M103.6,342.9v3.1l30.3-15.6v-3.1L103.6,342.9z"/>
			<path id="Path_353" class="st8" d="M100.2,330.8l3.4,12.1L88.3,335l4.6-8L100.2,330.8z"/>
			<path id="Path_354" class="st12" d="M92.9,327l7.3,3.8l30.3-15.6l-7.3-3.8L92.9,327z"/>
			<path id="Path_355" class="st13" d="M100.2,330.8l3.4,12.1l30.3-15.6l-3.4-12.1L100.2,330.8z"/>
			<path id="Path_356" class="st8" d="M100.2,316.3v14.5l-7.3-3.8v-14.5L100.2,316.3z"/>
			<path id="Path_357" class="st10" d="M92.9,312.5l7.3,3.8l30.3-15.6l-7.3-3.8L92.9,312.5z"/>
			<path id="Path_358" class="st14" d="M100.2,316.3v14.5l30.3-15.6v-14.5L100.2,316.3z"/>
			<path id="Path_359" class="st8" d="M70.3,360.2v3.1L55,355.4v-3.2L70.3,360.2z"/>
			<path id="Path_360" class="st11" d="M55,352.3l15.3,7.9l30.3-15.6l-15.3-7.9L55,352.3z"/>
			<path id="Path_361" class="st5" d="M70.3,360.2v3.1l30.3-15.6v-3.1L70.3,360.2z"/>
			<path id="Path_362" class="st8" d="M66.9,348l3.4,12.1L55,352.3l4.6-8L66.9,348z"/>
			<path id="Path_363" class="st12" d="M59.6,344.2l7.3,3.8l30.3-15.6l-7.3-3.8L59.6,344.2z"/>
			<path id="Path_364" class="st13" d="M66.9,348l3.4,12.1l30.3-15.6l-3.4-12.1L66.9,348z"/>
			<path id="Path_365" class="st8" d="M66.9,333.6V348l-7.3-3.8v-14.5L66.9,333.6z"/>
			<path id="Path_366" class="st10" d="M59.6,329.8l7.3,3.8l30.3-15.6l-7.3-3.8L59.6,329.8z"/>
			<path id="Path_367" class="st14" d="M66.9,333.6V348l30.3-15.6v-14.5L66.9,333.6z"/>
			<path id="Path_368" class="st5" d="M375.3,214.9l-3.8-10.7l0,0L70.3,360.2l12.8,6.6L375.3,214.9z"/>
			<path id="Path_369" class="st15" d="M713.5,204.7c0,0-8.8,0.2-8.9,0s-2.3-8.9-2.3-8.9l14.7-0.4L713.5,204.7z"/>
			<path id="Path_370" class="st15" d="M630.8,249.6l-10.2-0.3c0,0,2.9-10.9,3.1-10.9s4.8,0.2,4.8,0.2l4.7,6L630.8,249.6z"/>
			<path id="Path_371" class="st16" d="M611.9,265.1L611.9,265.1c-0.2-0.1-0.2-0.2-0.3-0.2l0,0c-0.1-0.1-0.2-0.2-0.2-0.2l-0.1-0.1
				c-0.1-0.1-0.1-0.1-0.2-0.2c0,0,0-0.1-0.1-0.1c-0.1-0.1-0.1-0.1-0.2-0.2l0-0.1c-0.1-0.1-0.1-0.2-0.2-0.3c-0.1-0.1-0.1-0.2-0.2-0.3
				l0-0.1c0-0.1-0.1-0.2-0.1-0.3l0-0.1c0-0.1,0-0.1-0.1-0.2c0-0.1-0.1-0.2-0.1-0.3c0-0.1,0-0.1-0.1-0.2c0-0.1,0-0.2-0.1-0.2
				s0-0.1-0.1-0.2s0-0.1,0-0.2s0-0.2,0-0.2c0-0.1,0-0.1,0-0.2c0-0.1,0-0.2,0-0.3c0-0.1,0-0.1,0-0.2c0-0.1,0-0.2,0-0.3
				c0,0,0-0.1,0-0.1c0-0.2,0-0.3,0-0.5s0-0.3,0-0.5c0-0.1,0-0.1,0-0.2c0-0.1,0-0.2,0-0.3c0-0.1,0-0.1,0-0.2c0-0.1,0-0.2,0-0.4
				c0,0,0-0.1,0-0.1c0-0.2,0.1-0.3,0.1-0.5l0-0.1c0-0.1,0.1-0.3,0.1-0.4c0-0.1,0-0.1,0-0.2c0-0.1,0.1-0.2,0.1-0.3
				c0-0.1,0-0.1,0.1-0.2c0-0.1,0.1-0.2,0.1-0.3c0-0.1,0-0.1,0.1-0.2c0-0.1,0.1-0.2,0.1-0.4c0-0.1,0-0.1,0.1-0.2
				c0.1-0.2,0.1-0.3,0.2-0.5c0,0,0,0,0,0c0.1-0.2,0.1-0.3,0.2-0.5c0-0.1,0-0.1,0.1-0.2c0.1-0.1,0.1-0.2,0.2-0.4
				c0-0.1,0.1-0.1,0.1-0.2c0.1-0.1,0.1-0.2,0.2-0.4c0,0,0-0.1,0.1-0.1c0.1-0.2,0.2-0.3,0.3-0.5c0,0,0-0.1,0.1-0.1
				c0.1-0.1,0.1-0.3,0.2-0.4c0.1-0.1,0.1-0.2,0.2-0.3s0.1-0.2,0.2-0.3c0.1-0.2,0.3-0.5,0.4-0.7c0.1-0.1,0.1-0.2,0.2-0.2
				c0.1-0.1,0.1-0.2,0.2-0.3s0.1-0.2,0.2-0.2s0.1-0.2,0.2-0.3l0.1-0.2c0.2-0.2,0.4-0.5,0.6-0.7l0,0c0.1-0.2,0.3-0.3,0.4-0.5
				c0.1-0.1,0.2-0.3,0.3-0.4l0.1-0.1c0.1-0.1,0.3-0.3,0.4-0.4l0.1-0.1c0.1-0.1,0.2-0.2,0.3-0.3c0.1-0.1,0.1-0.1,0.2-0.2
				c0.1-0.1,0.2-0.2,0.3-0.2l0.2-0.2c0.1-0.1,0.2-0.1,0.3-0.2l0.2-0.2c0.1-0.1,0.2-0.1,0.3-0.2l0.2-0.2c0.1-0.1,0.2-0.1,0.3-0.2
				l0.2-0.1c0.1-0.1,0.2-0.1,0.3-0.2l0.2-0.1c0.1-0.1,0.2-0.1,0.3-0.2l0.2-0.1c0.2-0.1,0.3-0.2,0.5-0.3l0,0c0.2-0.1,0.3-0.2,0.5-0.3
				c0.1-0.1,0.3-0.1,0.4-0.2l0.2-0.1c0.1-0.1,0.2-0.1,0.3-0.1l0.1-0.1c0.2-0.1,0.3-0.1,0.5-0.2s0.3-0.1,0.5-0.2l0.1,0
				c0.1,0,0.2-0.1,0.3-0.1c0.1,0,0.1,0,0.2,0c0.1,0,0.2,0,0.3-0.1l0.2,0c0.1,0,0.2,0,0.3,0c0.1,0,0.1,0,0.2,0s0.2,0,0.2,0
				s0.1,0,0.2,0s0.1,0,0.2,0c0.1,0,0.2,0,0.3,0c0.1,0,0.2,0,0.3,0h0c0.1,0,0.2,0,0.3,0l0.1,0c0.1,0,0.2,0,0.4,0.1c0,0,0.1,0,0.1,0
				c0.1,0,0.2,0,0.3,0.1c0,0,0.1,0,0.1,0c0.1,0,0.1,0,0.2,0.1c0.1,0,0.2,0.1,0.3,0.1c0,0,0.1,0,0.1,0c0.1,0.1,0.3,0.1,0.4,0.2
				l-6.9-3.6c-0.1-0.1-0.2-0.1-0.4-0.2c0,0-0.1,0-0.1,0c-1.5-0.5-3-0.5-4.5,0c-1.4,0.4-2.8,1.1-4,2l-0.1,0.1l-0.2,0.1
				c-4.3,3.2-7.4,8.2-7.8,13.2c-0.2,1.8,0.2,3.6,1.1,5.2l0,0l0,0.1c0.1,0.1,0.1,0.1,0.2,0.2l0.1,0.1c0.1,0.1,0.1,0.1,0.2,0.2
				c0,0,0,0,0.1,0.1c0.1,0.1,0.2,0.2,0.2,0.2l0,0c0.1,0.1,0.2,0.1,0.2,0.2l0.1,0.1c0.1,0,0.1,0.1,0.2,0.1l0.1,0.1
				c0.1,0.1,0.2,0.1,0.3,0.2l6.9,3.6c-0.1-0.1-0.2-0.1-0.3-0.2c0,0-0.1,0-0.1-0.1C612,265.2,612,265.2,611.9,265.1"/>
			<path id="Path_372" class="st17" d="M619.6,244.2c-5.6,2.9-10,9.8-10,15.5c0,5.7,4.5,8,10.1,5.1s10-9.8,10-15.5
				S625.1,241.3,619.6,244.2"/>
			<path id="Path_373" class="st18" d="M619.6,247.2c-3.9,2-7.1,7-7.1,11s3.2,5.7,7.1,3.6s7.1-7,7.1-11S623.5,245.2,619.6,247.2"/>
			<path id="Path_374" class="st16" d="M619.6,249.6c-2.7,1.5-4.5,4.3-4.8,7.4c0,2.7,2.2,3.8,4.8,2.4c2.7-1.5,4.5-4.3,4.8-7.4
				C624.4,249.3,622.2,248.2,619.6,249.6"/>
			<path id="Path_375" class="st18" d="M619.6,250.7c-2.1,1.2-3.5,3.3-3.7,5.7c0,2.1,1.7,2.9,3.7,1.9c2.1-1.2,3.5-3.3,3.7-5.7
				C623.3,250.5,621.6,249.7,619.6,250.7"/>
			<path id="Path_376" class="st18" d="M624.6,252.3v-0.7l-4.1,2.1l2.9-4.5l-0.5-0.3l-2.9,4.5l0-4.3l-0.7,0.4l0,4.3l-2.9-1.5
				l-0.5,0.8l2.9,1.5l-4.1,2.1v0.7l4.1-2.1l-2.9,4.5l0.5,0.3l2.9-4.5l0,4.3l0.7-0.4l0-4.3l2.9,1.5l0.5-0.8l-2.9-1.5L624.6,252.3z"/>
			<path id="Path_377" class="st16" d="M619.6,253.1c-0.8,0.4-1.3,1.2-1.4,2.1c0,0.8,0.6,1.1,1.4,0.7c0.8-0.4,1.3-1.2,1.4-2.1
				C621,253,620.4,252.7,619.6,253.1"/>
			<path id="Path_378" class="st19" d="M687.9,164.9c-1.2-0.1-2.4,0-3.6,0.2l-10.1,2.7c-20.8,1.1-39.3,9.9-39.3,9.9
				c-18.5,8.8-24.8,13.7-24.8,13.7l-12.8,12.6l-4.3,4.3l1.3,10.6l29.7,11.4l10.9-3.2l76.9-40.8l5.8-5.2
				C711,169.3,691.9,165.6,687.9,164.9"/>
			<path id="Path_379" class="st19" d="M634.9,227.3c0,0-10.1,3.3-28.2-5.8c0,0-16.8-9.6-9.4-17.3c0,0-24.8,13.7-33,23.1l1.9,9.3
				l10,8.1l11.9,4.9l16.4-1.1L634.9,227.3z"/>
			<path id="Path_380" class="st16" d="M695.5,223L695.5,223c-0.2-0.1-0.2-0.2-0.3-0.2l0,0c-0.1-0.1-0.2-0.2-0.3-0.2l-0.1-0.1
				c-0.1-0.1-0.1-0.1-0.2-0.2c0,0,0-0.1-0.1-0.1c-0.1-0.1-0.1-0.1-0.2-0.2l0-0.1c-0.1-0.1-0.1-0.2-0.2-0.3s-0.1-0.2-0.2-0.3l0-0.1
				c0-0.1-0.1-0.2-0.1-0.3l0-0.1c0-0.1,0-0.1-0.1-0.2c0-0.1-0.1-0.2-0.1-0.3c0-0.1,0-0.1-0.1-0.2c0-0.1,0-0.2-0.1-0.2s0-0.1-0.1-0.2
				s0-0.1,0-0.2s0-0.2,0-0.2c0-0.1,0-0.1,0-0.2c0-0.1,0-0.2,0-0.3c0-0.1,0-0.1,0-0.2c0-0.1,0-0.2,0-0.3c0,0,0-0.1,0-0.1
				c0-0.2,0-0.3,0-0.5s0-0.3,0-0.5c0-0.1,0-0.1,0-0.2c0-0.1,0-0.2,0-0.3c0-0.1,0-0.1,0-0.2c0-0.1,0-0.2,0-0.4c0,0,0-0.1,0-0.1
				c0-0.2,0-0.3,0.1-0.5l0-0.1c0-0.1,0.1-0.3,0.1-0.4c0-0.1,0-0.1,0-0.2c0-0.1,0.1-0.2,0.1-0.3c0-0.1,0-0.1,0.1-0.2
				c0-0.1,0.1-0.2,0.1-0.3c0-0.1,0-0.1,0.1-0.2c0-0.1,0.1-0.2,0.1-0.4c0-0.1,0-0.1,0.1-0.2c0.1-0.2,0.1-0.3,0.2-0.5l0,0
				c0.1-0.2,0.1-0.3,0.2-0.5c0-0.1,0-0.1,0.1-0.2c0.1-0.1,0.1-0.2,0.2-0.4c0-0.1,0.1-0.1,0.1-0.2c0.1-0.1,0.1-0.2,0.2-0.4
				c0,0,0-0.1,0.1-0.1c0.1-0.2,0.2-0.3,0.3-0.5l0.1-0.1c0.1-0.1,0.1-0.3,0.2-0.4c0.1-0.1,0.1-0.2,0.2-0.3s0.1-0.2,0.2-0.3
				c0.1-0.2,0.3-0.5,0.4-0.7c0.1-0.1,0.1-0.2,0.2-0.2c0.1-0.1,0.1-0.2,0.2-0.3c0.1-0.1,0.1-0.2,0.2-0.2s0.1-0.2,0.2-0.3l0.1-0.2
				c0.2-0.2,0.4-0.5,0.6-0.7l0,0c0.1-0.2,0.3-0.3,0.4-0.5c0.1-0.1,0.2-0.3,0.3-0.4l0.1-0.1c0.1-0.1,0.3-0.3,0.4-0.4l0.1-0.1
				c0.1-0.1,0.2-0.2,0.3-0.3l0.2-0.2c0.1-0.1,0.2-0.2,0.3-0.2l0.2-0.2c0.1-0.1,0.2-0.1,0.3-0.2l0.2-0.2c0.1-0.1,0.2-0.1,0.3-0.2
				c0.1-0.1,0.1-0.1,0.2-0.2c0.1-0.1,0.2-0.1,0.3-0.2c0.1-0.1,0.1-0.1,0.2-0.1c0.1-0.1,0.2-0.1,0.3-0.2l0.2-0.1
				c0.1-0.1,0.2-0.1,0.3-0.2l0.2-0.1c0.2-0.1,0.3-0.2,0.5-0.3l0,0c0.2-0.1,0.3-0.2,0.5-0.3c0.1-0.1,0.3-0.1,0.4-0.2l0.2-0.1
				c0.1,0,0.2-0.1,0.3-0.1c0,0,0.1,0,0.1-0.1c0.2-0.1,0.3-0.1,0.5-0.2s0.3-0.1,0.5-0.2l0.1,0c0.1,0,0.2-0.1,0.3-0.1
				c0.1,0,0.1,0,0.2,0c0.1,0,0.2,0,0.3-0.1l0.2,0c0.1,0,0.2,0,0.3,0c0.1,0,0.1,0,0.2,0s0.2,0,0.2,0s0.1,0,0.2,0s0.1,0,0.2,0
				c0.1,0,0.2,0,0.3,0c0.1,0,0.2,0,0.3,0h0c0.1,0,0.2,0,0.3,0l0.1,0c0.1,0,0.2,0,0.4,0.1c0,0,0.1,0,0.1,0c0.1,0,0.2,0,0.3,0.1
				c0,0,0.1,0,0.1,0c0.1,0,0.1,0,0.2,0.1c0.1,0,0.2,0.1,0.3,0.1c0,0,0.1,0,0.1,0c0.1,0.1,0.3,0.1,0.4,0.2l-6.9-3.6
				c-0.1-0.1-0.2-0.1-0.4-0.2c0,0-0.1,0-0.1,0c-1.5-0.5-3-0.5-4.5,0c-1.4,0.4-2.8,1.1-4,2c0,0-0.1,0.1-0.1,0.1l-0.2,0.1
				c-4.3,3.2-7.4,8.2-7.8,13.2c-0.2,1.8,0.2,3.6,1.1,5.2l0,0l0,0.1c0.1,0.1,0.1,0.1,0.2,0.2c0,0,0,0.1,0.1,0.1
				c0.1,0.1,0.1,0.1,0.2,0.2c0,0,0,0,0.1,0.1c0.1,0.1,0.2,0.2,0.3,0.2c0,0,0,0,0,0c0.1,0.1,0.2,0.1,0.2,0.2c0,0,0.1,0,0.1,0.1
				c0.1,0,0.1,0.1,0.2,0.1c0,0,0.1,0,0.1,0.1c0.1,0.1,0.2,0.1,0.3,0.2l6.9,3.6c-0.1-0.1-0.2-0.1-0.3-0.2l-0.1-0.1
				C695.7,223.1,695.6,223,695.5,223"/>
			<path id="Path_381" class="st17" d="M703.2,202c-5.6,2.9-10,9.8-10,15.5s4.5,8,10.1,5.1s10-9.8,10-15.5S708.8,199.2,703.2,202"/>
			<path id="Path_382" class="st18" d="M703.2,205.1c-3.9,2-7.1,7-7.1,11s3.2,5.7,7.1,3.6s7.1-7,7.1-11S707.2,203,703.2,205.1"/>
			<path id="Path_383" class="st16" d="M703.2,207.5c-2.7,1.5-4.5,4.3-4.8,7.4c0,2.7,2.2,3.8,4.8,2.4c2.7-1.5,4.5-4.3,4.8-7.4
				C708,207.2,705.9,206.1,703.2,207.5"/>
			<path id="Path_384" class="st18" d="M703.2,208.6c-2.1,1.2-3.5,3.3-3.7,5.7c0,2.1,1.7,2.9,3.7,1.9c2.1-1.2,3.5-3.3,3.7-5.7
				C706.9,208.4,705.3,207.6,703.2,208.6"/>
			<path id="Path_385" class="st18" d="M708.3,210.2v-0.7l-4.1,2.1l2.9-4.5l-0.5-0.3l-2.9,4.5l0-4.3l-0.7,0.4l0,4.3l-2.9-1.5
				l-0.5,0.8l2.9,1.5l-4.1,2.1v0.7l4.1-2.1l-2.9,4.5l0.5,0.3l2.9-4.5l0,4.3l0.7-0.4l0-4.3l2.9,1.5l0.5-0.8l-2.9-1.5L708.3,210.2z"/>
			<path id="Path_386" class="st16" d="M703.3,211c-0.8,0.4-1.3,1.2-1.4,2.1c0,0.8,0.6,1.1,1.4,0.7c0.8-0.4,1.3-1.2,1.4-2.1
				C704.6,210.9,704,210.6,703.3,211"/>
			<path id="Path_387" class="st20" d="M721.8,189.6c-0.1-0.5-0.5-0.9-1-1l-0.6-0.1c-0.6-2.5-1.5-4.9-2.6-7.3l-9.8,4.4
				c-20.9,0.2-46.9,14.3-46.9,14.3c-4.4,2.3-9.8,5.2-13.3,7.1c-2.3,1.2-4.2,3.1-5.3,5.4l-7.4,14.8c-10.6,6.3-20.7,13.4-30.4,21
				c-6.9-1.5-15.5,0.2-15.5,0.2c-18.1-7.1-21.9-13.1-21.9-13.1c-0.7-2.8-1.7-5.6-2.9-8.3l-0.7,4.9c-1.7,1.5-1.2,5.5-1.2,5.5
				c0.3,2.2,1,4.4,2,6.3c0.9,1.7,2.1,3.3,3.6,4.6l2.3,2.1c1.9,1.8,4.1,3.2,6.4,4.3l11,4.5c13.9,4.6,18.2,2.1,18.2,2.1
				c0.8-0.4,1.5-1.1,1.8-2c1.9-12.5,11.4-16.7,11.4-16.7c11.7-4.5,11.8,6.6,11.8,6.6l2.4-1.6l52.8-27.2c1.8-0.6,3.5-1.2,5.2-2
				c2.5-15.8,14.6-19.4,14.6-19.4c7.1-0.9,7.8,5.3,7.8,5.3l8.3-8.6C722.1,194,722.1,191.8,721.8,189.6"/>
			<path id="Path_388" class="st21" d="M610,191.5c0,0,8.3,11.2,31.6,18.1l-9.2,16.6c0,0-14.2,0.2-26.4-7.4c0,0-14.1-8.2-8.8-14.6
				L610,191.5z"/>
			<path id="Path_389" class="st22" d="M602.7,253.5l1.7-5.2c-6.9-1.5-15.5,0.2-15.5,0.2l1.2,3.1L602.7,253.5z"/>
			<path id="Path_390" class="st22" d="M563.6,231.2l2.1,5.7l1.4-1.5c-0.7-2.8-1.7-5.6-2.9-8.3L563.6,231.2z"/>
			<path id="Path_391" class="st23" d="M600.8,251.8l-11-1.1l0.4,0.9l12.6,1.8l1.7-5.2c-0.5-0.1-1.1-0.2-1.7-0.3L600.8,251.8z"/>
			<path id="Path_392" class="st23" d="M564.2,231.3l0.6-2.6c-0.4-0.9-0.6-1.5-0.6-1.5l-0.6,4l2.1,5.7l0.3-0.4L564.2,231.3z"/>
			<path id="Path_393" class="st20" d="M606.6,221.3c0,0-9.3-4.9-11.6-10.6l-24.7,19.9c0.5,1.9,2.4,5.6,9.2,10.1
				c4.2,2.2,8.6,4,13.1,5.5l29.5-18.9C616.7,225.8,611.5,223.8,606.6,221.3"/>
			<path id="Path_394" class="st21" d="M686.9,186.9c0,0,10.5-3.1,19.1-2.5c0,0-12.3-15.4-31.9-16.5c-5.2,0.3-10.3,1-15.4,2.1
				C658.9,170,676.3,173.2,686.9,186.9"/>
			<path id="Path_395" class="st24" d="M602.7,253.5l-3.2,8.7c4.5,0.4,6.2-0.6,6.2-0.6c0.8-0.4,1.5-1.1,1.8-2
				c0.6-4.1,2.2-7.9,4.8-11.1L602.7,253.5z"/>
			<path id="Path_396" class="st24" d="M665,211.8V228l-26.5,13.7v-16.3l-1,0.9v17l28.4-14.7v-16.8L665,211.8z"/>
			<path id="Path_397" class="st21" d="M689.5,192.1l-0.2-0.7c-13,1.4-29.7,11.1-29.7,11.1c-4.2,2.2-2.9,1.4-11.9,6.4
				c-1.4,0.8-2.5,2-3.2,3.4l-7,13.9c21.8-10.7,48.3-25.1,48.3-25.1l2.4-2.9C689.6,196.4,690.1,194.2,689.5,192.1"/>
			<path id="Path_398" class="st15" d="M640.9,224.5v-4.9l-3.3,6.5C638.6,225.6,639.8,225.1,640.9,224.5"/>
			<path id="Path_399" class="st15" d="M689.5,192.1l-0.2-0.7c-1.8,0.2-3.6,0.5-5.4,1c0.6,1.4,1.2,4.3,0,9.7c1.2-0.7,1.9-1,1.9-1
				l2.4-2.9C689.6,196.4,690.1,194.2,689.5,192.1"/>
			<path id="Path_400" class="st15" d="M663.5,212.9c0.8-0.4,1.7-0.9,2.5-1.3l-0.2-12.4c-0.9,0.5-1.8,0.9-2.6,1.3L663.5,212.9z"/>
			<path id="Path_401" class="st24" d="M686,220.8c1.8-0.6,3.5-1.2,5.2-2c0.4-2.4,1-4.7,1.9-7l-63.7,33c0.9,1.5,1.3,3.1,1.4,4.8
				l2.4-1.6L686,220.8z"/>
			<path id="Path_402" class="st24" d="M712.3,201.8c0.6,0.9,1,1.8,1.1,2.9l6.7-6.9L712.3,201.8z"/>
			<path id="Path_403" class="st15" d="M610,191.5l-12.8,12.6c-5.3,6.4,8.8,14.6,8.8,14.6c11.5,7.2,24.8,7.4,26.3,7.4h0.1l9.2-16.6
				C618.3,202.7,610,191.5,610,191.5 M631.7,225.1c-3-0.1-14.8-0.8-25.1-7.2l0,0l0,0c-0.1,0-8.4-4.9-9.4-9.7
				c-0.3-1.2,0.1-2.4,0.9-3.4l11.8-11.7c1.9,2.1,4.1,4,6.4,5.7c7.2,5.1,15.2,9,23.7,11.4L631.7,225.1z"/>
			<path id="Path_404" class="st15" d="M674.2,167.8c-5.2,0.3-10.3,1-15.4,2.1c0,0,17.4,3.2,28.1,16.9c5.5-1.5,11.2-2.4,17-2.6
				c0.7,0,1.4,0,2.1,0.1C706.1,184.4,693.8,169,674.2,167.8 M687.3,185.9c-7.8-9.7-18.8-14.1-24.6-15.8c3.8-0.7,7.6-1.1,11.4-1.3
				c4.4,0.3,8.7,1.3,12.8,3c3.5,1.4,6.8,3.3,9.8,5.5c2.6,1.9,5,4,7.2,6.3h-0.1C698.3,183.6,692.7,184.4,687.3,185.9"/>
			<path id="Path_405" class="st15" d="M689.5,192.1l-0.2-0.7c-13,1.4-29.7,11.1-29.7,11.1c-4.2,2.2-2.9,1.4-11.9,6.4
				c-1.4,0.8-2.5,2-3.2,3.4l-7,13.9c21.8-10.7,48.3-25.1,48.3-25.1l2.4-2.9C689.6,196.4,690.1,194.2,689.5,192.1 M687.4,197.6
				l-2.3,2.8c-2.2,1.2-25.5,13.8-45.6,23.8l5.8-11.5c0.7-1.3,1.6-2.3,2.9-3c7.1-4,7.7-4.3,9.8-5.4c0.5-0.3,1.2-0.6,2.1-1.1l0,0l0,0
				c0.2-0.1,15.9-9.2,28.4-10.8C689.1,194.2,688.7,196.1,687.4,197.6"/>
			<path id="Path_406" class="st19" d="M604.2,255.8l-15.9-1.5l-10.8-4.7c-1.9-0.8-3.6-1.9-5.1-3.3l-7.1-6.5
				c-1.8-2.3-1.8-7.6-1.8-7.6c-1.2,3.8,0.7,8.4,0.7,8.4l7,7.1c1.6,1.6,3.4,2.8,5.4,3.7l10.6,4.8l17,2c3.3-0.8,4.8-4.1,4.8-4.1
				L604.2,255.8z"/>
			<path id="Path_407" class="st21" d="M565.8,239.2l7.1,6.5c1.5,1.4,3.2,2.5,5.1,3.3l10.8,4.7l2.3,0.2l-2-5.4
				c-18.1-7.1-21.9-13.1-21.9-13.1l-2.1,2.2C565.1,238.2,565.4,238.7,565.8,239.2"/>
			<path id="Path_408" class="st25" d="M718,182.2l-0.6,0.3c-0.3,0.1-0.4,0.4-0.4,0.7v6.5c0,0.3,0.3,0.4,0.5,0.4
				c0.1,0,0.2,0,0.2-0.1l2.4-1.6C719.7,186.4,719,184.2,718,182.2"/>
			<path id="Path_409" class="st15" d="M440.7,346.5c0,0-8.8,0.2-8.9,0s-2.3-8.9-2.3-8.9l14.7-0.4L440.7,346.5z"/>
			<path id="Path_410" class="st15" d="M358,391.4l-10.2-0.3c0,0,2.9-10.9,3.1-10.9s4.8,0.2,4.8,0.2l4.7,6L358,391.4z"/>
			<path id="Path_411" class="st16" d="M339.1,407L339.1,407c-0.2-0.1-0.2-0.2-0.3-0.2l0,0c-0.1-0.1-0.2-0.2-0.2-0.2l-0.1-0.1
				c-0.1-0.1-0.1-0.1-0.2-0.2c0,0,0-0.1-0.1-0.1c-0.1-0.1-0.1-0.1-0.2-0.2c0,0,0,0,0-0.1c-0.1-0.1-0.1-0.2-0.2-0.3s-0.1-0.2-0.2-0.3
				c0,0,0,0,0-0.1c0-0.1-0.1-0.2-0.1-0.3l0-0.1c0-0.1,0-0.1-0.1-0.2c0-0.1-0.1-0.2-0.1-0.3c0-0.1,0-0.1-0.1-0.2c0-0.1,0-0.2-0.1-0.2
				s0-0.1-0.1-0.2s0-0.1,0-0.2s0-0.2,0-0.2c0-0.1,0-0.1,0-0.2c0-0.1,0-0.2,0-0.3c0-0.1,0-0.1,0-0.2c0-0.1,0-0.2,0-0.3
				c0,0,0-0.1,0-0.1c0-0.2,0-0.3,0-0.5s0-0.3,0-0.5c0-0.1,0-0.1,0-0.2c0-0.1,0-0.2,0-0.3c0-0.1,0-0.1,0-0.2c0-0.1,0-0.2,0-0.4
				c0,0,0-0.1,0-0.1c0-0.2,0-0.3,0.1-0.5l0-0.1c0-0.1,0.1-0.3,0.1-0.4c0-0.1,0-0.1,0-0.2c0-0.1,0.1-0.2,0.1-0.3c0-0.1,0-0.1,0.1-0.2
				c0-0.1,0.1-0.2,0.1-0.3c0-0.1,0-0.1,0.1-0.2c0-0.1,0.1-0.2,0.1-0.4c0-0.1,0-0.1,0.1-0.2c0.1-0.2,0.1-0.3,0.2-0.5c0,0,0,0,0,0
				c0.1-0.2,0.1-0.3,0.2-0.5c0-0.1,0-0.1,0.1-0.2c0.1-0.1,0.1-0.2,0.2-0.4c0-0.1,0.1-0.1,0.1-0.2c0.1-0.1,0.1-0.2,0.2-0.4
				c0,0,0-0.1,0.1-0.1c0.1-0.2,0.2-0.3,0.3-0.5c0,0,0-0.1,0.1-0.1c0.1-0.1,0.1-0.3,0.2-0.4c0.1-0.1,0.1-0.2,0.2-0.3s0.1-0.2,0.2-0.3
				c0.1-0.2,0.3-0.5,0.4-0.7c0.1-0.1,0.1-0.2,0.2-0.2c0.1-0.1,0.1-0.2,0.2-0.3s0.1-0.2,0.2-0.2s0.1-0.2,0.2-0.3
				c0-0.1,0.1-0.1,0.1-0.2c0.2-0.2,0.4-0.5,0.6-0.7l0,0c0.1-0.2,0.3-0.3,0.4-0.5c0.1-0.1,0.2-0.2,0.3-0.4l0.1-0.1
				c0.1-0.1,0.3-0.3,0.4-0.4l0.1-0.1c0.1-0.1,0.2-0.2,0.3-0.3c0.1-0.1,0.1-0.1,0.2-0.2c0.1-0.1,0.2-0.2,0.3-0.2l0.2-0.2
				c0.1-0.1,0.2-0.1,0.3-0.2c0.1-0.1,0.1-0.1,0.2-0.2c0.1-0.1,0.2-0.1,0.3-0.2c0.1-0.1,0.1-0.1,0.2-0.2c0.1-0.1,0.2-0.1,0.3-0.2
				l0.2-0.1c0.1-0.1,0.2-0.1,0.3-0.2c0.1,0,0.1-0.1,0.2-0.1c0.1-0.1,0.2-0.1,0.3-0.2c0.1,0,0.1-0.1,0.2-0.1c0.2-0.1,0.3-0.2,0.5-0.3
				l0,0c0.2-0.1,0.3-0.2,0.5-0.3c0.1-0.1,0.3-0.1,0.4-0.2c0.1,0,0.1-0.1,0.2-0.1c0.1-0.1,0.2-0.1,0.3-0.1l0.1-0.1
				c0.2-0.1,0.3-0.1,0.5-0.2s0.3-0.1,0.5-0.2l0.1,0c0.1,0,0.2-0.1,0.3-0.1c0.1,0,0.1,0,0.2,0c0.1,0,0.2,0,0.3-0.1l0.2,0
				c0.1,0,0.2,0,0.3,0c0.1,0,0.1,0,0.2,0s0.2,0,0.2,0s0.1,0,0.2,0s0.1,0,0.2,0c0.1,0,0.2,0,0.3,0c0.1,0,0.2,0,0.3,0h0
				c0.1,0,0.2,0,0.3,0l0.1,0c0.1,0,0.2,0,0.4,0.1c0,0,0.1,0,0.1,0c0.1,0,0.2,0,0.3,0.1c0,0,0.1,0,0.1,0c0.1,0,0.1,0,0.2,0.1
				c0.1,0,0.2,0.1,0.3,0.1c0,0,0.1,0,0.1,0c0.1,0.1,0.3,0.1,0.4,0.2l-6.9-3.6c-0.1-0.1-0.2-0.1-0.4-0.2c0,0-0.1,0-0.1,0
				c-1.5-0.5-3-0.5-4.5,0c-1.4,0.4-2.8,1.1-4,2l-0.1,0.1l-0.2,0.1c-4.3,3.2-7.4,8.2-7.8,13.2c-0.2,1.8,0.2,3.6,1.1,5.2l0,0l0,0.1
				c0.1,0.1,0.1,0.1,0.2,0.2c0,0,0,0.1,0.1,0.1c0.1,0.1,0.1,0.1,0.2,0.2l0.1,0.1c0.1,0.1,0.2,0.2,0.3,0.2l0,0
				c0.1,0.1,0.2,0.1,0.2,0.2l0.1,0.1c0.1,0,0.1,0.1,0.2,0.1c0,0,0.1,0,0.1,0.1c0.1,0.1,0.2,0.1,0.3,0.2l6.9,3.6
				c-0.1-0.1-0.2-0.1-0.3-0.2c0,0-0.1,0-0.1-0.1C339.3,407,339.2,407,339.1,407"/>
			<path id="Path_412" class="st17" d="M346.8,386c-5.6,2.9-10,9.8-10,15.5s4.5,8,10.1,5.1s10-9.8,10-15.5S352.4,383.2,346.8,386"/>
			<path id="Path_413" class="st18" d="M346.8,389c-3.9,2-7.1,7-7.1,11s3.2,5.7,7.1,3.6s7.1-7,7.1-11S350.8,387,346.8,389"/>
			<path id="Path_414" class="st16" d="M346.8,391.4c-2.7,1.5-4.5,4.3-4.8,7.4c0,2.7,2.2,3.8,4.8,2.4c2.7-1.5,4.5-4.3,4.8-7.4
				C351.6,391.2,349.5,390.1,346.8,391.4"/>
			<path id="Path_415" class="st18" d="M346.8,392.6c-2.1,1.2-3.5,3.3-3.7,5.7c0,2.1,1.7,2.9,3.7,1.9c2.1-1.2,3.5-3.3,3.7-5.7
				C350.5,392.4,348.9,391.5,346.8,392.6"/>
			<path id="Path_416" class="st18" d="M351.9,394.1v-0.7l-4.1,2.1l2.9-4.5l-0.5-0.3l-2.9,4.5l0-4.3l-0.7,0.4l0,4.3l-2.9-1.5
				l-0.5,0.8l2.9,1.5l-4.1,2.1v0.7l4.1-2.1l-2.9,4.5l0.5,0.3l2.9-4.5l0,4.3l0.7-0.4l0-4.3l2.9,1.5l0.5-0.8l-2.9-1.5L351.9,394.1z"/>
			<path id="Path_417" class="st16" d="M346.9,395c-0.8,0.4-1.3,1.2-1.4,2.1c0,0.8,0.6,1.1,1.4,0.7c0.8-0.4,1.3-1.2,1.4-2.1
				C348.2,394.9,347.6,394.6,346.9,395"/>
			<path id="Path_418" class="st26" d="M415.1,306.7c-1.2-0.1-2.4,0-3.6,0.2l-10.1,2.7c-20.8,1.1-39.3,9.9-39.3,9.9
				c-18.5,8.8-24.8,13.7-24.8,13.7l-12.8,12.6l-4.3,4.3l1.3,10.6l29.7,11.4l10.9-3.2l76.9-40.8l5.8-5.2
				C438.2,311.1,419.1,307.4,415.1,306.7"/>
			<path id="Path_419" class="st26" d="M362.1,369.1c0,0-10.1,3.3-28.2-5.8c0,0-16.8-9.6-9.4-17.3c0,0-24.8,13.7-33,23.1l1.9,9.3
				l10,8.1l11.9,4.9l16.4-1.1L362.1,369.1z"/>
			<path id="Path_420" class="st16" d="M422.8,364.8L422.8,364.8c-0.2-0.1-0.2-0.2-0.3-0.2l0,0c-0.1-0.1-0.2-0.2-0.2-0.2l-0.1-0.1
				c-0.1-0.1-0.1-0.1-0.2-0.2l-0.1-0.1c-0.1-0.1-0.1-0.1-0.2-0.2c0,0,0,0,0-0.1c-0.1-0.1-0.1-0.2-0.2-0.3s-0.1-0.2-0.2-0.3
				c0,0,0,0,0-0.1c0-0.1-0.1-0.2-0.1-0.3l0-0.1c0-0.1,0-0.1-0.1-0.2c0-0.1-0.1-0.2-0.1-0.3c0-0.1,0-0.1-0.1-0.2c0-0.1,0-0.2-0.1-0.2
				s0-0.1-0.1-0.2s0-0.1,0-0.2s0-0.2,0-0.2c0-0.1,0-0.1,0-0.2c0-0.1,0-0.2,0-0.3c0-0.1,0-0.1,0-0.2c0-0.1,0-0.2,0-0.3
				c0,0,0-0.1,0-0.1c0-0.2,0-0.3,0-0.5s0-0.3,0-0.5c0-0.1,0-0.1,0-0.2c0-0.1,0-0.2,0-0.3c0-0.1,0-0.1,0-0.2c0-0.1,0-0.2,0-0.4
				c0,0,0-0.1,0-0.1c0-0.2,0-0.3,0.1-0.5l0-0.1c0-0.1,0.1-0.3,0.1-0.4c0-0.1,0-0.1,0-0.2c0-0.1,0.1-0.2,0.1-0.3c0-0.1,0-0.1,0.1-0.2
				c0-0.1,0.1-0.2,0.1-0.3c0-0.1,0-0.1,0.1-0.2c0-0.1,0.1-0.2,0.1-0.4c0-0.1,0-0.1,0.1-0.2c0.1-0.2,0.1-0.3,0.2-0.5l0,0
				c0.1-0.2,0.1-0.3,0.2-0.5c0-0.1,0-0.1,0.1-0.2c0.1-0.1,0.1-0.2,0.2-0.4c0-0.1,0.1-0.1,0.1-0.2c0.1-0.1,0.1-0.2,0.2-0.4
				c0,0,0-0.1,0.1-0.1c0.1-0.2,0.2-0.3,0.3-0.5c0,0,0-0.1,0.1-0.1c0.1-0.1,0.1-0.3,0.2-0.4c0.1-0.1,0.1-0.2,0.2-0.3s0.1-0.2,0.2-0.3
				c0.1-0.2,0.3-0.5,0.4-0.7c0.1-0.1,0.1-0.2,0.2-0.2c0.1-0.1,0.1-0.2,0.2-0.3s0.1-0.2,0.2-0.2s0.1-0.2,0.2-0.3l0.1-0.2
				c0.2-0.2,0.4-0.5,0.6-0.7l0,0c0.1-0.2,0.3-0.3,0.4-0.5c0.1-0.1,0.2-0.3,0.3-0.4l0.1-0.1c0.1-0.1,0.3-0.3,0.4-0.4l0.1-0.1
				c0.1-0.1,0.2-0.2,0.3-0.3l0.2-0.2c0.1-0.1,0.2-0.2,0.3-0.2c0.1-0.1,0.1-0.1,0.2-0.2c0.1-0.1,0.2-0.1,0.3-0.2l0.2-0.2
				c0.1-0.1,0.2-0.1,0.3-0.2c0.1-0.1,0.1-0.1,0.2-0.2c0.1-0.1,0.2-0.1,0.3-0.2l0.2-0.1c0.1-0.1,0.2-0.1,0.3-0.2
				c0.1,0,0.1-0.1,0.2-0.1c0.1-0.1,0.2-0.1,0.3-0.2l0.2-0.1c0.2-0.1,0.3-0.2,0.5-0.3l0,0c0.2-0.1,0.3-0.2,0.5-0.3
				c0.1-0.1,0.3-0.1,0.4-0.2l0.2-0.1c0.1-0.1,0.2-0.1,0.3-0.1l0.1-0.1c0.2-0.1,0.3-0.1,0.5-0.2s0.3-0.1,0.5-0.2l0.1,0
				c0.1,0,0.2-0.1,0.3-0.1c0.1,0,0.1,0,0.2,0c0.1,0,0.2,0,0.3-0.1l0.2,0c0.1,0,0.2,0,0.3,0c0.1,0,0.1,0,0.2,0s0.2,0,0.2,0
				s0.1,0,0.2,0s0.1,0,0.2,0c0.1,0,0.2,0,0.3,0c0.1,0,0.2,0,0.3,0h0c0.1,0,0.2,0,0.3,0l0.1,0c0.1,0,0.2,0,0.4,0.1c0,0,0.1,0,0.1,0
				c0.1,0,0.2,0,0.3,0.1c0,0,0.1,0,0.1,0c0.1,0,0.1,0,0.2,0.1c0.1,0,0.2,0.1,0.3,0.1c0,0,0.1,0,0.1,0c0.1,0.1,0.3,0.1,0.4,0.2
				l-6.9-3.6c-0.1-0.1-0.2-0.1-0.4-0.2c0,0-0.1,0-0.1,0c-1.5-0.5-3-0.5-4.5,0c-1.4,0.4-2.8,1.1-4,2l-0.1,0.1c-0.1,0-0.1,0.1-0.2,0.1
				c-4.3,3.2-7.4,8.2-7.8,13.2c-0.2,1.8,0.2,3.6,1.1,5.2l0,0l0,0.1c0.1,0.1,0.1,0.1,0.2,0.2c0,0,0,0.1,0.1,0.1
				c0.1,0.1,0.1,0.1,0.2,0.2c0,0,0,0,0.1,0.1c0.1,0.1,0.2,0.2,0.2,0.2l0,0c0.1,0.1,0.2,0.1,0.2,0.2l0.1,0.1c0.1,0,0.1,0.1,0.2,0.1
				c0,0,0.1,0,0.1,0.1c0.1,0.1,0.2,0.1,0.3,0.2l6.9,3.6c-0.1-0.1-0.2-0.1-0.3-0.2c0,0-0.1,0-0.1-0.1
				C422.9,364.9,422.9,364.9,422.8,364.8"/>
			<path id="Path_421" class="st17" d="M430.5,343.9c-5.6,2.9-10,9.8-10,15.5s4.5,8,10.1,5.1s10-9.8,10-15.5S436,341,430.5,343.9"/>
			<path id="Path_422" class="st18" d="M430.5,346.9c-3.9,2-7.1,7-7.1,11s3.2,5.7,7.1,3.6s7.1-7,7.1-11S434.4,344.9,430.5,346.9"/>
			<path id="Path_423" class="st16" d="M430.5,349.3c-2.7,1.5-4.5,4.3-4.8,7.4c0,2.7,2.2,3.8,4.8,2.4c2.7-1.5,4.5-4.3,4.8-7.4
				C435.3,349,433.1,347.9,430.5,349.3"/>
			<path id="Path_424" class="st18" d="M430.5,350.4c-2.1,1.2-3.5,3.3-3.7,5.7c0,2.1,1.7,2.9,3.7,1.9c2.1-1.2,3.5-3.3,3.7-5.7
				C434.2,350.2,432.5,349.4,430.5,350.4"/>
			<path id="Path_425" class="st18" d="M435.5,352v-0.7l-4.1,2.1l2.9-4.5l-0.5-0.3l-2.9,4.5l0-4.3l-0.7,0.4l0,4.3l-2.9-1.5l-0.5,0.8
				l2.9,1.5l-4.1,2.1v0.7l4.1-2.1l-2.9,4.5l0.5,0.3l2.9-4.5l0,4.3l0.7-0.4l0-4.3l2.9,1.5l0.5-0.8l-2.9-1.5L435.5,352z"/>
			<path id="Path_426" class="st16" d="M430.5,352.8c-0.8,0.4-1.3,1.2-1.4,2.1c0,0.8,0.6,1.1,1.4,0.7c0.8-0.4,1.3-1.2,1.4-2.1
				C431.9,352.7,431.2,352.4,430.5,352.8"/>
			<path id="Path_427" class="st27" d="M449,331.5c-0.1-0.5-0.5-0.9-1-1l-0.6-0.1c-0.6-2.5-1.5-4.9-2.6-7.3l-9.8,4.4
				c-20.9,0.2-46.9,14.3-46.9,14.3c-4.4,2.3-9.8,5.2-13.3,7.1c-2.3,1.2-4.2,3.1-5.3,5.4l-7.4,14.8c-10.6,6.3-20.7,13.4-30.4,21
				c-6.9-1.5-15.5,0.2-15.5,0.2c-18.1-7.1-21.9-13.1-21.9-13.1c-0.7-2.8-1.7-5.6-2.9-8.3l-0.7,4.9c-1.7,1.5-1.2,5.5-1.2,5.5
				c0.3,2.2,1,4.4,2,6.3c0.9,1.7,2.1,3.3,3.6,4.6l2.3,2.1c1.9,1.8,4.1,3.2,6.4,4.3l11,4.5c13.9,4.6,18.2,2.1,18.2,2.1
				c0.8-0.4,1.5-1.1,1.8-2c1.9-12.5,11.4-16.7,11.4-16.7c11.7-4.5,11.8,6.6,11.8,6.6l2.4-1.6l52.8-27.2c1.8-0.6,3.5-1.2,5.2-2
				c2.5-15.8,14.6-19.4,14.6-19.4c7.1-0.9,7.8,5.3,7.8,5.3l8.3-8.6C449.4,335.8,449.4,333.6,449,331.5"/>
			<path id="Path_428" class="st21" d="M337.3,333.3c0,0,8.3,11.2,31.6,18.1l-9.2,16.6c0,0-14.2,0.2-26.4-7.4c0,0-14.1-8.2-8.8-14.6
				L337.3,333.3z"/>
			<path id="Path_429" class="st22" d="M330,395.4l1.7-5.2c-6.9-1.5-15.5,0.2-15.5,0.2l1.2,3.1L330,395.4z"/>
			<path id="Path_430" class="st22" d="M290.9,373.1l2.1,5.7l1.4-1.5c-0.7-2.8-1.7-5.6-2.9-8.3L290.9,373.1z"/>
			<path id="Path_431" class="st23" d="M328,393.6l-11-1.1l0.4,0.9l12.6,1.8l1.7-5.2c-0.5-0.1-1.1-0.2-1.7-0.3L328,393.6z"/>
			<path id="Path_432" class="st23" d="M291.5,373.1l0.6-2.6c-0.4-0.9-0.6-1.5-0.6-1.5l-0.6,4l2.1,5.7l0.3-0.4L291.5,373.1z"/>
			<path id="Path_433" class="st27" d="M333.8,363.1c0,0-9.3-4.9-11.6-10.6l-24.7,19.9c0.5,1.9,2.4,5.6,9.2,10.1
				c4.2,2.2,8.6,4,13.1,5.5l29.5-18.9C343.9,367.6,338.8,365.6,333.8,363.1"/>
			<path id="Path_434" class="st21" d="M414.2,328.7c0,0,10.5-3.1,19.1-2.5c0,0-12.3-15.4-31.9-16.5c-5.2,0.3-10.3,1-15.4,2.1
				C386.1,311.8,403.5,315,414.2,328.7"/>
			<path id="Path_435" class="st28" d="M330,395.4l-3.2,8.7c4.5,0.4,6.2-0.6,6.2-0.6c0.8-0.4,1.5-1.1,1.8-2
				c0.6-4.1,2.2-7.9,4.8-11.1L330,395.4z"/>
			<path id="Path_436" class="st28" d="M392.2,353.7v16.1l-26.5,13.7v-16.3l-1,0.9v17l28.4-14.7v-16.8L392.2,353.7z"/>
			<path id="Path_437" class="st21" d="M416.8,333.9l-0.2-0.7c-13,1.4-29.7,11.1-29.7,11.1c-4.2,2.2-2.9,1.4-11.9,6.4
				c-1.4,0.8-2.5,2-3.2,3.4l-7,13.9c21.8-10.7,48.3-25.1,48.3-25.1l2.4-2.9C416.9,338.3,417.3,336,416.8,333.9"/>
			<path id="Path_438" class="st15" d="M368.1,366.3v-4.9l-3.3,6.5C365.9,367.4,367,366.9,368.1,366.3"/>
			<path id="Path_439" class="st15" d="M416.8,333.9l-0.2-0.7c-1.8,0.2-3.6,0.5-5.4,1c0.6,1.4,1.2,4.3,0,9.7c1.2-0.7,1.9-1,1.9-1
				l2.4-2.9C416.8,338.3,417.3,336,416.8,333.9"/>
			<path id="Path_440" class="st15" d="M390.7,354.8c0.8-0.4,1.7-0.9,2.5-1.3l-0.2-12.4c-0.9,0.5-1.8,0.9-2.6,1.3L390.7,354.8z"/>
			<path id="Path_441" class="st28" d="M413.2,362.6c1.8-0.6,3.5-1.2,5.2-2c0.4-2.4,1-4.7,1.9-7l-63.7,33c0.9,1.5,1.3,3.1,1.4,4.8
				l2.4-1.6L413.2,362.6z"/>
			<path id="Path_442" class="st28" d="M439.6,343.7c0.6,0.9,1,1.8,1.1,2.9l6.7-6.9L439.6,343.7z"/>
			<path id="Path_443" class="st15" d="M337.3,333.3l-12.8,12.6c-5.3,6.4,8.8,14.6,8.8,14.6c11.5,7.2,24.8,7.4,26.3,7.4h0.1
				l9.2-16.6C345.6,344.6,337.3,333.3,337.3,333.3 M359,367c-3-0.1-14.8-0.8-25.1-7.2l0,0l0,0c-0.1,0-8.4-4.9-9.4-9.7
				c-0.3-1.2,0.1-2.4,0.9-3.4l11.8-11.7c1.9,2.1,4.1,4,6.4,5.7c7.2,5.1,15.2,9,23.7,11.4L359,367z"/>
			<path id="Path_444" class="st15" d="M401.4,309.7c-5.2,0.3-10.3,1-15.4,2.1c0,0,17.4,3.2,28.1,16.9c5.5-1.5,11.2-2.4,17-2.6
				c0.7,0,1.4,0,2.1,0.1C433.3,326.2,421.1,310.8,401.4,309.7 M414.6,327.7c-7.8-9.7-18.8-14.1-24.6-15.8c3.8-0.7,7.6-1.1,11.4-1.3
				c4.4,0.3,8.7,1.3,12.8,3c3.5,1.4,6.8,3.3,9.8,5.5c2.6,1.9,5,4,7.2,6.3h-0.1C425.6,325.4,420,326.2,414.6,327.7"/>
			<path id="Path_445" class="st15" d="M416.8,333.9l-0.2-0.7c-13,1.4-29.7,11.1-29.7,11.1c-4.2,2.2-2.9,1.4-11.9,6.4
				c-1.4,0.8-2.5,2-3.2,3.4l-7,13.9c21.8-10.7,48.3-25.1,48.3-25.1l2.4-2.9C416.8,338.3,417.3,336,416.8,333.9 M414.7,339.4
				l-2.3,2.8c-2.2,1.2-25.5,13.8-45.6,23.8l5.8-11.5c0.6-1.3,1.6-2.3,2.9-3c7.1-4,7.7-4.3,9.8-5.4c0.5-0.3,1.2-0.6,2.1-1.1l0,0l0,0
				c0.2-0.1,15.9-9.2,28.4-10.8C416.3,336,415.9,338,414.7,339.4"/>
			<path id="Path_446" class="st26" d="M331.4,397.6l-15.9-1.5l-10.8-4.7c-1.9-0.8-3.6-1.9-5.1-3.3l-7.1-6.5
				c-1.8-2.3-1.8-7.6-1.8-7.6c-1.2,3.8,0.7,8.4,0.7,8.4l7,7.1c1.6,1.6,3.4,2.8,5.4,3.7l10.6,4.8l17,2c3.3-0.8,4.8-4.1,4.8-4.1
				L331.4,397.6z"/>
			<path id="Path_447" class="st21" d="M293,381l7.1,6.5c1.5,1.4,3.2,2.5,5.1,3.3l10.8,4.7l2.3,0.2l-2-5.4
				c-18.1-7.1-21.9-13.1-21.9-13.1l-2.1,2.2C292.4,380,292.7,380.5,293,381"/>
			<path id="Path_448" class="st23" d="M445.3,324.1l-0.6,0.3c-0.3,0.1-0.4,0.4-0.4,0.7v6.5c0,0.3,0.3,0.4,0.5,0.4
				c0.1,0,0.2,0,0.2-0.1l2.4-1.6C446.9,328.2,446.2,326.1,445.3,324.1"/>
			<path id="Path_449" class="st11" d="M624.6,81.6l-3.3-1.7L75.2,362.7l3.3,1.7L624.6,81.6z"/>
			<path id="Path_450" class="st11" d="M812.3,178.6l-3.3-1.7L263,459.7l3.3,1.7L812.3,178.6z"/>
			<path id="Path_451" class="st29" d="M395.9,261.7l-12.9-0.9l2.4-6.3l8.6-1.2l3.8,5.1L395.9,261.7z"/>
			<path id="Path_452" class="st29" d="M442.3,237.7l-11.1-3.1l2-4.6l10,2.2L442.3,237.7z"/>
			<path id="Path_453" class="st16" d="M427.1,251.2L427.1,251.2c-0.1-0.1-0.2-0.2-0.3-0.2c0,0,0,0,0,0c-0.1-0.1-0.1-0.1-0.2-0.2
				l-0.1-0.1c0,0-0.1-0.1-0.1-0.2l-0.1-0.1c0-0.1-0.1-0.1-0.1-0.2c0,0,0,0,0,0c-0.1-0.1-0.1-0.2-0.2-0.3s-0.1-0.2-0.2-0.3l0,0
				c0-0.1-0.1-0.2-0.1-0.2l0-0.1c0,0,0-0.1-0.1-0.1c0-0.1-0.1-0.2-0.1-0.2c0,0,0-0.1,0-0.2s0-0.1-0.1-0.2s0-0.1,0-0.2s0-0.1,0-0.2
				s0-0.1,0-0.2s0-0.1,0-0.2c0-0.1,0-0.1,0-0.2c0,0,0-0.1,0-0.1c0-0.1,0-0.2,0-0.3c0,0,0-0.1,0-0.1c0-0.1,0-0.3,0-0.4s0-0.3,0-0.4
				c0,0,0-0.1,0-0.1c0-0.1,0-0.2,0-0.3c0,0,0-0.1,0-0.1c0-0.1,0-0.2,0-0.3c0,0,0-0.1,0-0.1c0-0.1,0-0.3,0.1-0.4c0,0,0,0,0-0.1
				c0-0.1,0-0.2,0.1-0.4c0,0,0-0.1,0-0.1c0-0.1,0-0.2,0.1-0.3c0-0.1,0-0.1,0-0.2c0-0.1,0-0.2,0.1-0.3c0-0.1,0-0.1,0-0.2
				c0-0.1,0.1-0.2,0.1-0.3c0,0,0-0.1,0-0.1c0-0.1,0.1-0.3,0.1-0.4l0,0c0-0.1,0.1-0.3,0.2-0.4c0,0,0-0.1,0.1-0.1
				c0-0.1,0.1-0.2,0.1-0.3l0.1-0.1c0-0.1,0.1-0.2,0.1-0.3c0,0,0-0.1,0-0.1c0.1-0.1,0.1-0.3,0.2-0.4c0,0,0-0.1,0.1-0.1
				c0.1-0.1,0.1-0.2,0.2-0.3c0-0.1,0.1-0.1,0.1-0.2c0-0.1,0.1-0.1,0.1-0.2c0.1-0.2,0.2-0.4,0.3-0.6l0.1-0.2l0.2-0.2
				c0-0.1,0.1-0.1,0.1-0.2s0.1-0.1,0.2-0.2c0,0,0.1-0.1,0.1-0.1c0.1-0.2,0.3-0.4,0.5-0.6v0c0.1-0.1,0.2-0.3,0.3-0.4
				c0.1-0.1,0.2-0.2,0.3-0.3c0,0,0,0,0.1-0.1c0.1-0.1,0.2-0.2,0.3-0.3l0.1-0.1c0.1-0.1,0.2-0.2,0.2-0.2l0.1-0.1l0.2-0.2l0.2-0.1
				c0.1-0.1,0.1-0.1,0.2-0.2s0.1-0.1,0.2-0.1s0.1-0.1,0.2-0.2l0.2-0.1c0.1-0.1,0.1-0.1,0.2-0.2c0.1,0,0.1-0.1,0.2-0.1
				c0.1-0.1,0.1-0.1,0.2-0.2l0.2-0.1c0.1-0.1,0.2-0.1,0.3-0.2l0.1-0.1c0.1-0.1,0.3-0.2,0.4-0.2l0,0c0.1-0.1,0.3-0.1,0.4-0.2
				s0.2-0.1,0.4-0.2l0.1-0.1c0.1,0,0.2-0.1,0.3-0.1l0.1,0c0.1-0.1,0.2-0.1,0.4-0.1s0.2-0.1,0.4-0.1l0.1,0c0.1,0,0.2,0,0.2-0.1l0.1,0
				c0.1,0,0.1,0,0.2,0l0.1,0l0.2,0c0.1,0,0.1,0,0.2,0s0.1,0,0.2,0s0.1,0,0.2,0s0.1,0,0.2,0s0.1,0,0.2,0c0.1,0,0.2,0,0.3,0h0
				c0.1,0,0.2,0,0.3,0l0.1,0c0.1,0,0.2,0,0.3,0l0.1,0c0.1,0,0.2,0,0.2,0c0,0,0.1,0,0.1,0c0.1,0,0.1,0,0.2,0.1s0.1,0.1,0.2,0.1
				c0,0,0.1,0,0.1,0c0.1,0,0.2,0.1,0.3,0.1l-5.5-2.9c-0.1-0.1-0.2-0.1-0.3-0.1c0,0-0.1,0-0.1,0c-1.2-0.4-2.4-0.4-3.6,0
				c-1.1,0.4-2.2,0.9-3.2,1.6c0,0-0.1,0-0.1,0.1l-0.2,0.1c-3.5,2.5-5.8,6.4-6.3,10.6c-0.2,1.5,0.1,2.9,0.9,4.2l0,0c0,0,0,0,0,0
				c0,0.1,0.1,0.1,0.1,0.2l0.1,0.1c0,0.1,0.1,0.1,0.1,0.2l0.1,0.1c0.1,0.1,0.1,0.1,0.2,0.2l0,0c0.1,0.1,0.1,0.1,0.2,0.1
				c0,0,0,0,0.1,0.1c0.1,0,0.1,0.1,0.2,0.1l0.1,0c0.1,0,0.2,0.1,0.2,0.1l5.5,2.9c-0.1,0-0.2-0.1-0.2-0.1l-0.1,0
				C427.2,251.3,427.1,251.2,427.1,251.2"/>
			<path id="Path_454" class="st17" d="M433.2,234.4c-4.5,2.3-8.1,7.9-8,12.5s3.6,6.4,8.1,4.1s8.1-7.9,8-12.5
				S437.7,232.1,433.2,234.4"/>
			<path id="Path_455" class="st1" d="M433.2,236.8c-3.2,1.6-5.7,5.6-5.7,8.8s2.6,4.6,5.7,2.9s5.7-5.6,5.7-8.8
				S436.4,235.2,433.2,236.8"/>
			<path id="Path_456" class="st16" d="M433.2,238.8c-2.2,1.2-3.6,3.4-3.8,5.9c0,2.2,1.7,3.1,3.8,2c2.2-1.2,3.6-3.4,3.8-5.9
				C437.1,238.5,435.3,237.7,433.2,238.8"/>
			<path id="Path_457" class="st1" d="M433.2,239.7c-1.7,0.9-2.8,2.6-2.9,4.6c0,1.7,1.3,2.4,3,1.5c1.7-0.9,2.8-2.6,2.9-4.6
				C436.2,239.5,434.9,238.8,433.2,239.7"/>
			<path id="Path_458" class="st1" d="M437.3,240.9v-0.6l-3.3,1.7l2.3-3.6l-0.4-0.2l-2.3,3.6l0-3.4l-0.6,0.3l0,3.4l-2.4-1.2
				l-0.4,0.6l2.4,1.2l-3.3,1.7v0.6l3.3-1.7l-2.3,3.6l0.4,0.2l2.3-3.6l0,3.4l0.6-0.3l0-3.4l2.4,1.2l0.4-0.6l-2.4-1.2L437.3,240.9z"/>
			<path id="Path_459" class="st16" d="M433.2,241.6c-0.6,0.3-1,1-1.1,1.7c0,0.6,0.5,0.9,1.1,0.6c0.6-0.3,1-1,1.1-1.7
				C434.3,241.5,433.8,241.3,433.2,241.6"/>
			<path id="Path_460" class="st16" d="M380.6,275.4L380.6,275.4c-0.1-0.1-0.2-0.2-0.3-0.2l0,0c-0.1-0.1-0.1-0.1-0.2-0.2l-0.1-0.1
				c0,0-0.1-0.1-0.1-0.2c0,0,0,0-0.1-0.1c0-0.1-0.1-0.1-0.1-0.2c0,0,0,0,0,0c-0.1-0.1-0.1-0.2-0.2-0.3s-0.1-0.2-0.2-0.3l0,0
				c0-0.1-0.1-0.1-0.1-0.2c0,0,0,0,0-0.1c0,0,0-0.1-0.1-0.1c0-0.1-0.1-0.2-0.1-0.2c0,0,0-0.1,0-0.1c0-0.1,0-0.1-0.1-0.2s0-0.1,0-0.2
				s0-0.1,0-0.2s0-0.1,0-0.2s0-0.1,0-0.2c0-0.1,0-0.1,0-0.2c0,0,0-0.1,0-0.1c0-0.1,0-0.2,0-0.3c0,0,0-0.1,0-0.1c0-0.1,0-0.3,0-0.4
				s0-0.3,0-0.4c0,0,0-0.1,0-0.1c0-0.1,0-0.2,0-0.3c0,0,0-0.1,0-0.1c0-0.1,0-0.2,0-0.3l0-0.1c0-0.1,0-0.3,0.1-0.4c0,0,0,0,0-0.1
				c0-0.1,0-0.2,0.1-0.4c0,0,0-0.1,0-0.1c0-0.1,0-0.2,0.1-0.3c0-0.1,0-0.1,0-0.2c0-0.1,0-0.2,0.1-0.3c0-0.1,0-0.1,0-0.2
				c0-0.1,0.1-0.2,0.1-0.3c0,0,0-0.1,0-0.1c0-0.1,0.1-0.3,0.1-0.4l0,0c0-0.1,0.1-0.3,0.2-0.4c0,0,0-0.1,0.1-0.1
				c0-0.1,0.1-0.2,0.1-0.3c0,0,0-0.1,0.1-0.1c0-0.1,0.1-0.2,0.1-0.3c0,0,0-0.1,0.1-0.1c0.1-0.1,0.1-0.3,0.2-0.4l0.1-0.1
				c0.1-0.1,0.1-0.2,0.2-0.3c0-0.1,0.1-0.1,0.1-0.2s0.1-0.1,0.1-0.2c0.1-0.2,0.2-0.4,0.3-0.6l0.1-0.2c0.1-0.1,0.1-0.1,0.2-0.2
				s0.1-0.1,0.1-0.2s0.1-0.1,0.2-0.2c0,0,0.1-0.1,0.1-0.1c0.2-0.2,0.3-0.4,0.5-0.6v0c0.1-0.1,0.2-0.3,0.3-0.4
				c0.1-0.1,0.2-0.2,0.3-0.3l0.1-0.1c0.1-0.1,0.2-0.2,0.3-0.3l0.1-0.1c0.1-0.1,0.2-0.2,0.2-0.2c0,0,0.1-0.1,0.1-0.1
				c0.1-0.1,0.1-0.1,0.2-0.2l0.2-0.1c0.1-0.1,0.1-0.1,0.2-0.2s0.1-0.1,0.2-0.1s0.1-0.1,0.2-0.2l0.2-0.1c0.1-0.1,0.1-0.1,0.2-0.2
				c0.1,0,0.1-0.1,0.2-0.1c0.1-0.1,0.1-0.1,0.2-0.2c0.1,0,0.1-0.1,0.2-0.1c0.1-0.1,0.2-0.1,0.3-0.2l0.1-0.1c0.1-0.1,0.3-0.2,0.4-0.2
				l0,0c0.1-0.1,0.3-0.1,0.4-0.2c0.1-0.1,0.2-0.1,0.4-0.2c0,0,0.1,0,0.1-0.1c0.1,0,0.2-0.1,0.3-0.1l0.1,0c0.1-0.1,0.2-0.1,0.4-0.1
				s0.2-0.1,0.4-0.1l0.1,0c0.1,0,0.2,0,0.2-0.1c0,0,0.1,0,0.1,0c0.1,0,0.1,0,0.2,0c0,0,0.1,0,0.1,0l0.2,0c0.1,0,0.1,0,0.2,0
				s0.1,0,0.2,0l0.2,0l0.2,0c0.1,0,0.1,0,0.2,0c0.1,0,0.2,0,0.3,0h0c0.1,0,0.2,0,0.3,0l0.1,0c0.1,0,0.2,0,0.3,0l0.1,0
				c0.1,0,0.2,0,0.2,0l0.1,0c0.1,0,0.1,0,0.2,0.1s0.1,0.1,0.2,0.1c0,0,0.1,0,0.1,0c0.1,0,0.2,0.1,0.3,0.1l-5.5-2.9
				c-0.1,0-0.2-0.1-0.3-0.1l-0.1,0c-1.2-0.4-2.4-0.4-3.6,0c-1.1,0.4-2.2,0.9-3.2,1.6l-0.1,0.1c-0.1,0-0.1,0.1-0.2,0.1
				c-3.5,2.5-5.8,6.4-6.3,10.6c-0.2,1.5,0.1,2.9,0.9,4.2l0,0c0,0,0,0,0,0c0,0.1,0.1,0.1,0.1,0.2c0,0,0,0,0.1,0.1
				c0,0.1,0.1,0.1,0.1,0.2l0.1,0.1c0.1,0.1,0.1,0.1,0.2,0.2l0,0c0.1,0.1,0.1,0.1,0.2,0.1c0,0,0,0,0.1,0.1c0.1,0,0.1,0.1,0.2,0.1
				l0.1,0c0.1,0,0.2,0.1,0.2,0.1l5.5,2.9c-0.1,0-0.2-0.1-0.2-0.1l-0.1,0C380.7,275.4,380.7,275.4,380.6,275.4"/>
			<path id="Path_461" class="st17" d="M386.8,258.6c-4.5,2.3-8.1,7.9-8,12.5c0,4.6,3.6,6.4,8.1,4.1c4.5-2.3,8.1-7.9,8-12.5
				C394.9,258.1,391.2,256.3,386.8,258.6"/>
			<path id="Path_462" class="st1" d="M386.8,261c-3.2,1.6-5.7,5.6-5.7,8.8c0,3.2,2.6,4.6,5.7,2.9s5.7-5.6,5.7-8.8
				C392.5,260.7,389.9,259.4,386.8,261"/>
			<path id="Path_463" class="st16" d="M386.8,262.9c-2.2,1.2-3.6,3.4-3.8,5.9c0,2.2,1.7,3.1,3.8,2c2.2-1.2,3.6-3.4,3.8-5.9
				C390.6,262.7,388.9,261.8,386.8,262.9"/>
			<path id="Path_464" class="st1" d="M386.8,263.8c-1.7,0.9-2.8,2.6-2.9,4.6c0,1.7,1.3,2.4,3,1.5c1.7-0.9,2.8-2.6,2.9-4.6
				C389.8,263.7,388.4,263,386.8,263.8"/>
			<path id="Path_465" class="st1" d="M390.8,265.1v-0.6l-3.3,1.7l2.3-3.6l-0.4-0.2l-2.3,3.6l0-3.4l-0.6,0.3l0,3.4l-2.4-1.2
				l-0.4,0.6l2.4,1.2l-3.3,1.7v0.6l3.3-1.7l-2.3,3.6l0.4,0.2l2.3-3.6l0,3.4l0.6-0.3l0-3.4l2.4,1.2l0.4-0.6l-2.4-1.2L390.8,265.1z"/>
			<path id="Path_466" class="st16" d="M386.8,265.7c-0.6,0.3-1,1-1.1,1.7c0,0.6,0.5,0.9,1.1,0.6c0.6-0.3,1-1,1.1-1.7
				C387.9,265.7,387.4,265.4,386.8,265.7"/>
			<path id="Path_467" class="st30" d="M433.6,207.1L398,188.6l-34.1,17.7l35.3,18.7L433.6,207.1z"/>
			<path id="Path_468" class="st31" d="M369.6,263.5l-36.9-19.2l-1.5,12.5l36.9,19.2L369.6,263.5z"/>
			<path id="Path_469" class="st32" d="M366.9,272.7v4.6l-37.2-19.1v-4.6L366.9,272.7z"/>
			<path id="Path_470" class="st31" d="M366.9,272.7v4.6l1.8-0.9v-4.6L366.9,272.7z"/>
			<path id="Path_471" class="st30" d="M329.8,253.6l37.2,19.1l1.8-0.9l-37.2-19.1L329.8,253.6z"/>
			<path id="Path_472" class="st33" d="M350.2,266.7v3.6l-7.8-4v-3.6L350.2,266.7z"/>
			<path id="Path_473" class="st12" d="M369.6,263.5l-3.8-2l-2.8,7.3l5.5,2.8L369.6,263.5z"/>
			<path id="Path_474" class="st12" d="M336.1,246.1l-3.4-1.7l-1,8.4l4.6,2.4L336.1,246.1z"/>
			<path id="Path_475" class="st33" d="M361.2,267.9l2.3-5.6l-25.6-13l-0.2,6.5L361.2,267.9z"/>
			<path id="Path_476" class="st32" d="M444.9,221.8l-11.3-14.7l-34.5,17.8c-24.8,18-29.5,38.6-29.5,38.6l0,0l0,0l-1.5,12.5l9.7-5
				c0.2-5,4.2-11,9-13.5s8.8-0.6,9.1,4.1l28.4-14.7c0.1-5.1,4.1-11.1,9-13.7s8.9-0.6,9.1,4.3l4.9-2.5L444.9,221.8z"/>
			<path id="Path_477" class="st21" d="M399.2,224.9l-35.3-18.7c-24.8,18-31.2,38.1-31.2,38.1l36.9,19.2
				C369.6,263.5,374.4,242.9,399.2,224.9"/>
			<path id="Path_478" class="st30" d="M363.9,206.3c-24.8,18-31.2,38.1-31.2,38.1l36.9,19.2c0,0,4.7-20.7,29.5-38.6L363.9,206.3z
				 M373.8,250.4L373.8,250.4c-0.9,1.3-2.6,1.8-3.9,1l-28.8-15.2c-1.1-0.5-1.6-1.9-1.1-3c0-0.1,0.1-0.2,0.1-0.2l0.1-0.2
				c2.8-4.3,5.9-8.3,9.4-12.1c4.4-4.7,9.2-9,14.4-12.8l32.6,17.3C387.4,231.9,379.7,240.5,373.8,250.4"/>
			<path id="Path_479" class="st31" d="M433.2,233.4c-4.9,2.5-8.9,8.6-9,13.7l-28.4,14.7c-0.3-4.8-4.2-6.6-9.1-4.1s-8.8,8.4-9,13.5
				l-9.7,5l1.5-12.5l0.1-0.1l75.6-39.2l1.9,10.9l-4.9,2.5C442.1,232.8,438.1,230.9,433.2,233.4"/>
			<path id="Path_480" class="st21" d="M440.4,220.1l-6.4-8.3c-0.7-0.9-2-1.1-3-0.6l-29.1,15.1c-2.1,1.1-4,2.4-5.7,4
				c-7.5,6.3-13.8,13.9-18.7,22.5L440.4,220.1z"/>
			<path id="Path_481" class="st32" d="M419,234.9h-2.7l2.9-19.1h2.7L419,234.9z"/>
			<path id="Path_487_2_" class="st16" d="M200.2,355.6"/>
			<path id="Path_521" class="st8" d="M417.5,82.4c0.4-0.3,0.7-0.6,1.2-0.8l39.7-20.5c3.2-1.6,7-1.6,10.2,0l11.7,6.1h5.2v69
				c0,1.4-0.8,2.7-2.1,3.4L444,159.9c-4.4,2.2-9.5,2.2-13.9,0l-11.4-5.9c-1.6-0.8-2.7-2.4-2.7-4.2l0,0V80.8L417.5,82.4z"/>
			<path id="Path_522" class="st1" d="M483.5,70.5l-38.3,19.8v69l38.3-19.8c1.3-0.6,2.1-1.9,2.2-3.4V67.2
				C485.6,68.6,484.8,69.9,483.5,70.5"/>
			<path id="Path_523" class="st9" d="M416,80.8C416,80.8,416,80.9,416,80.8L416,80.8L416,80.8z"/>
			<path id="Path_524" class="st11" d="M418.7,76.7l39.7-20.5c3.2-1.6,7-1.6,10.2,0l14.8,7.7c1.8,0.8,2.7,3,1.8,4.8
				c-0.4,0.8-1,1.5-1.8,1.8L444,90.9c-4.4,2.2-9.5,2.2-13.9,0L418.7,85c-2.3-1-3.3-3.8-2.3-6.1C416.9,78,417.7,77.2,418.7,76.7"/>
			<path id="Path_525" class="st1" d="M433.5,92.2v69c2.4,0.5,4.8,0.5,7.2-0.1v-69C438.4,92.7,435.9,92.7,433.5,92.2"/>
			<path id="Path_526" class="st8" d="M526.8,139c0.4-0.3,0.7-0.6,1.2-0.8l39.7-20.5c3.2-1.6,7-1.6,10.2,0l11.7,6.1h5.2v69
				c0,1.4-0.8,2.7-2.1,3.4l-39.5,20.4c-4.4,2.2-9.5,2.2-13.9,0l-11.4-5.9c-1.6-0.8-2.7-2.4-2.7-4.2l0,0v-69.1L526.8,139z"/>
			<path id="Path_527" class="st1" d="M592.8,127.1l-38.3,19.8v69l38.3-19.8c1.3-0.6,2.1-1.9,2.1-3.4v-68.9
				C594.9,125.2,594,126.5,592.8,127.1"/>
			<path id="Path_528" class="st9" d="M525.3,137.4C525.3,137.4,525.3,137.4,525.3,137.4L525.3,137.4L525.3,137.4z"/>
			<path id="Path_529" class="st11" d="M528,133.3l39.7-20.5c3.2-1.6,7-1.6,10.2,0l14.8,7.7c1.8,0.8,2.7,3,1.8,4.8
				c-0.4,0.8-1,1.5-1.8,1.8l-39.5,20.4c-4.4,2.2-9.5,2.2-13.9,0l-11.4-5.9c-2.3-1-3.3-3.8-2.3-6.1C526.1,134.5,527,133.7,528,133.3"
				/>
			<path id="Path_530" class="st1" d="M542.8,148.8v69c2.4,0.5,4.8,0.5,7.2-0.1v-69C547.7,149.3,545.2,149.3,542.8,148.8"/>
			<path id="Path_531" class="st8" d="M644.9,200.2c0.4-0.3,0.7-0.6,1.2-0.8l39.7-20.5c3.2-1.6,7-1.6,10.2,0l11.7,6.1h5.2v69
				c0,1.4-0.8,2.7-2.2,3.4l-39.5,20.4c-4.4,2.2-9.5,2.2-13.9,0l-11.4-5.9c-1.6-0.8-2.7-2.4-2.7-4.2l0,0v-69.1L644.9,200.2z"/>
			<path id="Path_532" class="st1" d="M710.9,188.2L672.6,208v69l38.3-19.8c1.3-0.6,2.1-1.9,2.2-3.4v-68.9
				C713,186.3,712.2,187.6,710.9,188.2"/>
			<path id="Path_533" class="st9" d="M643.4,198.6C643.4,198.6,643.4,198.6,643.4,198.6L643.4,198.6L643.4,198.6z"/>
			<path id="Path_534" class="st11" d="M646.1,194.4l39.7-20.5c3.2-1.6,7-1.6,10.2,0l14.8,7.7c1.8,0.8,2.7,3,1.8,4.8
				c-0.4,0.8-1,1.5-1.8,1.8l-39.5,20.4c-4.4,2.2-9.5,2.2-13.9,0l-11.4-5.9c-2.3-1-3.3-3.8-2.3-6.1
				C644.3,195.7,645.1,194.9,646.1,194.4"/>
			<path id="Path_535" class="st1" d="M661,209.9v69c2.4,0.5,4.8,0.5,7.2-0.1v-69C665.8,210.4,663.3,210.5,661,209.9"/>
			<path id="Path_536" class="st21" d="M710.9,194.7l-22.8,11.8V240l22.8-11.8c1.3-0.6,2.1-1.9,2.1-3.4v-33.4
				C713,192.9,712.2,194.1,710.9,194.7"/>
			<path id="Path_537" class="st11" d="M710.9,226.6l-22.8,11.8v1.6l22.8-11.8c1.3-0.6,2.1-1.9,2.1-3.4v-1.6
				C713,224.7,712.2,226,710.9,226.6"/>
			<path id="Path_538" class="st34" d="M648,188.1c0.3-0.3,0.7-0.5,1.1-0.7l36.1-18.6c2.9-1.5,6.4-1.5,9.3,0l10.7,5.5h4.7v9.7
				c0,1.3-0.8,2.5-2,3.1L672,205.5c-4,2-8.6,2-12.6,0l-10.3-5.3c-1.5-0.7-2.4-2.2-2.4-3.8l0,0v-9.8L648,188.1z"/>
			<path id="Path_539" class="st34" d="M707.9,177.3l-34.8,17.9v9.7l34.8-17.9c1.2-0.6,1.9-1.7,2-3.1v-9.7
				C709.8,175.5,709,176.7,707.9,177.3"/>
			<path id="Path_540" class="st9" d="M646.6,186.6C646.6,186.6,646.6,186.7,646.6,186.6L646.6,186.6L646.6,186.6z"/>
			<path id="Path_541" class="st11" d="M649.1,182.9l36.1-18.6c2.9-1.5,6.4-1.5,9.3,0l13.5,6.9c1.7,0.8,2.4,2.7,1.7,4.4
				c-0.3,0.7-0.9,1.3-1.7,1.7L672,195.8c-4,2-8.6,2-12.6,0l-10.3-5.3c-2.1-0.9-3-3.4-2.1-5.5C647.4,184,648.2,183.3,649.1,182.9"/>
			<path id="Path_542" class="st34" d="M662.5,196.9v9.7c2.2,0.5,4.4,0.5,6.5-0.1v-9.7C666.9,197.4,664.7,197.4,662.5,196.9"/>
			<path id="Path_543" class="st3" d="M395.6,75.8c0.4-0.3,0.8-0.6,1.2-0.8l63.6-32.9c3.3-1.7,7.3-1.7,10.6,0l239.2,123.5h5.4v8.2
				c0,1.5-0.9,2.8-2.2,3.5L650,210.1c-4.5,2.3-9.9,2.3-14.4,0L396.9,86.8c-1.7-0.8-2.7-2.5-2.8-4.3l0,0v-8.3L395.6,75.8z"/>
			<path id="Path_544" class="st35" d="M395.6,75.8c0.4-0.3,0.8-0.6,1.2-0.8l63.6-32.9c3.3-1.7,7.3-1.7,10.6,0l239.2,123.5h5.4v8.2
				c0,1.5-0.9,2.8-2.2,3.5L650,210.1c-4.5,2.3-9.9,2.3-14.4,0L396.9,86.8c-1.7-0.8-2.7-2.5-2.8-4.3l0,0v-8.3L395.6,75.8z"/>
			<path id="Path_545" class="st3" d="M713.4,169l-62.1,32.1v8.3l62.1-32.1c1.3-0.6,2.2-2,2.2-3.5v-8.2
				C715.6,167.1,714.7,168.4,713.4,169"/>
			<path id="Path_546" class="st35" d="M713.4,169l-62.1,32.1v8.3l62.1-32.1c1.3-0.6,2.2-2,2.2-3.5v-8.2
				C715.6,167.1,714.7,168.4,713.4,169z"/>
			<path id="Path_547" class="st3" d="M394.1,74.2C394.1,74.2,394.1,74.2,394.1,74.2L394.1,74.2L394.1,74.2z"/>
			<path id="Path_548" class="st35" d="M394.1,74.2C394.1,74.2,394.1,74.2,394.1,74.2L394.1,74.2L394.1,74.2z"/>
			<g transform="matrix(1, 0, 0, 1, 0, 0)" class="st36">
				<path id="Path_549-2_1_" class="st37" d="M396.9,69.9L460.4,37c3.3-1.7,7.3-1.7,10.6,0l242.4,125.1c1.9,0.9,2.8,3.1,1.9,5
					c-0.4,0.8-1.1,1.5-1.9,1.9L650,201.8c-4.5,2.3-9.9,2.3-14.4,0L396.8,78.5c-2.4-1.1-3.4-3.9-2.4-6.3
					C395,71.2,395.8,70.4,396.9,69.9"/>
			</g>
			<path id="Path_550" class="st35" d="M396.9,69.9L460.4,37c3.3-1.7,7.3-1.7,10.6,0l242.4,125.1c1.9,0.9,2.8,3.1,1.9,5
				c-0.4,0.8-1.1,1.5-1.9,1.9L650,201.8c-4.5,2.3-9.9,2.3-14.4,0L396.9,78.5c-2.4-1.1-3.4-3.9-2.4-6.3
				C395,71.2,395.8,70.4,396.9,69.9z"/>
			<path id="Path_551" class="st3" d="M639.3,203.2v8.3c2.5,0.6,5,0.5,7.5-0.1v-8.3C644.3,203.7,641.7,203.7,639.3,203.2"/>
			<path id="Path_552" class="st35" d="M639.3,203.2v8.3c2.5,0.6,5,0.5,7.5-0.1v-8.3C644.3,203.7,641.7,203.7,639.3,203.2z"/>
			<path id="Path_553" class="st38" d="M655.6,244.9l-8.8-4.6v-21.4l8.8,4.6V244.9z"/>
			<path id="Path_554" class="st1" d="M647.6,239.9v-20.5l-0.9-0.4v21.4l8.8,4.6V244L647.6,239.9z"/>
			<path id="Path_555" class="st38" d="M537.8,184l-8.8-4.6V158l8.8,4.6V184z"/>
			<path id="Path_556" class="st1" d="M529.8,178.9v-20.5l-0.9-0.4v21.4l8.8,4.6V183L529.8,178.9z"/>
			<path id="Path_557" class="st38" d="M428.4,127.3l-8.8-4.6v-21.4l8.8,4.6L428.4,127.3z"/>
			<path id="Path_558" class="st1" d="M420.4,122.3v-20.5l-0.9-0.4v21.4l8.8,4.6v-0.9L420.4,122.3z"/>
			<path id="Path_559" class="st8" d="M552.4,333.8v3.1l-15.3-7.9v-3.2L552.4,333.8z"/>
			<path id="Path_560" class="st11" d="M537.2,325.9l15.3,7.9l30.3-15.6l-15.3-7.9L537.2,325.9z"/>
			<path id="Path_561" class="st1" d="M552.4,333.8v3.1l30.3-15.6v-3.1L552.4,333.8z"/>
			<path id="Path_562" class="st8" d="M549,321.6l3.4,12.1l-15.3-7.9l4.6-8L549,321.6z"/>
			<path id="Path_563" class="st12" d="M541.7,317.8l7.3,3.8l30.3-15.6l-7.3-3.8L541.7,317.8z"/>
			<path id="Path_564" class="st13" d="M549,321.6l3.4,12.1l30.3-15.6l-3.4-12.1L549,321.6z"/>
			<path id="Path_565" class="st8" d="M549,307.2v14.5l-7.3-3.8v-14.5L549,307.2z"/>
			<path id="Path_566" class="st10" d="M541.7,303.4l7.3,3.8l30.3-15.6l-7.3-3.8L541.7,303.4z"/>
			<path id="Path_567" class="st14" d="M549,307.2v14.5l30.3-15.6v-14.5L549,307.2z"/>
			<path id="Path_568" class="st8" d="M519.1,351v3.1l-15.3-7.9v-3.2L519.1,351z"/>
			<path id="Path_569" class="st11" d="M503.9,343.1l15.3,7.9l30.3-15.6l-15.3-7.9L503.9,343.1z"/>
			<path id="Path_570" class="st1" d="M519.1,351v3.1l30.3-15.6v-3.1L519.1,351z"/>
			<path id="Path_571" class="st8" d="M515.8,338.9l3.4,12.1l-15.3-7.9l4.6-8L515.8,338.9z"/>
			<path id="Path_572" class="st12" d="M508.4,335.1l7.3,3.8l30.3-15.6l-7.3-3.8L508.4,335.1z"/>
			<path id="Path_573" class="st13" d="M515.8,338.9l3.4,12.1l30.3-15.6l-3.4-12.1L515.8,338.9z"/>
			<path id="Path_574" class="st8" d="M515.8,324.4v14.5l-7.3-3.8v-14.5L515.8,324.4z"/>
			<path id="Path_575" class="st10" d="M508.4,320.6l7.3,3.8l30.3-15.6l-7.3-3.8L508.4,320.6z"/>
			<path id="Path_576" class="st14" d="M515.8,324.4v14.5l30.3-15.6v-14.5L515.8,324.4z"/>
			<path id="Path_577" class="st8" d="M485.9,368.2v3.1l-15.3-7.9v-3.2L485.9,368.2z"/>
			<path id="Path_578" class="st11" d="M470.6,360.3l15.3,7.9l30.3-15.6l-15.3-7.9L470.6,360.3z"/>
			<path id="Path_579" class="st1" d="M485.9,368.2v3.1l30.3-15.6v-3.1L485.9,368.2z"/>
			<path id="Path_580" class="st8" d="M482.5,356.1l3.4,12.1l-15.3-7.9l4.6-8L482.5,356.1z"/>
			<path id="Path_581" class="st12" d="M475.1,352.3l7.3,3.8l30.3-15.6l-7.3-3.8L475.1,352.3z"/>
			<path id="Path_582" class="st13" d="M482.5,356.1l3.4,12.1l30.3-15.6l-3.4-12.1L482.5,356.1z"/>
			<path id="Path_583" class="st8" d="M482.5,341.6v14.5l-7.3-3.8v-14.5L482.5,341.6z"/>
			<path id="Path_584" class="st10" d="M475.1,337.8l7.3,3.8l30.3-15.6l-7.3-3.8L475.1,337.8z"/>
			<path id="Path_585" class="st14" d="M482.5,341.6v14.5l30.3-15.6V326L482.5,341.6z"/>
			<path id="Path_586" class="st8" d="M452.6,385.5v3.1l-15.3-7.9v-3.2L452.6,385.5z"/>
			<path id="Path_587" class="st11" d="M437.3,377.6l15.3,7.9l30.3-15.6l-15.3-7.9L437.3,377.6z"/>
			<path id="Path_588" class="st1" d="M452.6,385.5v3.1l30.3-15.7v-3.1L452.6,385.5z"/>
			<path id="Path_589" class="st8" d="M449.2,373.3l3.4,12.1l-15.3-7.9l4.6-8L449.2,373.3z"/>
			<path id="Path_590" class="st12" d="M441.9,369.5l7.3,3.8l30.3-15.6l-7.3-3.8L441.9,369.5z"/>
			<path id="Path_591" class="st13" d="M449.2,373.3l3.4,12.1l30.3-15.6l-3.4-12.1L449.2,373.3z"/>
			<path id="Path_592" class="st8" d="M449.2,358.9v14.5l-7.3-3.8v-14.5L449.2,358.9z"/>
			<path id="Path_593" class="st10" d="M441.9,355.1l7.3,3.8l30.3-15.6l-7.3-3.8L441.9,355.1z"/>
			<path id="Path_594" class="st14" d="M449.2,358.9v14.5l30.3-15.6v-14.5L449.2,358.9z"/>
			<path id="Path_595" class="st8" d="M419.3,402.7v3.1l-15.3-7.9v-3.2L419.3,402.7z"/>
			<path id="Path_596" class="st11" d="M404,394.8l15.3,7.9l30.3-15.6l-15.3-7.9L404,394.8z"/>
			<path id="Path_597" class="st1" d="M419.3,402.7v3.1l30.3-15.6v-3.1L419.3,402.7z"/>
			<path id="Path_598" class="st8" d="M415.9,390.6l3.4,12.1l-15.3-7.9l4.6-8L415.9,390.6z"/>
			<path id="Path_599" class="st12" d="M408.6,386.8l7.3,3.8l30.3-15.6l-7.3-3.8L408.6,386.8z"/>
			<path id="Path_600" class="st13" d="M415.9,390.6l3.4,12.1l30.3-15.6l-3.4-12.1L415.9,390.6z"/>
			<path id="Path_601" class="st8" d="M415.9,376.1v14.5l-7.3-3.8v-14.5L415.9,376.1z"/>
			<path id="Path_602" class="st10" d="M408.6,372.3l7.3,3.8l30.3-15.6l-7.3-3.8L408.6,372.3z"/>
			<path id="Path_603" class="st14" d="M415.9,376.1v14.5l30.3-15.6v-14.5L415.9,376.1z"/>
			<path id="Path_604" class="st8" d="M386,419.9v3.1l-15.3-7.9V412L386,419.9z"/>
			<path id="Path_605" class="st11" d="M370.7,412l15.3,7.9l30.3-15.6l-15.3-7.9L370.7,412z"/>
			<path id="Path_606" class="st1" d="M386,419.9v3.1l30.3-15.6v-3.1L386,419.9z"/>
			<path id="Path_607" class="st8" d="M382.6,407.8l3.4,12.1l-15.3-7.9l4.6-8L382.6,407.8z"/>
			<path id="Path_608" class="st12" d="M375.3,404l7.3,3.8l30.3-15.6l-7.3-3.8L375.3,404z"/>
			<path id="Path_609" class="st13" d="M382.6,407.8l3.4,12.1l30.3-15.6l-3.4-12.1L382.6,407.8z"/>
			<path id="Path_610" class="st8" d="M382.6,393.3v14.5l-7.3-3.8v-14.5L382.6,393.3z"/>
			<path id="Path_611" class="st10" d="M375.3,389.5l7.3,3.8l30.3-15.6l-7.3-3.8L375.3,389.5z"/>
			<path id="Path_612" class="st14" d="M382.6,393.3v14.5l30.3-15.6v-14.5L382.6,393.3z"/>
			<path id="Path_613" class="st8" d="M352.7,437.2v3.1l-15.3-7.9v-3.2L352.7,437.2z"/>
			<path id="Path_614" class="st11" d="M337.4,429.3l15.3,7.9l30.3-15.6l-15.3-7.9L337.4,429.3z"/>
			<path id="Path_615" class="st1" d="M352.7,437.2v3.1l30.3-15.7v-3.1L352.7,437.2z"/>
			<path id="Path_616" class="st8" d="M349.3,425l3.4,12.1l-15.3-7.9l4.6-8L349.3,425z"/>
			<path id="Path_617" class="st12" d="M342,421.2l7.3,3.8l30.3-15.6l-7.3-3.8L342,421.2z"/>
			<path id="Path_618" class="st13" d="M349.3,425l3.4,12.1l30.3-15.6l-3.4-12.1L349.3,425z"/>
			<path id="Path_619" class="st8" d="M349.3,410.6V425l-7.3-3.8v-14.5L349.3,410.6z"/>
			<path id="Path_620" class="st10" d="M342,406.8l7.3,3.8l30.3-15.6l-7.3-3.8L342,406.8z"/>
			<path id="Path_621" class="st14" d="M349.3,410.6V425l30.3-15.6v-14.5L349.3,410.6z"/>
			<path id="Path_622" class="st8" d="M319.4,454.4v3.1l-15.3-7.9v-3.2L319.4,454.4z"/>
			<path id="Path_623" class="st11" d="M304.1,446.5l15.3,7.9l30.3-15.6l-15.3-7.9L304.1,446.5z"/>
			<path id="Path_624" class="st1" d="M319.4,454.4v3.1l30.3-15.6v-3.1L319.4,454.4z"/>
			<path id="Path_625" class="st8" d="M316,442.3l3.4,12.1l-15.3-7.9l4.6-8L316,442.3z"/>
			<path id="Path_626" class="st12" d="M308.7,438.5l7.3,3.8l30.3-15.6l-7.3-3.8L308.7,438.5z"/>
			<path id="Path_627" class="st13" d="M316,442.3l3.4,12.1l30.3-15.6l-3.4-12.1L316,442.3z"/>
			<path id="Path_628" class="st8" d="M316,427.8v14.5l-7.3-3.8V424L316,427.8z"/>
			<path id="Path_629" class="st10" d="M308.7,424l7.3,3.8l30.3-15.6l-7.3-3.8L308.7,424z"/>
			<path id="Path_630" class="st14" d="M316,427.8v14.5l30.3-15.6v-14.5L316,427.8z"/>
			<path id="Path_631" class="st8" d="M286.1,471.6v3.1l-15.3-7.9v-3.2L286.1,471.6z"/>
			<path id="Path_632" class="st11" d="M270.8,463.7l15.3,7.9l30.3-15.6l-15.3-7.9L270.8,463.7z"/>
			<path id="Path_633" class="st1" d="M286.1,471.6v3.1l30.3-15.6V456L286.1,471.6z"/>
			<path id="Path_634" class="st8" d="M282.7,459.5l3.4,12.1l-15.3-7.9l4.6-8L282.7,459.5z"/>
			<path id="Path_635" class="st12" d="M275.4,455.7l7.3,3.8l30.3-15.6l-7.3-3.8L275.4,455.7z"/>
			<path id="Path_636" class="st13" d="M282.7,459.5l3.4,12.1l30.3-15.6l-3.4-12.1L282.7,459.5z"/>
			<path id="Path_637" class="st8" d="M282.7,445v14.5l-7.3-3.8v-14.5L282.7,445z"/>
			<path id="Path_638" class="st10" d="M275.4,441.2l7.3,3.8l30.3-15.6l-7.3-3.8L275.4,441.2z"/>
			<path id="Path_639" class="st14" d="M282.7,445v14.5l30.3-15.6v-14.5L282.7,445z"/>
			<path id="Path_640" class="st10" d="M475.4,256.6l-5.9-3.1l-54.9,28.4l5.9,3.1L475.4,256.6z"/>
			<path id="Path_641" class="st10" d="M365,313.8l-5.9-3.1L304.2,339l5.9,3.1L365,313.8z"/>
			<path id="Path_642" class="st10" d="M254.6,370.9l-5.9-3.1l-54.9,28.4l5.9,3.1L254.6,370.9z"/>
		</g>
	</g>
</g>
</svg>
