<?xml version="1.0" encoding="utf-8"?>
<!-- Generator: Adobe Illustrator 25.0.0, SVG Export Plug-In . SVG Version: 6.00 Build 0)  -->
<svg version="1.1" id="Layer_1" xmlns="http://www.w3.org/2000/svg" xmlns:xlink="http://www.w3.org/1999/xlink" x="0px" y="0px"
	 viewBox="0 0 1866.2 357" style="enable-background:new 0 0 1866.2 357;" xml:space="preserve">
<style type="text/css">
	.st0{fill:none;stroke:#CAA2FC;stroke-width:6;stroke-miterlimit:10;}
</style>
<path class="st0" d="M7.1,281.6h108.1c0,0,22,2,23.5-12.4c1.5-14.3,2.2-167.7,2.2-167.7s-4.2,9.2,0-2.2c4.2-11.3,4.5-28.4,4.5-28.4
	s0.8,2.2,2.4-4.8c1.5-7.1,0.8-53.1,0.8-53.1h6.4c0,0,2-1.5,2.7,3.8c0.6,5.5,0,52.3,0,52.3s2.9,10.4,4.8,12.6c2,2.3,7,12.9,7,12.9
	s-0.6,2.4,0,4.7c0.6,2.3,7.4,17.9,7.4,17.9l1.4,3v150.2c0,0,0-2.3,6.1-3.3c6.1-1,9.8-1.8,13-1.8s32.6-1.4,32.6-1.4s-1.8,1.4,2.4-0.4
	c4.2-1.8,16.1-9.4,16.1-9.4s2.4-1.5,3.4-4.7c1-3.1,0-26.2,0-26.2s-1.1-2.6,3.1-5.2c4.2-2.7,26.6-20.7,26.6-20.7s5.2-1.8,8.2-0.8
	c3.1,0.8,6.5,0.6,8.3,2.4c1.8,1.8,31,24.8,31,24.8V268c0,0-7.4,2.9,10.1-2c17.6-4.8,14.6-12.2,60.6-11.7c46,0.4,75.8-0.8,75.8-0.8
	V126.3c0,0,3.7-28.5,6.5-31.3c2.9-2.9,4.8-1.5,7.8-0.4c2.9,1.2,4.5,22.3,4.5,22.3c2,3,8.1,3.1,8.1,3.1l8.6,0.1c0,0,2.6-0.6,2.6-3.1
	c0-2.4-0.4-14.5-0.4-17.2c0-0.3,0-0.6,0-0.6l1.8-8.9l4.2,0.1c0,0,0.1-1.1,0.8,1.7c0.6,2.9,0.6,8.3,0.6,8.3v5.7l1,2.4l3.4,2.7
	c0,0,2.6,0.1,4.8,4.1c2.3,4,4.9,8.5,4.9,11.3c0,2.8,0,34.3,0,34.3l18.6,0.1c0,0,0-35.6,2.6-43.3c2.6-7.6,7.5-18.7,7.8-23.9
	c0.1-5.2,5.9-28.2,4.8-29.5c-0.8-1.2,0.1-37.8,2.9-43.7c2.7-5.9,4.2-7.2,6.4-3.5c2,3.7,4.8,3.8,5.7,8.9c0.8,5.1,1.5,25.5,2,29.4
	c0.6,3.8,0,10.1,5.5,13.8c5.5,3.7,29.5,7.8,29.5,7.8s6.3,0.4,8.1,2.6c2,2.2,2,8.9,2,8.9s-0.1,3.4,1,5.3c1.1,2,14.1,3.1,14.1,3.1
	s13,0.8,13.4,1.7c0.3,0.8,2,0.6,1.2,11.1c-0.8,10.6,0.8,31,0.8,31s4.2,0.6,4.9-3.1s2-12.9,2-12.9s0.8-4.8,2.7-0.8
	c1.8,4,11.1,8.1,11.1,8.1l11.5,12.4c0,0,6.7,11.7,7.1,17.1c0.6,5.2,0,19.4,0,19.4s-1.4,5.1,0.3,4.1c1.7-0.8,10.2-16.3,20.2-15.8
	c10.1,0.5,18-1.5,24.7,2.3c6.7,3.8,21.7,11.3,25.7,17.3s4.8,9,4.4,9.2c-0.6,0.1,0.1,50.4,0.1,50.4h16.4c0,0,0.8-0.6,0.8-4.8
	c-0.1-4.2,0-54.5,0-54.5s-0.1-3,1.8-4.8c2-2,35.4-22.4,35.4-22.4l8.9-0.3c0,0,4.4,0.8,4.9,1.5c0.6,0.7,7.8,5.9,8.9,6.7
	c1.1,0.8,6.7,6.5,6.7,6.5l8.3,4.1l8.5,6.4l2.4,1.2l-1,98.1l19.5-81.7l16.9,64.6c0,0,3.1,8.1,3.4-10.8c0.3-18.8,0-31.4,0-31.4
	l4.7,0.1c0,0-2.4,22.3,2,24.6c4.4,2.4,4.1-2.2,4.4-4.5c0.3-2.4,11.6-66.1,11.6-66.1l18.7,81.7l2.9,0.1v-51.6v-78.4
	c0,0,0.7-8.6,10.4-10.5s52.4-2,52.4-2s12.6,1,12.9,10.2c0.1,9.2,0,150.4,0,150.4l8.2,1c0,0-2.4-0.8,4.8-11.2
	c7.4-10.4,19.7-25.5,26.1-27.9c6.4-2.4,11.3-0.7,14.9,2.4c3.5,3.3,17.1,14.6,17.1,14.6s8.5,2.2,8.1,5.1c-0.4,2.9,1.4,18,3.1,18.4
	c1.7,0.4,6,4,7.4,4s6.5,0,6.5,0l-0.8-150.4c0,0,4.8-11.9,11.6-12.6c6.7-0.6,24.7-0.8,24.7-0.8l18.6,1.1c0,0,13.8,4.2,14.3,6.5
	c0.6,2.3,3.7,10.4,3.7,14.2c0,3.8,0.7,27.7,0.7,27.7l-0.8,118.5l2.6,0.4l1.2-147.1v-27.7c0,0,5.1-12.7,4.9-14.3
	c-0.1-1.5-15-12.4-15-12.4s-0.8-3.1,5.7-6c6.5-2.9,24-1.5,24-1.5V48.8l4.1-1.4c0,0,0.1,14.2,1.5,15.7c1.2,1.5,3.4,8.8,5.2,8.6
	c1.8-0.1,7.8-6.8,8.9-6.5c1.2,0.3,5.7,8.6,7.2,7.4c1.5-1.2,5.1-0.1,5.1-0.1s0.8-4.7,3.8-5.1c2.9-0.4,6.4,3.8,6.4,3.8l1.4,2.2
	l6.7-0.1c0,0,1.8-3.3,2.4-5.7c0.6-2.4,2-3.4,2-3.4s4.9,8.3,7.1,8.1c2.2-0.1,5.5-0.3,5.5-0.3s0.8,0.1,2.4-1.2
	c1.5-1.2,3.4-5.7,3.4-5.7l0.8,15l-0.6,12.4c0,0-7.8,12.2-8.1,15.4c-0.4,3.3-0.8,98.1-0.8,98.1s3.5,2,3.4-3.7
	c-0.1-5.7,3.7-33.5,8.6-34c4.9-0.6,15.4-3.3,15.4-3.3s7.8-1.7,10.6,3.7c2.9,5.3,4,71.8,4,71.8l1,21.8c0,0,4.8,3.1,10.6,0.3
	c5.9-2.7,31.6,1,31.6,1s46,10,47.6,6.5c1.5-3.4,0.3-9.4,2.7-13.5c2.4-4.1,3.5-12.2,6.8-9.2c3.3,2.9,18.2,50.4,20.4,51.5
	c2.3,1,61.8,0.6,61.8,0.6s12.6,0.1,18.2,3.5s5.2,7.6,7.6,7.1c2.4-0.6,4.7,6.4,5.1,2.2c0.4-4.1,1.2-109.1,1.2-109.1
	s-0.1-19.8,1.1-19.8c1.2,0,4.8,0.7,5.3,1.7c0.6,1,2,6,2.2,9.5c0.1,3.4-0.6,121.9-0.6,121.9s5.2,5.2,9.2,0.6
	c4-4.6,15.7,3.4,16.3,10.2s-0.6,14.2,1.2,14.2c1.8,0,4,0,4,0v-14.7l144.5-1.2c0,0,8.2,15.3,13.2,6.4c4.9-8.9,2.9-6.4,2.9-6.4
	s0.1-1.7,2.2,2.6c2.1,4.3,10.2,4.7,10.2,4.7s6.7-3.7,6.3-7c-0.4-3.3,0.7,7.1,3.8,7s7.1,1.2,7.9-0.4c0.8-1.7,2.4-7.2,4.8-6.5
	c2.4,0.6,53.3,0,53.3,0s19-8.3,16.1-13.4c-2.7-4.8-81.9-51.9-88.6-53.1c-6.7-1.2-205.4,0.8-205.4,0.8"/>
<path class="st0" d="M851.3,114.5c0,0,67.6-16.4,70-17.2s5.5-1.5,5.5-1.5l2.7,1.8c0,0-6.7,16.3-8.5,19.4c-1.8,3.1-6.7,4.7-6.7,4.7
	l4.8,6h8.5l3.5-3.7c0,0,30.3-36.7,31.9-37.8c1.5-1.2,7-6.7,13.2-7.1c6.4-0.4,40.4-18.2,40.4-18.2s6.5-6,6.7-7.9
	c0.1-2-0.4-4.7-2.4-5.5s-29.2,0-29.2,0L868.3,95.4c0,0-5.5,0.4-13.6-5.1c-8.1-5.5-19-8.5-22.7-8.5c-3.7,0-4.7,1.2-4.1,2.9
	C828.8,86,851.3,114.5,851.3,114.5z"/>
<path class="st0" d="M884.8,61.9c-6,1-11.3-6.7-11.3-6.7h-4.8c0,0,2.9,10.6,4.8,11.2c2,0.6,27.5,11.1,27.5,11.1s7.5-1.8,14.9-5.2"/>
</svg>
