<?xml version="1.0" encoding="utf-8"?>
<!-- Generator: Adobe Illustrator 25.0.1, SVG Export Plug-In . SVG Version: 6.00 Build 0)  -->
<svg version="1.1" id="Layer_1" xmlns="http://www.w3.org/2000/svg" xmlns:xlink="http://www.w3.org/1999/xlink" x="0px" y="0px"
	 viewBox="0 0 1852.9 421" style="enable-background:new 0 0 1852.9 421;" xml:space="preserve">
<style type="text/css">
	.st0{fill:none;stroke:#CAA2FC;stroke-width:12;stroke-miterlimit:10;}
	.st1{fill:none;}
	.st2{fill:#FFFFFF;}
	.st3{font-family:'RobotoMono-Regular';}
	.st4{font-size:150px;}
</style>
<path class="st0" d="M0,275.7h108.1l0,0c0.2,0,22,1.9,23.5-12.4c1.4-13.8,2.2-157.5,2.2-167.2c0-0.1-0.2-0.2-0.2,0
	c-0.8,1.7-3.4,7.1,0.2-2.7c4.2-11.3,4.5-28.4,4.5-28.4s0.8,2.2,2.4-4.8c1.5-6.9,0.8-50.5,0.8-53c0-0.1,0.1-0.1,0.1-0.1h6.3
	c0,0,2-1.5,2.7,3.8c0.6,5.5,0,51.6,0,52.3l0,0c0.1,0.3,2.9,10.4,4.8,12.6c1.9,2.2,6.7,12.2,7,12.9c0,0,0,0,0,0.1
	c-0.1,0.3-0.5,2.5,0,4.7c0.6,2.3,7.4,17.9,7.4,17.9l1.4,3l0,0v150.2c0,0,0-2.3,6.1-3.3s9.8-1.8,13-1.8s32.6-1.4,32.6-1.4
	s-1.8,1.4,2.4-0.4c4.2-1.8,16.1-9.4,16.1-9.4s2.4-1.5,3.4-4.7c1-3.1,0-26.2,0-26.2s-1.1-2.6,3.1-5.2c4.2-2.7,26.1-20.3,26.6-20.7
	l0,0c0.3-0.1,5.3-1.8,8.2-0.8c3.1,0.8,6.5,0.6,8.3,2.4c1.8,1.8,29.8,23.8,31,24.8v0.1v44c0,0,0,0.1-0.1,0.1c-0.7,0.3-6.3,2.6,10.2-2
	c17.6-4.8,14.6-12.2,60.6-11.7c44.5,0.4,73.8-0.7,75.7-0.8c0.1,0,0.1-0.1,0.1-0.1V120.4l0,0c0-0.2,3.7-28.5,6.5-31.3
	c2.9-2.9,4.8-1.5,7.8-0.4c2.8,1.2,4.4,21.4,4.5,22.3c0,0,0,0,0,0.1c2,3,8.1,3.1,8.1,3.1l8.6,0.1l0,0c0.1,0,2.6-0.7,2.6-3.1
	s-0.4-14.5-0.4-17.2c0-0.3,0-0.6,0-0.6l1.8-8.8c0-0.1,0.1-0.1,0.1-0.1l4.1,0.1c0,0,0.1-1.1,0.8,1.7c0.6,2.9,0.6,8.3,0.6,8.3v5.7l0,0
	l1,2.4l0,0l3.3,2.7c0,0,0,0,0.1,0c0.3,0,2.7,0.3,4.8,4.1c2.3,4,4.9,8.5,4.9,11.3V155c0,0.1,0.1,0.1,0.1,0.1l18.4,0.1
	c0.1,0,0.1,0,0.1-0.1c0-2.2,0.1-35.7,2.6-43.2c2.6-7.6,7.5-18.7,7.8-23.9c0.1-5.2,5.9-28.2,4.8-29.5c-0.8-1.2,0.1-37.8,2.9-43.7
	c2.7-5.9,4.2-7.2,6.4-3.5c2,3.7,4.8,3.8,5.7,8.9c0.8,5.1,1.5,25.5,2,29.4c0.6,3.8,0,10.1,5.5,13.8s29.3,7.8,29.5,7.8l0,0
	c0.1,0,6.3,0.4,8.1,2.6c2,2.2,2,8.9,2,8.9s-0.1,3.4,1,5.3c1.1,2,14.1,3.1,14.1,3.1s13,0.8,13.4,1.7c0.3,0.8,2,0.6,1.2,11.1
	c-0.8,10.2,0.7,29.5,0.8,30.9c0,0.1,0,0.1,0.1,0.1c0.6,0.1,4.2,0.3,4.8-3.1c0.7-3.7,2-12.9,2-12.9s0.8-4.8,2.7-0.8
	c1.8,3.9,10.7,7.9,11.1,8.1l0,0l11.5,12.4l0,0c0.1,0.2,6.7,11.8,7.1,17.1c0.6,5.1,0,19.1,0,19.4l0,0c0,0.2-1.4,5.1,0.3,4.1
	c1.7-0.8,10.2-16.3,20.2-15.8c10.1,0.5,18-1.5,24.7,2.3s21.7,11.3,25.7,17.3s4.8,9,4.4,9.2c-0.6,0.1,0.1,47.8,0.1,50.3
	c0,0.1,0.1,0.1,0.1,0.1h16.2h0.1c0.2-0.2,0.8-1.1,0.8-4.8c-0.1-4.2,0-54.5,0-54.5s-0.1-3,1.8-4.8c2-2,34.4-21.8,35.4-22.4
	c0,0,0,0,0.1,0l8.9-0.3l0,0c0.2,0,4.4,0.8,4.9,1.5c0.6,0.7,7.8,5.9,8.9,6.7c1.1,0.8,6.4,6.2,6.7,6.5l0,0l8.3,4.1l0,0l8.5,6.4l0,0
	l2.3,1.2l0.1,0.1L869,288.2c0,0.4,0.6,0.5,0.7,0.1l20.5-89.4c0-0.1,0.2-0.1,0.2,0l16.8,64.2c0,0,3.1,8.1,3.4-10.8
	c0.3-17.8,0-30,0-31.3c0-0.1,0.1-0.1,0.1-0.1l4.5,0.1c0.1,0,0.1,0.1,0.1,0.1c-0.2,1.8-2.2,22.3,2,24.5c4.4,2.4,4.1-2.2,4.4-4.5
	c0.3-2.3,10.4-59.3,11.5-65.6c0-0.1,0.2-0.1,0.2,0l18.6,81.1c0,0.1,0.1,0.1,0.1,0.1l2.7,0.1c0.1,0,0.1,0,0.1-0.1v-51.5v-78.4l0,0
	c0-0.1,0.8-8.6,10.4-10.5c9.7-1.9,52.2-2,52.4-2l0,0c0.1,0,12.6,1,12.9,10.2c0.1,9.1,0,146.2,0,150.3c0,0.1,0,0.1,0.1,0.1l7.7,0.9
	c0.1,0,0.2-0.1,0.1-0.2c-0.4-0.7-0.5-3,5-11c7.4-10.4,19.7-25.5,26.1-27.9s11.3-0.7,14.9,2.4c3.4,3.2,16.6,14.2,17.1,14.6l0,0
	c0.4,0.1,8.5,2.3,8.1,5.1c-0.4,2.9,1.4,18,3.1,18.4s6,4,7.4,4h6.4c0.1,0,0.1-0.1,0.1-0.1l-0.8-150.3l0,0c0.2-0.4,4.9-11.9,11.6-12.6
	c6.7-0.6,24.6-0.8,24.7-0.8l0,0l18.6,1.1l0,0c0.3,0.1,13.8,4.2,14.3,6.5c0.6,2.3,3.7,10.4,3.7,14.2s0.7,27.7,0.7,27.7l-0.8,118.4
	c0,0.1,0,0.1,0.1,0.1l2.4,0.4c0.1,0,0.1,0,0.1-0.1l1.2-147V111l0,0c0.2-0.5,5.1-12.7,4.9-14.3c-0.1-1.5-14.2-11.8-15-12.4
	c0,0,0,0,0-0.1c-0.1-0.4-0.4-3.3,5.7-6c6.2-2.8,22.3-1.6,23.9-1.5c0.1,0,0.1,0,0.1-0.1V43c0,0,0-0.1,0.1-0.1l3.9-1.3
	c0.1,0,0.1,0,0.1,0.1c0,1.5,0.2,14.1,1.5,15.5c1.2,1.5,3.4,8.8,5.2,8.6c1.8-0.1,7.8-6.8,8.9-6.5c1.2,0.3,5.7,8.6,7.2,7.4
	c1.3-1.1,4.4-0.3,5-0.1c0.1,0,0.1,0,0.1-0.1c0.1-0.7,1.1-4.6,3.8-5c2.9-0.4,6.3,3.7,6.4,3.8l0,0l1.4,2.1l0.1,0.1l6.6-0.1
	c0,0,0.1,0,0.1-0.1c0.2-0.4,1.8-3.4,2.4-5.6c0.5-2,1.6-3,1.9-3.3c0.1,0,0.1,0,0.2,0c0.6,1,5,8.2,7,8c2.2-0.1,5.5-0.3,5.5-0.3
	s0.8,0.1,2.4-1.2c1.2-1,2.7-4.1,3.2-5.3c0-0.1,0.2-0.1,0.2,0l0.8,14.5l0,0l-0.6,12.4c0,0,0,0,0,0.1c-0.4,0.6-7.8,12.3-8.1,15.4
	c-0.4,3.3-0.8,95.3-0.8,98c0,0,0,0.1,0.1,0.1c0.5,0.2,3.4,1.5,3.3-3.7c-0.1-5.7,3.7-33.5,8.6-34c4.9-0.6,15.4-3.3,15.4-3.3
	s7.8-1.7,10.6,3.7c2.9,5.3,4,71.8,4,71.8l1,21.7v0.1c0.5,0.3,5.1,2.9,10.6,0.3c5.9-2.7,31.5,1,31.6,1l0,0c0.2,0,46,10,47.6,6.5
	c1.5-3.4,0.3-9.4,2.7-13.5c2.4-4.1,3.5-12.2,6.8-9.2c3.3,2.9,18.1,50.2,20.4,51.5l0,0c2.5,1,61.8,0.6,61.8,0.6s12.6,0.1,18.2,3.5
	s5.2,7.6,7.6,7.1c2.4-0.6,4.7,6.4,5.1,2.2c0.4-4.1,1.2-109.1,1.2-109.1s-0.1-19.8,1.1-19.8s4.8,0.7,5.3,1.7c0.6,1,2,6,2.2,9.5
	c0.1,3.4-0.6,119.2-0.6,121.9v0.1c0.4,0.4,5.4,5,9.2,0.6c4-4.6,15.7,3.4,16.3,10.2s-0.6,14.2,1.2,14.2h3.9c0.1,0,0.1-0.1,0.1-0.1
	V321c0-0.1,0.1-0.1,0.1-0.1l144.3-1.2c0,0,0.1,0,0.1,0.1c0.5,1,8.3,14.9,13.2,6.3c4.9-8.9,2.9-6.4,2.9-6.4s0.1-1.7,2.2,2.6
	c2,4.1,9.6,4.7,10.2,4.7c0,0,0,0,0.1,0c0.4-0.2,6.7-3.8,6.3-7c-0.4-3.3,0.7,7.1,3.8,7s7.1,1.2,7.9-0.4c0.8-1.7,2.4-7.2,4.8-6.5
	c2.4,0.6,52.3,0,53.3,0l0,0c0.6-0.2,18.9-8.4,16.1-13.4c-2.7-4.8-81.9-51.9-88.6-53.1s-205.4,0.8-205.4,0.8"/>
<path class="st0" d="M844.2,108.6c0,0,67.6-16.4,70-17.2s5.5-1.5,5.5-1.5l2.7,1.8c0,0-6.7,16.3-8.5,19.4s-6.7,4.7-6.7,4.7l4.8,6h8.5
	l3.5-3.7c0,0,30.3-36.7,31.9-37.8c1.5-1.2,7-6.7,13.2-7.1c6.4-0.4,40.4-18.2,40.4-18.2s6.5-6,6.7-7.9c0.1-2-0.4-4.7-2.4-5.5
	s-29.2,0-29.2,0L861.2,89.5c0,0-5.5,0.4-13.6-5.1s-19-8.5-22.7-8.5s-4.7,1.2-4.1,2.9C821.7,80.1,844.2,108.6,844.2,108.6z"/>
<path class="st0" d="M877.7,56c-6,1-11.3-6.7-11.3-6.7h-4.8c0,0,2.9,10.6,4.8,11.2c2,0.6,27.5,11.1,27.5,11.1s7.5-1.8,14.9-5.2"/>
<rect x="254.4" y="271.7" class="st1" width="748.6" height="117"/>
<text transform="matrix(1 0 0 1 254.3615 384.2002)" class="st2 st3 st4">Cityscan</text>
</svg>
