<?xml version="1.0" encoding="utf-8"?>
<!-- Generator: Adobe Illustrator 25.0.1, SVG Export Plug-In . SVG Version: 6.00 Build 0)  -->
<svg version="1.1" id="Group_129" xmlns="http://www.w3.org/2000/svg" xmlns:xlink="http://www.w3.org/1999/xlink" x="0px" y="0px"
	 viewBox="0 0 821.3 485.1" style="enable-background:new 0 0 821.3 485.1;" xml:space="preserve">
<style type="text/css">
	.st0{fill-rule:evenodd;clip-rule:evenodd;fill:#23036A;}
	.st1{fill-rule:evenodd;clip-rule:evenodd;fill:#F2E7FE;}
	.st2{fill-rule:evenodd;clip-rule:evenodd;fill:#B5BDE8;}
	.st3{fill-rule:evenodd;clip-rule:evenodd;fill:#BB86FC;}
	.st4{fill-rule:evenodd;clip-rule:evenodd;fill:#8563B7;}
	.st5{fill-rule:evenodd;clip-rule:evenodd;fill:#EDDCFF;}
	.st6{fill-rule:evenodd;clip-rule:evenodd;fill:#483C96;}
	.st7{fill-rule:evenodd;clip-rule:evenodd;fill:#1F1754;}
	.st8{fill-rule:evenodd;clip-rule:evenodd;fill:#766DB5;}
	.st9{fill-rule:evenodd;clip-rule:evenodd;fill:#FFFFFF;}
	.st10{fill-rule:evenodd;clip-rule:evenodd;fill:#A69EDE;}
	.st11{fill-rule:evenodd;clip-rule:evenodd;fill:#5D477C;}
	.st12{fill-rule:evenodd;clip-rule:evenodd;fill:#DBB2FF;}
</style>
<g id="Group_128">
	<path id="Path_735" class="st0" d="M12.2,377.6c-4.1,2.4-7,4.3-8.9,6.4c-0.9-0.2-1.8-0.1-2.6,0.2v5.9v0.3c-0.1,0.6-0.1,1.1,0,1.7
		l0,0c0.5,3.7,4.3,6.6,10.5,10.3l132.5,77.2c14.9,8.9,25.7,6.3,40-1.7c9.5-5.3,74.8-42.9,195.6-112.8l433.5-250c5.1-3,7.4-5.9,7.2-9
		l0,0c0-4.3,0-6.5,0-6.5c-1.4-1.5-3.5-1.9-5.3-1.2l-0.4,0.2c-1.4-1-2.9-1.9-4.4-2.8l-149-84.8c-5.5-3.1-10.4-1.6-21.2,4.6
		L12.2,377.6z"/>
	<g>
		<path id="Path_736-2" class="st1" d="M12.2,368.3c-7.6,4.4-10.9,6.8-11.6,12.8c-0.5,4.6,3.4,7.8,10.5,11.9l132.5,77.2
			c14.9,8.9,25.7,6.3,40-1.7l629.2-362.8c10.5-6.2,9.5-12.3-3-19.3l-149-84.8c-5.5-3.1-10.4-1.6-21.2,4.6L12.2,368.3z"/>
	</g>
	<path id="Path_737" class="st2" d="M579.3,221.4c9.1,4.8,11,4.1,22.2-2.3l100-57.4l6.3-3.6c6.1-3.4,5.6-7.6-0.3-11L651,114.6
		c-5.5-3.3-9.4-2.6-15.9,1.2L521.6,181c-3.7,2.2-3.5,5.3,0.6,7.7L579.3,221.4z"/>
	<path id="Path_738" class="st3" d="M642.4,117.2c-46.4,43.9-60.1,73.7-41.1,89.4c28.6,23.5,41.1-23.9,123-71.5
		c3.9-2,5.3-5.2,5.3-10c-0.1-31.2,0.2-46.4,0.3-47.6L642.4,117.2z"/>
	<path id="Path_739" class="st4" d="M551.8,150.1c21.6,4.3,41.3,15.4,56.2,31.6c-4.4,7.6-6.8,16.2-6.7,24.9L545.1,175
		C545.1,166.2,547.4,157.6,551.8,150.1"/>
	<path id="Path_740" class="st5" d="M574.3,131.5c30.4,9.6,49.1,20.2,56.2,31.6l-22.5,18.5l-56.2-31.6L574.3,131.5"/>
	<path id="Path_741" class="st4" d="M574.3,131.5l56.2,31.6l14.2-27.3c3-5.7,5.7-10.5,13.5-14.9l68.5-39.8c4.3-2.5,4.2-5-0.3-7.5
		l-42.3-24.7c-3.5-2.1-6.9-1.9-10.9,0.5l-69.6,39.9c-6.4,3.6-11.2,7.7-14.9,14.9L574.3,131.5z"/>
	<path id="Path_742" class="st6" d="M640.6,136.1l-49.9-27.9l-11.5,21.6l13,7.3c0.9-0.1,1.8-0.1,2.8-0.1c2.1,0,4.2,0.3,6.2,1
		c0.5,0.1,1,0.3,1.6,0.4c0.3,0.1,0.6,0.2,0.9,0.3c0.7,0.1,1.3,0.3,2,0.5c0.4,0.1,0.8,0.2,1.2,0.4s0.8,0.2,1.2,0.3
		c2.1,0.6,4.1,1.2,6.2,1.8c0.5,0.1,1,0.2,1.5,0.4s0.8,0.2,1.2,0.3c0.6,0.2,1.3,0.3,1.9,0.6c1.4,0.4,2.8,0.9,4.2,1.3l-2.6-1.1h7.1
		c0.4-0.1,0.8-0.2,1.3-0.3s0.8-0.3,1.2-0.4s1-0.4,1.5-0.6c0.7-0.4,1.5-0.7,2.3-1l0.5-0.3c1.7-1.3,3.6-2.4,5.6-3.1L640.6,136.1z"/>
	<path id="Path_743" class="st0" d="M679.1,134.1l-38.2,22.5l9.9-19c2.4-5.6,6.6-10.3,12-13.2l16.2-9.4
		C679,127.7,679,134.1,679.1,134.1"/>
	<path id="Path_744" class="st0" d="M684,111.8l20.8-12v19.3l-20.8,12V111.8z"/>
	<path id="Path_745" class="st0" d="M708.7,97.6l15.8-9.1v19.3l-15.8,9.1V97.6z"/>
	<path id="Path_746" class="st7" d="M628.7,174.5c3.7-2.2,7-2.5,9.3-1.4l0.2,0.1l0,0l5.2,2.8c-0.5,0.8-1.4,1.3-2.4,1.4
		c0.2,0.7,0.2,1.5,0.2,2.2c0,7-5.6,15.9-12.6,20c-1.3,0.8-2.8,1.4-4.3,1.8c0.4,0.7,0.5,1.6,0.2,2.4l-5.2-2.7l0,0
		c-2-1-3.2-3.3-3.2-6.5C616.1,187.6,621.8,178.6,628.7,174.5"/>
	<path id="Path_747" class="st8" d="M634.5,177.6c7-4.1,12.6-1.8,12.6,5.2s-5.6,15.9-12.6,20s-12.6,1.8-12.6-5.2
		S627.5,181.6,634.5,177.6"/>
	<path id="Path_748" class="st9" d="M634.5,181.8c4.6-2.7,8.3-1.2,8.3,3.4s-3.7,10.5-8.3,13.2s-8.3,1.2-8.3-3.4
		S629.9,184.5,634.5,181.8"/>
	<path id="Path_749" class="st10" d="M634.5,187.3c1.5-0.9,2.8-0.4,2.8,1.1c-0.2,1.8-1.2,3.5-2.8,4.4c-1.5,0.9-2.8,0.4-2.8-1.1
		C631.8,190,632.9,188.3,634.5,187.3"/>
	<path id="Path_750" class="st7" d="M708.7,126.4c3.7-2.2,7-2.5,9.3-1.4l0.2,0.1l0,0l5.2,2.8c-0.5,0.8-1.4,1.3-2.4,1.4
		c0.2,0.7,0.2,1.5,0.2,2.2c0,7-5.6,15.9-12.6,20c-1.3,0.8-2.8,1.4-4.3,1.8c0.4,0.7,0.5,1.6,0.2,2.4l-5.3-2.8l0,0
		c-2-1-3.2-3.3-3.2-6.5C696.1,139.4,701.8,130.5,708.7,126.4"/>
	<path id="Path_751" class="st8" d="M714.5,129.4c7-4.1,12.6-1.8,12.6,5.2c0,7-5.6,15.9-12.6,20s-12.6,1.8-12.6-5.2
		S707.5,133.5,714.5,129.4"/>
	<path id="Path_752" class="st9" d="M714.5,133.7c4.6-2.7,8.3-1.2,8.3,3.4s-3.7,10.5-8.3,13.2s-8.3,1.2-8.3-3.4
		S709.9,136.4,714.5,133.7"/>
	<path id="Path_753" class="st10" d="M714.5,139.2c1.5-0.9,2.8-0.4,2.8,1.1c-0.2,1.8-1.2,3.5-2.8,4.4c-1.5,0.9-2.8,0.4-2.8-1.1
		C711.9,141.8,712.9,140.2,714.5,139.2"/>
	<path id="Path_754" class="st9" d="M671.5,141.8l6.5-3.8c0.7-0.4,1.2,0,1.2,0.9v1c0,0.9-0.4,1.7-1.2,2.3l-6.5,3.8
		c-0.7,0.4-1.2,0-1.2-0.9v-1C670.4,143.2,670.8,142.4,671.5,141.8"/>
	<path id="Path_755" class="st11" d="M545.6,164.4l54.2,30.7c2,1.4,3.2,3.7,3.2,6.1v3.7c0,2.3-1.5,3.4-3.2,2.4l-54.2-30.7
		c-2-1.4-3.2-3.7-3.2-6.1v-3.7C542.4,164.4,543.9,163.3,545.6,164.4"/>
	<path id="Path_756" class="st9" d="M597.1,196.1l-10.1-5.8c-1-0.6-1.9,0-1.9,1.4v1.6c0,1.4,0.7,2.7,1.9,3.6l10.1,5.8
		c1,0.6,1.9,0,1.9-1.4v-1.6C598.9,198.3,598.2,196.9,597.1,196.1"/>
	<path id="Path_757" class="st9" d="M558.9,174.4l-10.1-5.8c-1-0.6-1.9,0-1.9,1.4v1.6c0,1.4,0.7,2.7,1.9,3.6l10.1,5.8
		c1,0.6,1.9-0.1,1.9-1.4V178C560.7,176.6,560,175.2,558.9,174.4"/>
	<path id="Path_758" class="st12" d="M647.2,114.4c4.6,2.4,5.6,2.1,11.3-1.2l54-31c1.5-0.8,2.2-1.8,2.2-2.7l0,0c0-0.2,0-2.4,0-6.8
		c-1.9-0.9-4.1-0.1-5,1.8c0,0,0,0,0,0c-0.1,0.2-0.1,0.3-0.2,0.5l-25.9-14.9c-2.8-1.7-4.8-1.3-8.1,0.6l-50.8,29.2
		c-1.3-2.5-4.3-3.5-6.9-2.3c0,0,0,0,0,0c-0.5,0.2-0.9,0.5-1.3,0.9c0,0,0,2.3,0,6.8c0,0.2,0,0.3,0,0.5c0.2,0.8,0.8,1.5,1.6,1.9
		L647.2,114.4z"/>
	<path id="Path_759" class="st5" d="M647.2,107.3c4.6,2.4,5.6,2.1,11.3-1.2l54-31c3.1-1.7,2.9-3.8-0.2-5.6l-28.8-16.5
		c-2.8-1.7-4.8-1.3-8.1,0.6l-57.6,33.1c-1.9,1.1-1.8,2.7,0.3,3.9L647.2,107.3z"/>
	<path id="Path_760" class="st0" d="M590.8,136.2l38.3,21.4l11.4-21.4H590.8z"/>
	<path id="Path_761" class="st2" d="M312.2,289.1c10.8,5.7,13,4.8,26.3-2.7l118.5-68l0,0l7.5-4.3c7.3-4.1,6.7-9-0.4-13.1l-67-38.5
		c-6.6-3.9-11.1-3.1-18.8,1.4l-134.4,77.3c-4.4,2.6-4.1,6.2,0.7,9.1L312.2,289.1z"/>
	<path id="Path_762" class="st11" d="M371,120.3c-2.4,32.6,0.9,53.2,10,62l43.1-26.1c4.3,1.6,9,2.3,13.6,2.1
		c13.4-0.7,24.3-9.5,27.4-22.3l-55.5-31.7c-0.9-0.7-1.9-1.3-3-1.7l0,0c-2.2-1-4.8-0.9-7,0.3L371,120.3z"/>
	<path id="Path_763" class="st3" d="M429.1,154.1c-5.7,32.6-4.4,53.2,3.8,62l53.4-30.4c2-1.1,2.3-2.9,2.3-5c0-1.5,0-5.8,0-13
		c-0.4-10.3-0.2-11-7.7-18.3l-10.3-10.1c-3.8-3.6-7.5-4.5-11.2-2.6L429.1,154.1z"/>
	<path id="Path_764" class="st12" d="M322.6,275.2c4.5,1.5,7.2,0.2,14.8-4.1l92.8-53.2c2.6-1.4,3.8-3,3.8-4.6v-0.1
		c0-1.9,0-27.8,0-77.9c-63.7,22.3-102,41.8-114.8,58.4c1.5,2.9,2.3,6.1,2.3,9.4v23.1c0,1.2-0.1,2.5-0.4,3.7v2c0,1.3-0.1,2.5-0.4,3.8
		v5.5c0,1.3-0.1,2.5-0.4,3.8v8.1c0.3,1.6,0.4,3.2,0.6,4.8c0.1,1.3,0.2,2.5,0.1,3.8c0.1,0.5,0.2,1,0.2,1.6c0.3,1.5,0.5,3.1,0.7,4.7
		c0,0.3,0.1,0.6,0.1,0.9c0.3,1.4,0.4,2.8,0.4,4.1L322.6,275.2"/>
	<path id="Path_765" class="st3" d="M265.5,163.2c33.8,7.9,54,19.3,60.5,34.4c-0.1,23.9-0.1,50-0.1,78.3c-1.6,0.1-4.2-0.8-7.9-2.7
		l-47.4-27.2c-2.9-1.7-5.1-3.5-5.1-6.2C265.5,233.5,265.6,208.2,265.5,163.2"/>
	<path id="Path_766" class="st4" d="M318,194.8c8,4.2,9.6,3.6,19.4-2l92.8-53.2c5.4-3,4.9-6.6-0.3-9.6l-49.4-28.4
		c-4.8-2.9-8.2-2.3-13.9,1.1l-99,56.9c-3.2,1.9-3,4.6,0.5,6.7L318,194.8z"/>
	<path id="Path_767" class="st7" d="M364.3,236.6c4.6-2.6,8.8-2.7,11.4-0.8l0,0l6.1,4.5c-0.9,0.8-2.1,1.1-3.3,0.9
		c0.1,0.5,0.1,1.1,0.1,1.6c0,7.9-6.4,17.9-14.3,22.3c-1.3,0.7-2.6,1.3-4,1.7c0.5,1.4,0.2,2.9-0.6,4l-6.6-4.8l0,0l-0.1-0.1l0,0
		c-1.8-1.4-2.9-3.8-2.9-7C350.1,251,356.5,241.1,364.3,236.6"/>
	<path id="Path_768" class="st8" d="M370.5,241.1c7.9-4.4,14.3-1.6,14.3,6.2s-6.4,17.9-14.3,22.3s-14.3,1.7-14.3-6.2
		C356.2,255.6,362.6,245.6,370.5,241.1"/>
	<path id="Path_769" class="st9" d="M370.5,246.6c4.9-2.7,8.8-1,8.8,3.8s-3.9,11-8.8,13.8s-8.8,1-8.8-3.9
		C361.7,255.5,365.7,249.4,370.5,246.6"/>
	<path id="Path_770" class="st10" d="M370.5,253c1.3-0.8,2.4-0.3,2.4,1.1c-0.1,1.6-1.1,3-2.4,3.8c-1.3,0.8-2.4,0.3-2.4-1.1
		C368.2,255.2,369.1,253.8,370.5,253"/>
	<path id="Path_771" class="st7" d="M452.5,188.1c4.6-2.6,8.8-2.7,11.4-0.8l0,0l6.1,4.5c-0.9,0.8-2.1,1.1-3.3,0.9
		c0.1,0.5,0.1,1.1,0.1,1.6c0,7.9-6.4,17.9-14.3,22.3c-1.3,0.7-2.6,1.3-4,1.7c0.5,1.4,0.2,2.9-0.6,4l-6.6-4.8l0,0l-0.1-0.1l0,0
		c-1.8-1.4-2.9-3.8-2.9-7C438.2,202.5,444.6,192.5,452.5,188.1"/>
	<path id="Path_772" class="st8" d="M458.6,192.6c7.9-4.4,14.3-1.6,14.3,6.2s-6.4,17.9-14.3,22.3s-14.3,1.6-14.3-6.2
		S450.8,197.1,458.6,192.6"/>
	<path id="Path_773" class="st9" d="M458.6,198.1c4.9-2.7,8.8-1,8.8,3.9s-3.9,11-8.8,13.8s-8.8,1-8.8-3.8S453.8,200.8,458.6,198.1"
		/>
	<path id="Path_774" class="st10" d="M458.6,204.5c1.3-0.8,2.4-0.3,2.4,1.1c-0.1,1.6-1.1,3-2.4,3.8c-1.3,0.8-2.4,0.3-2.4-1.1
		C456.4,206.7,457.3,205.3,458.6,204.5"/>
	<path id="Path_775" class="st0" d="M443.9,152.9l20.6-11.7c1-0.8,2.5-0.7,3.4,0.2l0,0l9.1,9.8c3,3,2.7,5.5-0.9,7.4l-6.1,3.5
		l-14.2,8.1l-11.9,6.7c-2.4,1.4-4.4-0.1-4.4-3.3v-12.5C439.5,158,441.5,154.2,443.9,152.9"/>
	<path id="Path_776" class="st9" d="M440.8,183.1l8.1-4.6c0.8-0.5,1.5,0,1.5,1.1c0,1.1-0.6,2.1-1.5,2.8l-8.1,4.6
		c-0.8,0.4-1.5,0-1.5-1.1C439.4,184.7,439.9,183.7,440.8,183.1"/>
	<path id="Path_777" class="st12" d="M331.6,178.9c4.9,2.6,5.9,2.2,11.9-1.2l56.6-32.5c1.6-0.9,2.3-1.9,2.3-2.9l0,0
		c0-0.2,0-2.5,0-7.1c-2-0.9-4.3-0.1-5.2,1.9c-0.1,0.2-0.1,0.3-0.2,0.5l-27.2-15.6c-3-1.8-5-1.4-8.5,0.7L308,153.3
		c-1.3-2.6-4.6-3.7-7.2-2.4c-0.5,0.3-1,0.6-1.4,1c0,0,0,2.4,0,7.1c0,0.2,0,0.3,0,0.5c0.2,0.9,0.8,1.6,1.7,2L331.6,178.9z"/>
	<path id="Path_778" class="st9" d="M326,229.4l108-62.2v-6.2l-108,62.2V229.4z"/>
	<path id="Path_779" class="st9" d="M326,246.2L434,184v-6.2l-108,62.2V246.2z"/>
	<path id="Path_780" class="st5" d="M331.6,171.5c4.9,2.6,5.9,2.2,11.9-1.2l53.3-30.6l0,0l3.4-1.9c3.3-1.8,3-4-0.2-5.9l-30.1-17.3
		c-3-1.8-5-1.4-8.5,0.7l-60.4,34.8c-2,1.2-1.8,2.8,0.3,4.1L331.6,171.5z"/>
</g>
</svg>
