<svg id="Group_129" data-name="Group 129" xmlns="http://www.w3.org/2000/svg" xmlns:xlink="http://www.w3.org/1999/xlink" viewBox="0 0 819.36 485.03">
  <defs>
    <style>
      .cls-1 {
        fill: #23036a;
      }

      .cls-1, .cls-10, .cls-11, .cls-12, .cls-13, .cls-14, .cls-3, .cls-4, .cls-5, .cls-6, .cls-7, .cls-8, .cls-9 {
        fill-rule: evenodd;
      }

      .cls-2 {
        filter: url(#Path_736);
      }

      .cls-3 {
        fill: #f2e7fe;
      }

      .cls-4 {
        fill: #b5bde8;
      }

      .cls-5 {
        fill: #bb86fc;
      }

      .cls-6 {
        fill: #8563b7;
      }

      .cls-7 {
        fill: #eddcff;
      }

      .cls-8 {
        fill: #483c96;
      }

      .cls-9 {
        fill: #1f1754;
      }

      .cls-10 {
        fill: #766db5;
      }

      .cls-11 {
        fill: #fff;
      }

      .cls-12 {
        fill: #a69ede;
      }

      .cls-13 {
        fill: #5d477c;
      }

      .cls-14 {
        fill: #dbb2ff;
      }
    </style>
    <filter id="Path_736" x="-9" y="-6" width="837.36" height="493.72" name="Path_736">
      <feOffset dy="3"/>
      <feGaussianBlur result="blur-2" stdDeviation="3"/>
      <feFlood flood-opacity="0.16"/>
      <feComposite operator="in" in="blur-2"/>
      <feComposite in="SourceGraphic"/>
    </filter>
  </defs>
  <g id="Group_128" data-name="Group 128">
    <path id="Path_735" data-name="Path 735" class="cls-1" d="M11.55,377.54c-4.15,2.44-7,4.26-8.89,6.37a4.22,4.22,0,0,0-2.6.2V390l0,.26a7.77,7.77,0,0,0,0,1.67h0c.54,3.74,4.28,6.63,10.49,10.27l132.5,77.24c14.89,8.92,25.66,6.29,40-1.71q14.32-8,195.63-112.78L812.17,115c5.06-3,7.44-5.94,7.16-9h0c0-4.33,0-6.49,0-6.49A4.82,4.82,0,0,0,814,98.32l-.38.17a46.67,46.67,0,0,0-4.4-2.79l-149-84.83c-5.48-3.1-10.43-1.58-21.19,4.58Z" transform="translate(0 0)"/>
    <g class="cls-2">
      <path id="Path_736-2" data-name="Path 736-2" class="cls-3" d="M11.55,368.23C4,372.67.63,375.06,0,381c-.46,4.59,3.41,7.77,10.51,11.94l132.5,77.25c14.89,8.91,25.66,6.28,40-1.72L812.17,105.71c10.49-6.17,9.5-12.31-3-19.32l-149-84.83C654.71-1.54,649.76,0,639,6.13Z" transform="translate(0 0)"/>
    </g>
    <path id="Path_737" data-name="Path 737" class="cls-4" d="M578.66,221.34c9.14,4.8,11,4.07,22.23-2.3l100-57.36,6.32-3.62c6.14-3.44,5.64-7.6-.3-11l-56.55-32.49c-5.55-3.34-9.39-2.6-15.88,1.22L521,180.92c-3.72,2.18-3.46,5.26.56,7.68Z" transform="translate(0 0)"/>
    <path id="Path_738" data-name="Path 738" class="cls-5" d="M641.78,117.12Q572.17,183,600.71,206.55c28.56,23.53,41.12-23.92,123-71.5,3.9-2,5.26-5.21,5.35-10-.07-31.25.18-46.42.35-47.58Z" transform="translate(0 0)"/>
    <path id="Path_739" data-name="Path 739" class="cls-6" d="M551.19,150a104.27,104.27,0,0,1,56.24,31.62,49.1,49.1,0,0,0-6.73,24.94l-56.24-31.61a49.16,49.16,0,0,1,6.73-25" transform="translate(0 0)"/>
    <path id="Path_740" data-name="Path 740" class="cls-7" d="M573.69,131.47q45.59,14.47,56.24,31.62l-22.5,18.51L551.19,150l22.5-18.51" transform="translate(0 0)"/>
    <path id="Path_741" data-name="Path 741" class="cls-6" d="M573.69,131.47l56.24,31.62,14.23-27.29c3-5.71,5.71-10.53,13.51-14.86l68.55-39.85q6.48-3.72-.26-7.53L683.61,48.88c-3.45-2.13-6.88-1.86-10.92.52L603.11,89.33c-6.36,3.61-11.21,7.73-14.93,14.94Z" transform="translate(0 0)"/>
    <path id="Path_742" data-name="Path 742" class="cls-8" d="M640,136l-49.87-27.89-11.5,21.59,13,7.26c.93-.07,1.85-.05,2.78-.05a18.92,18.92,0,0,1,6.15,1c.53.12,1,.26,1.57.42.3.08.6.16.89.26a18.89,18.89,0,0,1,2,.53c.41.11.82.24,1.22.37s.81.2,1.21.31c2.08.55,4.14,1.17,6.18,1.84.49.14,1,.25,1.47.4s.77.21,1.15.34a18.33,18.33,0,0,1,1.92.56q2.13.63,4.23,1.32l-2.62-1.05h7.14c.43-.12.85-.22,1.28-.3s.78-.3,1.16-.43,1-.44,1.52-.64a18.48,18.48,0,0,1,2.32-1l.52-.33a20.68,20.68,0,0,1,5.61-3.11Z" transform="translate(0 0)"/>
    <path id="Path_743" data-name="Path 743" class="cls-1" d="M678.43,134.05l-38.2,22.49,9.92-19a27.32,27.32,0,0,1,12-13.25l16.25-9.45q0,19.25,0,19.24" transform="translate(0 0)"/>
    <path id="Path_744" data-name="Path 744" class="cls-1" d="M683.34,111.7l20.84-12V119l-20.84,12Z" transform="translate(0 0)"/>
    <path id="Path_745" data-name="Path 745" class="cls-1" d="M708.08,97.54l15.76-9.1v19.28l-15.76,9.1Z" transform="translate(0 0)"/>
    <path id="Path_746" data-name="Path 746" class="cls-9" d="M628.08,174.43c3.7-2.18,7-2.54,9.34-1.36l.16.09h0l5.21,2.8a3,3,0,0,1-2.36,1.38,10.66,10.66,0,0,1,.22,2.25c0,7-5.63,15.91-12.59,20a14.9,14.9,0,0,1-4.32,1.79,3,3,0,0,1,.25,2.36L618.74,201h0c-2-1-3.25-3.28-3.25-6.53,0-6.95,5.64-15.91,12.59-20" transform="translate(0 0)"/>
    <path id="Path_747" data-name="Path 747" class="cls-10" d="M633.83,177.5c6.95-4.1,12.59-1.78,12.59,5.17s-5.64,15.91-12.59,20-12.59,1.78-12.59-5.17,5.64-15.91,12.59-20" transform="translate(0 0)"/>
    <path id="Path_748" data-name="Path 748" class="cls-11" d="M633.83,181.79c4.59-2.7,8.3-1.17,8.3,3.41s-3.72,10.49-8.3,13.2-8.3,1.17-8.3-3.42,3.72-10.49,8.3-13.19" transform="translate(0 0)"/>
    <path id="Path_749" data-name="Path 749" class="cls-12" d="M633.83,187.29c1.55-.91,2.8-.39,2.8,1.15a5.88,5.88,0,0,1-2.8,4.45c-1.54.91-2.8.4-2.8-1.15a5.9,5.9,0,0,1,2.8-4.45" transform="translate(0 0)"/>
    <path id="Path_750" data-name="Path 750" class="cls-9" d="M708.1,126.32c3.7-2.18,7-2.54,9.33-1.36l.17.09h0l5.21,2.8a3.06,3.06,0,0,1-2.37,1.38,10.05,10.05,0,0,1,.23,2.25c0,7-5.64,15.91-12.59,20a15.13,15.13,0,0,1-4.32,1.79,3,3,0,0,1,.24,2.35l-5.26-2.78h0c-2-1-3.25-3.28-3.25-6.53,0-7,5.64-15.91,12.59-20" transform="translate(0 0)"/>
    <path id="Path_751" data-name="Path 751" class="cls-10" d="M713.85,129.39c6.95-4.1,12.59-1.78,12.59,5.18s-5.64,15.91-12.59,20-12.59,1.79-12.59-5.17,5.64-15.91,12.59-20" transform="translate(0 0)"/>
    <path id="Path_752" data-name="Path 752" class="cls-11" d="M713.85,133.68c4.59-2.7,8.3-1.17,8.3,3.41s-3.72,10.49-8.3,13.2-8.3,1.17-8.3-3.41,3.72-10.5,8.3-13.2" transform="translate(0 0)"/>
    <path id="Path_753" data-name="Path 753" class="cls-12" d="M713.85,139.19c1.55-.91,2.8-.4,2.8,1.15a5.86,5.86,0,0,1-2.8,4.44c-1.54.91-2.8.4-2.8-1.15a5.86,5.86,0,0,1,2.8-4.44" transform="translate(0 0)"/>
    <path id="Path_754" data-name="Path 754" class="cls-11" d="M670.89,141.77l6.46-3.82c.65-.38,1.17,0,1.17.88v1a2.84,2.84,0,0,1-1.17,2.27l-6.46,3.82c-.65.38-1.17,0-1.17-.88v-1a2.84,2.84,0,0,1,1.17-2.27" transform="translate(0 0)"/>
    <path id="Path_755" data-name="Path 755" class="cls-13" d="M545,164.3,599.21,195a7.56,7.56,0,0,1,3.23,6.08v3.69c0,2.34-1.45,3.43-3.23,2.43L545,176.5a7.65,7.65,0,0,1-3.23-6.08v-3.69c0-2.34,1.46-3.44,3.23-2.44" transform="translate(0 0)"/>
    <path id="Path_756" data-name="Path 756" class="cls-11" d="M596.43,196.05l-10.14-5.78c-1-.58-1.87,0-1.87,1.42v1.61a4.45,4.45,0,0,0,1.87,3.55l10.14,5.78c1,.59,1.87,0,1.87-1.42v-1.6a4.45,4.45,0,0,0-1.87-3.55" transform="translate(0 0)"/>
    <path id="Path_757" data-name="Path 757" class="cls-11" d="M558.26,174.36l-10.14-5.78c-1-.59-1.88,0-1.88,1.42v1.6a4.46,4.46,0,0,0,1.88,3.55l10.14,5.78c1,.58,1.87-.05,1.87-1.42v-1.6a4.45,4.45,0,0,0-1.87-3.56" transform="translate(0 0)"/>
    <path id="Path_758" data-name="Path 758" class="cls-14" d="M646.52,114.3c4.64,2.44,5.58,2.07,11.29-1.17l54-31c1.51-.85,2.23-1.78,2.23-2.71h0q0-.23,0-6.78a3.75,3.75,0,0,0-5,1.8,3.8,3.8,0,0,0-.18.47l-25.9-14.87c-2.82-1.7-4.77-1.32-8.07.62L624.07,89.86a5.1,5.1,0,0,0-6.86-2.25,5,5,0,0,0-1.29.92s0,2.32,0,6.82a1.77,1.77,0,0,0,0,.46,3,3,0,0,0,1.6,1.87Z" transform="translate(0 0)"/>
    <path id="Path_759" data-name="Path 759" class="cls-7" d="M646.52,107.26c4.64,2.44,5.58,2.06,11.29-1.17l54-31c3.12-1.74,2.87-3.85-.15-5.6L682.91,53c-2.82-1.7-4.77-1.32-8.06.62l-57.6,33.1c-1.89,1.11-1.76,2.67.28,3.9Z" transform="translate(0 0)"/>
    <path id="Path_760" data-name="Path 760" class="cls-1" d="M590.2,136.19l38.32,21.43,11.42-21.43Z" transform="translate(0 0)"/>
    <path id="Path_761" data-name="Path 761" class="cls-4" d="M311.58,289c10.83,5.69,13,4.82,26.34-2.72l118.45-68h0l7.49-4.3c7.28-4.07,6.68-9-.36-13.08l-67-38.5c-6.58-3.95-11.13-3.07-18.82,1.45L243.28,241.13c-4.4,2.58-4.1,6.22.66,9.1Z" transform="translate(0 0)"/>
    <path id="Path_762" data-name="Path 762" class="cls-13" d="M370.39,120.26q-3.64,48.87,10,62l43.06-26.06a34.45,34.45,0,0,0,13.6,2.11c13.43-.67,24.27-9.51,27.36-22.29l-55.49-31.74a13.34,13.34,0,0,0-3-1.72h0a7.74,7.74,0,0,0-6.95.35Z" transform="translate(0 0)"/>
    <path id="Path_763" data-name="Path 763" class="cls-5" d="M428.48,154q-8.53,48.87,3.76,62l53.36-30.45c2-1.11,2.33-2.87,2.32-5q0-2.18,0-13c-.36-10.3-.16-11-7.72-18.29l-10.27-10.08q-5.64-5.46-11.17-2.55Z" transform="translate(0 0)"/>
    <path id="Path_764" data-name="Path 764" class="cls-14" d="M322,275.18c4.52,1.55,7.21.2,14.8-4.11l92.76-53.22c2.58-1.44,3.82-3,3.83-4.62v-.08q0-2.79,0-77.93-95.61,33.51-114.77,58.38a20,20,0,0,1,2.32,9.4v23.15a18.51,18.51,0,0,1-.35,3.71v2a19.9,19.9,0,0,1-.36,3.77v5.49a19.9,19.9,0,0,1-.36,3.77V253c.27,1.59.41,3.19.59,4.79a31.84,31.84,0,0,1,.13,3.78c.09.51.17,1,.23,1.56.34,1.53.48,3.15.68,4.71,0,.29.06.57.08.85a20,20,0,0,1,.43,4.15v2.38" transform="translate(0 0)"/>
    <path id="Path_765" data-name="Path 765" class="cls-5" d="M264.85,163.13q50.68,11.84,60.49,34.36-.1,35.88-.06,78.3c-1.57.12-4.19-.78-7.88-2.72L270,245.87c-2.87-1.7-5.1-3.47-5.14-6.21,0-6.18.06-31.55,0-76.53" transform="translate(0 0)"/>
    <path id="Path_766" data-name="Path 766" class="cls-6" d="M317.4,194.77c8,4.19,9.59,3.56,19.4-2l92.76-53.22c5.36-3,4.93-6.63-.26-9.64l-49.36-28.36c-4.84-2.91-8.19-2.26-13.86,1.07l-99,56.89c-3.24,1.89-3,4.58.49,6.7Z" transform="translate(0 0)"/>
    <path id="Path_767" data-name="Path 767" class="cls-9" d="M363.69,236.55c4.65-2.62,8.77-2.72,11.38-.75h0l6.08,4.48a3.82,3.82,0,0,1-3.29.9c.06.53.09,1.07.1,1.6,0,7.88-6.39,17.87-14.27,22.31a18.08,18.08,0,0,1-4,1.68,4.2,4.2,0,0,1-.64,4l-6.6-4.82,0,0-.12-.08h0c-1.82-1.37-2.9-3.75-2.9-7,0-7.88,6.39-17.87,14.27-22.31" transform="translate(0 0)"/>
    <path id="Path_768" data-name="Path 768" class="cls-10" d="M369.84,241.08c7.88-4.44,14.27-1.65,14.27,6.23s-6.39,17.86-14.27,22.3-14.27,1.66-14.27-6.22,6.39-17.87,14.27-22.31" transform="translate(0 0)"/>
    <path id="Path_769" data-name="Path 769" class="cls-11" d="M369.84,246.54c4.87-2.74,8.81-1,8.81,3.84s-3.94,11-8.81,13.78-8.81,1-8.81-3.85,4-11,8.81-13.77" transform="translate(0 0)"/>
    <path id="Path_770" data-name="Path 770" class="cls-12" d="M369.84,252.92c1.34-.76,2.43-.28,2.43,1.06a4.93,4.93,0,0,1-2.43,3.8c-1.34.76-2.43.28-2.43-1.06a5,5,0,0,1,2.43-3.8" transform="translate(0 0)"/>
    <path id="Path_771" data-name="Path 771" class="cls-9" d="M451.87,188c4.65-2.61,8.78-2.72,11.38-.75h0l6.09,4.48a3.85,3.85,0,0,1-3.3.9,14.32,14.32,0,0,1,.1,1.6c0,7.88-6.39,17.87-14.27,22.31a17.42,17.42,0,0,1-4,1.68,4.2,4.2,0,0,1-.64,4l-6.6-4.82,0,0-.12-.08h0c-1.81-1.37-2.9-3.75-2.9-7,0-7.88,6.39-17.86,14.27-22.3" transform="translate(0 0)"/>
    <path id="Path_772" data-name="Path 772" class="cls-10" d="M458,192.57c7.88-4.44,14.27-1.65,14.27,6.23S465.9,216.67,458,221.11s-14.26,1.65-14.26-6.23S450.14,197,458,192.57" transform="translate(0 0)"/>
    <path id="Path_773" data-name="Path 773" class="cls-11" d="M458,198c4.87-2.74,8.81-1,8.81,3.85s-3.94,11-8.81,13.77-8.81,1-8.81-3.84,4-11,8.81-13.78" transform="translate(0 0)"/>
    <path id="Path_774" data-name="Path 774" class="cls-12" d="M458,204.41c1.34-.75,2.43-.28,2.43,1.06a4.91,4.91,0,0,1-2.43,3.8c-1.34.76-2.43.29-2.43-1.06a5,5,0,0,1,2.43-3.8" transform="translate(0 0)"/>
    <path id="Path_775" data-name="Path 775" class="cls-1" d="M443.25,152.8l20.6-11.68a2.63,2.63,0,0,1,3.41.23h0l9.09,9.83q4.5,4.53-.88,7.41l-6.14,3.46-14.18,8.08-11.9,6.74c-2.42,1.37-4.39-.12-4.39-3.31V161.09c0-3.19,2-6.92,4.39-8.29" transform="translate(0 0)"/>
    <path id="Path_776" data-name="Path 776" class="cls-11" d="M440.18,183l8.08-4.62c.81-.46,1.47,0,1.47,1.1a3.48,3.48,0,0,1-1.47,2.78l-8.08,4.62c-.81.45-1.47,0-1.47-1.11a3.46,3.46,0,0,1,1.47-2.78" transform="translate(0 0)"/>
    <path id="Path_777" data-name="Path 777" class="cls-14" d="M330.94,178.88c4.87,2.56,5.86,2.17,11.85-1.22l56.63-32.49c1.59-.89,2.34-1.87,2.34-2.85h0q0-.24,0-7.13a4,4,0,0,0-5.25,1.89,4.45,4.45,0,0,0-.19.51L369.12,122c-2.95-1.78-5-1.38-8.45.65l-53.29,30.62a5.37,5.37,0,0,0-7.2-2.37,5,5,0,0,0-1.35,1s0,2.42,0,7.15a1.29,1.29,0,0,0,0,.48,3.13,3.13,0,0,0,1.67,2Z" transform="translate(0 0)"/>
    <path id="Path_778" data-name="Path 778" class="cls-11" d="M325.37,229.39l108-62.19V161l-108,62.18Z" transform="translate(0 0)"/>
    <path id="Path_779" data-name="Path 779" class="cls-11" d="M325.37,246.12l108-62.19v-6.16L325.37,240Z" transform="translate(0 0)"/>
    <path id="Path_780" data-name="Path 780" class="cls-7" d="M330.94,171.49c4.87,2.56,5.86,2.17,11.85-1.22l53.26-30.56h0l3.37-1.94c3.28-1.83,3-4-.16-5.88l-30.13-17.31c-3-1.78-5-1.38-8.46.65L300.23,150c-2,1.16-1.84,2.8.3,4.09Z" transform="translate(0 0)"/>
  </g>
</svg>
