<svg id="Group_129" data-name="Group 129" xmlns="http://www.w3.org/2000/svg" xmlns:xlink="http://www.w3.org/1999/xlink" width="819.356" height="485.037" viewBox="0 0 819.356 485.037">
  <defs>
    <filter id="Rectangle_69" x="-9.5" y="-0.5" width="838.356" height="505.037" filterUnits="userSpaceOnUse">
      <feOffset dy="10" input="SourceAlpha"/>
      <feGaussianBlur stdDeviation="3" result="blur"/>
      <feFlood/>
      <feComposite operator="in" in2="blur"/>
      <feComposite in="SourceGraphic"/>
    </filter>
    <clipPath id="clip-path">
      <g transform="matrix(1, 0, 0, 1, 0, 0)" filter="url(#Rectangle_69)">
        <rect id="Rectangle_69-2" data-name="Rectangle 69" width="819.356" height="485.037" fill="none" stroke="#2f2f2f" stroke-width="1"/>
      </g>
    </clipPath>
    <filter id="Path_736" x="-9" y="-6" width="837.357" height="493.723" filterUnits="userSpaceOnUse">
      <feOffset dy="3" input="SourceAlpha"/>
      <feGaussianBlur stdDeviation="3" result="blur-2"/>
      <feFlood flood-opacity="0.161"/>
      <feComposite operator="in" in2="blur-2"/>
      <feComposite in="SourceGraphic"/>
    </filter>
  </defs>
  <g id="Group_128" data-name="Group 128" clip-path="url(#clip-path)">
    <path id="Path_735" data-name="Path 735" d="M11.547,377.543C7.4,379.98,4.518,381.8,2.663,383.914a4.223,4.223,0,0,0-2.6.2V390l-.029.262a6.931,6.931,0,0,0,.029,1.664h0C.6,395.667,4.338,398.56,10.551,402.2l132.5,77.244c14.885,8.913,25.656,6.284,39.973-1.717T378.651,364.949l433.518-249.93c5.058-2.975,7.446-5.94,7.165-9h0q-.043-6.492-.044-6.491a4.818,4.818,0,0,0-5.308-1.21c-.129.051-.255.107-.377.169a46.243,46.243,0,0,0-4.4-2.784s-49.673-28.276-149.017-84.83c-5.479-3.1-10.427-1.579-21.19,4.575Z" fill="#23036a" fill-rule="evenodd"/>
    <g transform="matrix(1, 0, 0, 1, 0, 0)" filter="url(#Path_736)">
      <path id="Path_736-2" data-name="Path 736" d="M11.547,368.23C3.986,372.672.627,375.061.037,380.95c-.46,4.591,3.411,7.774,10.514,11.941l132.5,77.244c14.885,8.914,25.656,6.285,39.973-1.716L812.169,105.705c10.486-6.167,9.5-12.3-2.964-19.317L660.188,1.558c-5.479-3.1-10.427-1.579-21.19,4.574Z" fill="#f2e7fe" fill-rule="evenodd"/>
    </g>
    <path id="Path_737" data-name="Path 737" d="M578.658,221.335c9.142,4.8,10.987,4.07,22.229-2.3l99.965-57.352,6.32-3.626c6.142-3.437,5.641-7.592-.3-11.037l-56.556-32.494c-5.548-3.337-9.385-2.591-15.878,1.222l-113.42,65.176c-3.716,2.18-3.457,5.253.561,7.68Z" fill="#b5bde8" fill-rule="evenodd"/>
    <path id="Path_738" data-name="Path 738" d="M641.782,117.124q-69.619,65.9-41.067,89.43s41.119-23.92,122.974-71.5c3.9-1.977,5.264-5.21,5.348-10.036-.07-31.252.188-46.421.358-47.574Z" fill="#bb86fc" fill-rule="evenodd"/>
    <path id="Path_739" data-name="Path 739" d="M551.19,149.984A104.227,104.227,0,0,1,607.429,181.6a49.1,49.1,0,0,0-6.731,24.937L544.46,174.928a49.139,49.139,0,0,1,6.73-24.944" fill="#8563b7" fill-rule="evenodd"/>
    <path id="Path_740" data-name="Path 740" d="M573.694,131.467q45.585,14.475,56.24,31.623L607.429,181.6,551.19,149.984l22.5-18.517" fill="#eddcff" fill-rule="evenodd"/>
    <path id="Path_741" data-name="Path 741" d="M573.694,131.467l56.24,31.623L644.16,135.8c3.032-5.714,5.706-10.531,13.508-14.865l68.555-39.849q6.471-3.719-.258-7.522L683.609,48.877c-3.449-2.13-6.879-1.858-10.923.519l-69.575,39.93c-6.358,3.61-11.211,7.734-14.93,14.948Z" fill="#8563b7" fill-rule="evenodd"/>
    <path id="Path_742" data-name="Path 742" d="M640.026,136.04l-49.864-27.885-11.5,21.584L591.638,137c.929-.069,1.854-.053,2.784-.053a19.133,19.133,0,0,1,6.146,1.006q.8.175,1.57.415c.3.079.6.166.893.259a19.075,19.075,0,0,1,1.957.538c.413.109.82.233,1.223.368q.613.135,1.211.308a113.737,113.737,0,0,1,6.183,1.837c.484.145.974.255,1.462.4.39.1.773.216,1.152.34a19.482,19.482,0,0,1,1.917.563,127.452,127.452,0,0,1,4.239,1.322l-2.626-1.051h7.14q.641-.176,1.286-.305.576-.232,1.16-.425c.5-.228,1-.444,1.513-.639a19.215,19.215,0,0,1,2.324-1.045c.178-.108.342-.21.515-.325a20.568,20.568,0,0,1,5.61-3.108Z" fill="#483c96" fill-rule="evenodd"/>
    <path id="Path_743" data-name="Path 743" d="M678.427,134.048l-38.2,22.489,9.922-19.031a27.371,27.371,0,0,1,12.037-13.247l16.256-9.449q-.012,19.238-.012,19.238" fill="#23036a" fill-rule="evenodd"/>
    <path id="Path_744" data-name="Path 744" d="M683.344,111.7l20.835-12.039v19.285l-20.835,12.039Z" fill="#23036a" fill-rule="evenodd"/>
    <path id="Path_745" data-name="Path 745" d="M708.079,97.536l15.758-9.1v19.285l-15.758,9.1Z" fill="#23036a" fill-rule="evenodd"/>
    <path id="Path_746" data-name="Path 746" d="M628.084,174.431c3.7-2.181,7.029-2.544,9.334-1.358l.167.088.02.012,5.206,2.8a3.064,3.064,0,0,1-2.362,1.38,10.631,10.631,0,0,1,.226,2.248c0,6.953-5.637,15.911-12.591,20.009a15.02,15.02,0,0,1-4.323,1.785,3.039,3.039,0,0,1,.245,2.36l-5.262-2.787h0c-2.019-1.043-3.25-3.279-3.25-6.528,0-6.954,5.637-15.911,12.59-20.01" fill="#1f1754" fill-rule="evenodd"/>
    <path id="Path_747" data-name="Path 747" d="M633.831,177.5c6.954-4.1,12.591-1.782,12.591,5.171s-5.637,15.912-12.591,20.01-12.59,1.782-12.59-5.171,5.637-15.912,12.59-20.01" fill="#766db5" fill-rule="evenodd"/>
    <path id="Path_748" data-name="Path 748" d="M633.831,181.791c4.585-2.7,8.3-1.175,8.3,3.41s-3.717,10.491-8.3,13.194-8.3,1.174-8.3-3.411,3.717-10.491,8.3-13.193" fill="#fff" fill-rule="evenodd"/>
    <path id="Path_749" data-name="Path 749" d="M633.831,187.295c1.546-.91,2.8-.4,2.8,1.149a5.887,5.887,0,0,1-2.8,4.447c-1.545.911-2.8.4-2.8-1.149a5.891,5.891,0,0,1,2.8-4.447" fill="#a69ede" fill-rule="evenodd"/>
    <path id="Path_750" data-name="Path 750" d="M708.1,126.324c3.7-2.181,7.029-2.545,9.333-1.36l.168.09.019.011,5.207,2.8a3.069,3.069,0,0,1-2.363,1.38,10.558,10.558,0,0,1,.226,2.247c0,6.954-5.637,15.912-12.59,20.01a15.151,15.151,0,0,1-4.323,1.786,3.027,3.027,0,0,1,.244,2.357l-5.261-2.786h0c-2.019-1.043-3.251-3.279-3.251-6.528,0-6.953,5.637-15.911,12.591-20.009" fill="#1f1754" fill-rule="evenodd"/>
    <path id="Path_751" data-name="Path 751" d="M713.851,129.394c6.953-4.1,12.591-1.782,12.591,5.171s-5.638,15.912-12.591,20.01-12.59,1.782-12.59-5.171,5.636-15.913,12.59-20.01" fill="#766db5" fill-rule="evenodd"/>
    <path id="Path_752" data-name="Path 752" d="M713.851,133.683c4.585-2.7,8.3-1.175,8.3,3.41s-3.717,10.491-8.3,13.194-8.3,1.174-8.3-3.41,3.717-10.492,8.3-13.194" fill="#fff" fill-rule="evenodd"/>
    <path id="Path_753" data-name="Path 753" d="M713.851,139.187c1.545-.911,2.8-.4,2.8,1.149a5.891,5.891,0,0,1-2.8,4.447c-1.545.91-2.8.4-2.8-1.149a5.891,5.891,0,0,1,2.8-4.447" fill="#a69ede" fill-rule="evenodd"/>
    <path id="Path_754" data-name="Path 754" d="M670.885,141.772l6.47-3.824c.642-.379,1.168.019,1.168.886v1.018a2.872,2.872,0,0,1-1.168,2.265l-6.47,3.823c-.643.38-1.168-.018-1.168-.885v-1.018a2.868,2.868,0,0,1,1.168-2.265" fill="#fff" fill-rule="evenodd"/>
    <path id="Path_755" data-name="Path 755" d="M544.974,164.3l54.238,30.647a7.6,7.6,0,0,1,3.229,6.083v3.687c0,2.342-1.453,3.438-3.229,2.435L544.974,176.5a7.6,7.6,0,0,1-3.229-6.083v-3.687c0-2.343,1.454-3.438,3.229-2.435" fill="#5d477c" fill-rule="evenodd"/>
    <path id="Path_756" data-name="Path 756" d="M596.429,196.049l-10.137-5.774c-1.031-.588-1.875.049-1.875,1.416V193.3a4.453,4.453,0,0,0,1.875,3.553l10.137,5.775c1.032.588,1.876-.05,1.876-1.417v-1.6a4.451,4.451,0,0,0-1.876-3.553" fill="#fff" fill-rule="evenodd"/>
    <path id="Path_757" data-name="Path 757" d="M558.256,174.356l-10.136-5.775c-1.032-.587-1.877.049-1.877,1.417v1.6a4.453,4.453,0,0,0,1.877,3.554l10.136,5.774c1.031.588,1.875-.049,1.875-1.416v-1.605a4.453,4.453,0,0,0-1.875-3.553" fill="#fff" fill-rule="evenodd"/>
    <path id="Path_758" data-name="Path 758" d="M646.521,114.3c4.643,2.438,5.579,2.067,11.288-1.167l53.973-30.966c1.51-.845,2.229-1.776,2.227-2.709h0v-.006h0q0-.226-.015-6.787a3.762,3.762,0,0,0-5.188,2.278l-25.9-14.878c-2.818-1.695-4.767-1.316-8.063.62L624.07,89.862a5.109,5.109,0,0,0-8.154-1.327q.008.063.017,6.817a1.417,1.417,0,0,0,0,.455,3,3,0,0,0,1.6,1.874Z" fill="#dbb2ff" fill-rule="evenodd"/>
    <path id="Path_759" data-name="Path 759" d="M646.521,107.257c4.643,2.438,5.579,2.067,11.288-1.167l53.973-30.966c3.119-1.745,2.864-3.855-.154-5.605l-28.719-16.5c-2.818-1.695-4.767-1.316-8.063.621l-57.6,33.1c-1.887,1.107-1.755,2.668.285,3.9Z" fill="#eddcff" fill-rule="evenodd"/>
    <path id="Path_760" data-name="Path 760" d="M590.2,136.193l38.323,21.43,11.417-21.43Z" fill="#23036a" fill-rule="evenodd"/>
    <path id="Path_761" data-name="Path 761" d="M311.578,289.011c10.832,5.688,13.019,4.822,26.34-2.725L456.37,218.327h0l7.489-4.295c7.278-4.073,6.684-9-.358-13.079l-67.014-38.5c-6.575-3.954-11.122-3.07-18.815,1.448L243.276,241.127c-4.4,2.583-4.1,6.225.665,9.1Z" fill="#b5bde8" fill-rule="evenodd"/>
    <path id="Path_762" data-name="Path 762" d="M370.389,120.259q-3.646,48.87,9.961,61.986l43.062-26.066a34.5,34.5,0,0,0,13.6,2.114c13.428-.678,24.265-9.509,27.36-22.293l-55.49-31.743a13.783,13.783,0,0,0-3.006-1.719l0,0h0a7.72,7.72,0,0,0-6.951.353Z" fill="#5d477c" fill-rule="evenodd"/>
    <path id="Path_763" data-name="Path 763" d="M428.477,153.957q-8.53,48.87,3.765,61.987L485.6,185.488c2-1.112,2.333-2.863,2.32-5.031t-.013-12.944c-.354-10.3-.162-11.051-7.716-18.291l-10.276-10.084q-5.634-5.459-11.165-2.55Z" fill="#bb86fc" fill-rule="evenodd"/>
    <path id="Path_764" data-name="Path 764" d="M322,275.177c4.523,1.551,7.206.2,14.8-4.105l92.764-53.221c2.577-1.443,3.813-3.029,3.827-4.623v-.074q-.009-2.793-.016-77.932-95.6,33.5-114.764,58.381a20.094,20.094,0,0,1,2.32,9.4V226.15a18.777,18.777,0,0,1-.356,3.707v1.99a20.231,20.231,0,0,1-.355,3.775v5.484a20.146,20.146,0,0,1-.357,3.774v8.085c.265,1.589.411,3.182.589,4.783a33.223,33.223,0,0,1,.125,3.784q.144.766.232,1.555c.34,1.53.484,3.155.678,4.713.036.286.064.57.086.855A20.24,20.24,0,0,1,322,272.8v2.381" fill="#dbb2ff" fill-rule="evenodd"/>
    <path id="Path_765" data-name="Path 765" d="M264.853,163.132q50.684,11.833,60.488,34.363-.1,35.867-.065,78.3-2.343.178-7.88-2.72l-47.451-27.208c-2.87-1.693-5.1-3.462-5.136-6.21,0-6.181.065-31.542.044-76.529" fill="#bb86fc" fill-rule="evenodd"/>
    <path id="Path_766" data-name="Path 766" d="M317.4,194.775c7.979,4.19,9.589,3.552,19.4-2.007l92.764-53.221c5.361-3,4.922-6.626-.264-9.633l-49.361-28.36c-4.842-2.912-8.193-2.262-13.858,1.066l-98.992,56.885c-3.244,1.9-3.017,4.585.489,6.7Z" fill="#8563b7" fill-rule="evenodd"/>
    <path id="Path_767" data-name="Path 767" d="M363.689,236.551c4.648-2.62,8.776-2.723,11.381-.75h0q6.02,4.433,6.085,4.479a3.861,3.861,0,0,1-3.3.9,13.145,13.145,0,0,1,.1,1.6c0,7.88-6.388,17.867-14.268,22.307a17.626,17.626,0,0,1-3.981,1.68,4.19,4.19,0,0,1-.634,4.011l-6.6-4.82-.035-.026-.118-.085h0c-1.818-1.37-2.9-3.748-2.9-6.986,0-7.879,6.387-17.868,14.267-22.307" fill="#1f1754" fill-rule="evenodd"/>
    <path id="Path_768" data-name="Path 768" d="M369.843,241.08c7.88-4.439,14.268-1.652,14.268,6.229s-6.388,17.865-14.268,22.306-14.268,1.653-14.268-6.228,6.388-17.867,14.268-22.307" fill="#766db5" fill-rule="evenodd"/>
    <path id="Path_769" data-name="Path 769" d="M369.843,246.538c4.865-2.741,8.809-1.021,8.809,3.845s-3.944,11.032-8.809,13.773-8.809,1.021-8.809-3.845,3.944-11.032,8.809-13.773" fill="#fff" fill-rule="evenodd"/>
    <path id="Path_770" data-name="Path 770" d="M369.843,252.918c1.342-.756,2.43-.281,2.43,1.061a4.949,4.949,0,0,1-2.43,3.8c-1.342.756-2.43.282-2.43-1.06a4.952,4.952,0,0,1,2.43-3.8" fill="#a69ede" fill-rule="evenodd"/>
    <path id="Path_771" data-name="Path 771" d="M451.871,188.045c4.648-2.619,8.776-2.722,11.381-.75h0q6.02,4.433,6.085,4.478a3.858,3.858,0,0,1-3.3.9,13.174,13.174,0,0,1,.1,1.6c0,7.879-6.388,17.866-14.268,22.307a17.576,17.576,0,0,1-3.981,1.679,4.192,4.192,0,0,1-.634,4.011l-6.6-4.819-.035-.027-.116-.085h0c-1.818-1.37-2.9-3.748-2.9-6.986,0-7.879,6.388-17.867,14.268-22.307" fill="#1f1754" fill-rule="evenodd"/>
    <path id="Path_772" data-name="Path 772" d="M458.024,192.575c7.88-4.44,14.268-1.652,14.268,6.228s-6.388,17.867-14.268,22.306-14.268,1.653-14.268-6.226,6.388-17.868,14.268-22.308" fill="#766db5" fill-rule="evenodd"/>
    <path id="Path_773" data-name="Path 773" d="M458.024,198.033c4.865-2.741,8.809-1.02,8.809,3.845s-3.944,11.032-8.809,13.773-8.81,1.021-8.81-3.845,3.945-11.031,8.81-13.773" fill="#fff" fill-rule="evenodd"/>
    <path id="Path_774" data-name="Path 774" d="M458.024,204.412c1.341-.756,2.429-.28,2.429,1.061a4.949,4.949,0,0,1-2.429,3.8c-1.342.756-2.43.282-2.43-1.059a4.952,4.952,0,0,1,2.43-3.8" fill="#a69ede" fill-rule="evenodd"/>
    <path id="Path_775" data-name="Path 775" d="M443.252,152.8l20.6-11.677a2.628,2.628,0,0,1,3.411.227h0l9.083,9.825q4.5,4.541-.878,7.411l-6.135,3.469L455.15,170.13l-11.9,6.744c-2.415,1.369-4.391-.121-4.391-3.312V161.094c0-3.191,1.976-6.921,4.391-8.29" fill="#23036a" fill-rule="evenodd"/>
    <path id="Path_776" data-name="Path 776" d="M440.177,182.955l8.086-4.616c.806-.461,1.464.036,1.464,1.1a3.474,3.474,0,0,1-1.464,2.777l-8.086,4.619c-.807.458-1.465-.038-1.465-1.107a3.477,3.477,0,0,1,1.465-2.777" fill="#fff" fill-rule="evenodd"/>
    <path id="Path_777" data-name="Path 777" d="M330.942,178.884c4.871,2.558,5.855,2.169,11.845-1.225l56.635-32.493c1.584-.887,2.339-1.863,2.337-2.843h0v-.006q0-.24-.016-7.123a3.944,3.944,0,0,0-5.444,2.391L369.125,121.97c-2.956-1.778-5-1.381-8.46.651l-53.282,30.617a5.361,5.361,0,0,0-8.557-1.392q.011.066.019,7.153a1.5,1.5,0,0,0,0,.478,3.144,3.144,0,0,0,1.679,1.967Z" fill="#dbb2ff" fill-rule="evenodd"/>
    <path id="Path_778" data-name="Path 778" d="M325.371,229.386l108-62.185v-6.163l-108,62.184Z" fill="#fff" fill-rule="evenodd"/>
    <path id="Path_779" data-name="Path 779" d="M325.371,246.116l108-62.184v-6.163l-108,62.184Z" fill="#fff" fill-rule="evenodd"/>
    <path id="Path_780" data-name="Path 780" d="M330.942,171.493c4.871,2.558,5.854,2.169,11.845-1.225l53.268-30.561h0l3.368-1.932c3.273-1.831,3.005-4.046-.161-5.882l-30.136-17.314c-2.956-1.778-5-1.381-8.46.651l-60.438,34.73c-1.981,1.161-1.842,2.8.3,4.093Z" fill="#eddcff" fill-rule="evenodd"/>
  </g>
</svg>
